<?xml version="1.0" encoding="UTF-8"?>
<svg width="42px" height="42px" viewBox="0 0 42 42" version="1.1" xmlns="http://www.w3.org/2000/svg" xmlns:xlink="http://www.w3.org/1999/xlink">
    <!-- Generator: Sketch 63.1 (92452) - https://sketch.com -->
    <title>connect-Twitter-42px</title>
    <desc>Created with Sketch.</desc>
    <g id="connect-Twitter-42px" stroke="none" stroke-width="1" fill="none" fill-rule="evenodd">
        <g id="Group">
            <circle id="Oval" fill="#1DA1F2" fill-rule="nonzero" cx="21" cy="21" r="21"></circle>
            <g id="Icons-/-Social-/-Twitter" transform="translate(9.000000, 9.000000)">
                <g id="Group">
                    <polygon id="Shape" points="0 0 24 0 24 24 0 24"></polygon>
                    <path d="M19.9453125,7.921875 L19.9453125,8.4375 C19.9453125,9.84375703 19.6875026,11.2265557 19.171875,12.5859375 C18.6562474,13.9453193 17.9218798,15.1874944 16.96875,16.3125 C16.0156202,17.4375056 14.7812576,18.351559 13.265625,19.0546875 C11.7499924,19.757816 10.0859466,20.109375 8.2734375,20.109375 C5.99217609,20.109375 3.89844703,19.5000061 1.9921875,18.28125 C2.30468906,18.3125002 2.63281078,18.328125 2.9765625,18.328125 C4.88282203,18.328125 6.58593,17.7500058 8.0859375,16.59375 C7.17968297,16.5624998 6.37500352,16.2812527 5.671875,15.75 C4.96874648,15.2187473 4.4921875,14.5468791 4.2421875,13.734375 C4.4921875,13.7968753 4.74218625,13.828125 4.9921875,13.828125 C5.36718937,13.828125 5.72656078,13.7656256 6.0703125,13.640625 C5.13280781,13.4531241 4.35156563,12.9843788 3.7265625,12.234375 C3.10155937,11.4843712 2.7890625,10.6250048 2.7890625,9.65625 L2.7890625,9.609375 C3.38281547,9.92187656 4.00780922,10.0937498 4.6640625,10.125 C3.44530641,9.28124578 2.8359375,8.14063219 2.8359375,6.703125 C2.8359375,5.95312125 3.02343562,5.26562812 3.3984375,4.640625 C4.42969266,5.890625 5.67186773,6.890625 7.125,7.640625 C8.57813227,8.390625 10.1484291,8.81249953 11.8359375,8.90625 C11.7734372,8.59374844 11.7421875,8.28125156 11.7421875,7.96875 C11.7421875,6.84374437 12.140621,5.88281648 12.9375,5.0859375 C13.734379,4.28905852 14.6953069,3.890625 15.8203125,3.890625 C17.0078184,3.890625 18.0078084,4.31249578 18.8203125,5.15625 C19.7578172,4.96874906 20.6328084,4.64062734 21.4453125,4.171875 C21.1328109,5.14062984 20.523442,5.890625 19.6171875,6.421875 C20.4609417,6.32812453 21.2578088,6.12500156 22.0078125,5.8125 C21.4453097,6.62500406 20.7578166,7.32812203 19.9453125,7.921875 Z" id="twitter" fill="#FFFFFF"></path>
                </g>
            </g>
        </g>
    </g>
</svg>