<?xml version="1.0" encoding="UTF-8"?>
<svg width="42px" height="42px" viewBox="0 0 42 42" version="1.1" xmlns="http://www.w3.org/2000/svg" xmlns:xlink="http://www.w3.org/1999/xlink">
    <!-- Generator: Sketch 63.1 (92452) - https://sketch.com -->
    <title>connect-Google-42px</title>
    <desc>Created with Sketch.</desc>
    <g id="connect-Google-42px" stroke="none" stroke-width="1" fill="none" fill-rule="evenodd">
        <g id="Group">
            <path d="M21,0 C32.5979797,0 42,9.40202025 42,21 C42,32.5979797 32.5979797,42 21,42 C9.40202025,42 0,32.5979797 0,21 C0,9.40202025 9.40202025,0 21,0 Z" id="Path" fill="#FFFFFF" fill-rule="nonzero"></path>
            <path d="M21,0 C32.5979797,0 42,9.40202025 42,21 C42,32.5979797 32.5979797,42 21,42 C9.40202025,42 0,32.5979797 0,21 C0,9.40202025 9.40202025,0 21,0 Z M21,1 C9.954305,1 1,9.954305 1,21 C1,32.045695 9.954305,41 21,41 C32.045695,41 41,32.045695 41,21 C41,9.954305 32.045695,1 21,1 Z" id="Oval" fill="#C0C2C8" fill-rule="nonzero"></path>
            <g id="google-login" transform="translate(10.000000, 10.000000)">
                <path d="M20.9810526,11.5131579 C20.9810526,10.7331579 20.9110527,9.98315789 20.7810526,9.26315789 L10.4210526,9.26315789 L10.4210526,13.5181579 L16.3410527,13.5181579 C16.0860526,14.8931579 15.3110526,16.0581579 14.1460527,16.8381579 L14.1460527,19.5981579 L17.7010526,19.5981579 C19.7810527,17.6831579 20.9810526,14.8631579 20.9810526,11.5131579 L20.9810526,11.5131579 Z" id="Shape" fill="#4285F4" fill-rule="nonzero"></path>
                <path d="M10.9878947,21.6468421 C13.9578948,21.6468421 16.4478947,20.6618421 18.2678948,18.9818421 L14.7128947,16.2218421 C13.7278947,16.8818421 12.4678948,17.2718421 10.9878947,17.2718421 C8.12289473,17.2718421 5.69789474,15.3368421 4.83289474,12.7368421 L1.15789474,12.7368421 L1.15789474,15.5868421 C2.96789474,19.1818421 6.68789474,21.6468421 10.9878947,21.6468421 L10.9878947,21.6468421 Z" id="Shape" fill="#34A853" fill-rule="nonzero"></path>
                <path d="M4.845,12.8194736 C4.625,12.1594736 4.5,11.4544737 4.5,10.7294737 C4.5,10.0044737 4.625,9.29947369 4.845,8.63947369 L4.845,5.78947368 L1.17000001,5.78947368 C0.425000001,7.27447368 0,8.95447368 0,10.7294737 C0,12.5044737 0.425000001,14.1844737 1.17000001,15.6694737 L4.845,12.8194736 L4.845,12.8194736 Z" id="Shape" fill="#FBBC05" fill-rule="nonzero"></path>
                <path d="M10.9878947,4.375 C12.6028948,4.375 14.0528947,4.93 15.1928948,6.02 L18.3478947,2.865 C16.4428947,1.09 13.9528948,0 10.9878947,0 C6.68789474,0 2.96789474,2.465 1.15789474,6.06 L4.83289474,8.91 C5.69789474,6.30999999 8.12289473,4.375 10.9878947,4.375 L10.9878947,4.375 Z" id="Shape" fill="#EA4335" fill-rule="nonzero"></path>
                <polygon id="Shape" points="0 0 22 0 22 22 0 22"></polygon>
            </g>
        </g>
    </g>
</svg>