<?xml version="1.0" encoding="UTF-8"?>
<svg width="223px" height="50px" viewBox="0 0 223 50" version="1.1" xmlns="http://www.w3.org/2000/svg" xmlns:xlink="http://www.w3.org/1999/xlink">
    <!-- Generator: Sketch 63.1 (92452) - https://sketch.com -->
    <title>Nutritienda-Logo-Desktop</title>
    <desc>Created with Sketch.</desc>
    <g id="Nutritienda-Logo-Desktop" stroke="none" stroke-width="1" fill="none" fill-rule="evenodd">
        <g id="Nutritienda-Logo">
            <rect id="Rectangle" x="0" y="0" width="223" height="50"></rect>
            <g id="Group-3" transform="translate(0.500000, 0.000000)" fill-rule="nonzero">
                <g id="Group-2" transform="translate(214.396893, 2.351923)" fill="#FA2398">
                    <path d="M4.13217433,3.83343367 C4.03258813,3.73385824 3.9081305,3.63428281 3.75878706,3.55962184 C4.05747392,3.50985026 4.28151774,3.41027123 4.43086118,3.26092422 C4.58021896,3.08668782 4.65490501,2.88753339 4.65490501,2.61372155 C4.65490501,2.41457069 4.60513342,2.24033429 4.50556159,2.06609792 C4.40597539,1.9167473 4.28151776,1.79228608 4.10728854,1.74248223 C3.93304497,1.69267839 3.65920087,1.6429068 3.31072809,1.6429068 L1.86695063,1.6429068 L1.86695063,5.05317806 L2.56395357,5.05317806 L2.56395357,3.63431148 L2.71331135,3.63431148 C2.86265476,3.63431148 2.98711241,3.65919727 3.06181281,3.68408307 C3.13649889,3.70897245 3.21115623,3.7587763 3.2858423,3.83343367 C3.3605427,3.90809461 3.46008586,4.08235972 3.65922957,4.33128575 L4.15708881,5.07806385 L4.97854938,5.07806385 L4.55539053,4.40597539 C4.38116132,4.13216356 4.23177485,3.9330091 4.13223169,3.83343367 L4.13217433,3.83343367 L4.13217433,3.83343367 Z M3.0866986,3.08665558 L2.58883935,3.08665558 L2.58883935,2.21541626 L3.13647019,2.21541626 C3.41027125,2.21541626 3.58454349,2.21541626 3.63431508,2.24030205 C3.75878706,2.26518783 3.8334731,2.29007722 3.88324469,2.36476686 C3.93301627,2.4394565 3.98281654,2.53900327 3.98281654,2.6385787 C3.98281654,2.73815413 3.95793075,2.8128151 3.90813048,2.88750474 C3.8583302,2.96219437 3.78367283,3.01196596 3.70897245,3.03685175 C3.60940059,3.06174114 3.41027125,3.08662693 3.08665558,3.08662693 L3.0866986,3.08665558 Z" id="Shape"></path>
                    <path d="M3.33561388,-6.03961325e-14 C1.49356338,-6.03961325e-14 1.3500312e-13,1.49355622 1.3500312e-13,3.33561388 C1.3500312e-13,5.17767155 1.49356338,6.67122419 3.33561388,6.67122419 C5.17767874,6.67122419 6.64634197,5.17767157 6.64634197,3.33561388 C6.64634197,1.4935562 5.15279295,-6.03961325e-14 3.33561388,-6.03961325e-14 Z M3.33561388,6.02399283 C1.84206483,6.02399283 0.647202666,4.82913783 0.647202666,3.33558161 C0.647202666,1.84202899 1.84206486,0.6471704 3.33561388,0.6471704 C4.82917726,0.6471704 6.0240251,1.84202899 6.0240251,3.33558161 C6.0240251,4.80425202 4.80429148,6.02399283 3.33561388,6.02399283 Z" id="Shape"></path>
                </g>
                <g id="Group" transform="translate(19.975186, 40.655378)" fill="#444444">
                    <polygon id="Path" points="0.0309028343 1.1858115 0.0309028343 0.319405898 6.2960906 0.319405898 6.2960906 1.1858115 3.64113176 1.1858115 3.64113176 8.09539065 2.68585987 8.09539065 2.68585987 1.1858115"></polygon>
                    <polygon id="Path" points="15.7085707 4.58518178 11.265055 4.58518178 11.265055 8.09539065 10.2982959 8.09539065 10.2982959 0.319405898 11.265055 0.319405898 11.265055 3.68499031 15.7085707 3.68499031 15.7085707 0.319405898 16.6749928 0.319405898 16.6749928 8.09539065 15.7085707 8.09539065"></polygon>
                    <polygon id="Path" points="21.5216331 0.319405898 26.9873273 0.319405898 26.9873273 1.2081083 22.4772439 1.2081083 22.4772439 3.64106365 26.7984355 3.64106365 26.7984355 4.540581 22.4772439 4.540581 22.4772439 7.17356935 27.165067 7.17356935 27.165067 8.09539065 21.5216331 8.09539065"></polygon>
                    <polygon id="Path" points="37.8342329 0.319405898 42.5997757 6.27337786 42.5997757 0.319405898 43.5550458 0.319405898 43.5550458 8.09539065 42.8886875 8.09539065 38.1119927 2.16304137 38.1119927 8.09539065 37.1563855 8.09539065 37.1563855 0.319405898"></polygon>
                    <path d="M54.6564033,0.330220815 L54.6564033,4.99607701 C54.6564033,7.15127253 53.201022,8.24001509 51.5013368,8.24001509 C49.8462524,8.24001509 48.3131587,7.17356933 48.3131587,4.99607701 L48.3131587,0.330220815 L49.2687658,0.330220815 L49.2687658,4.99607701 C49.2687658,6.54032995 50.3017556,7.35131269 51.5013368,7.35131269 C52.701255,7.35131269 53.7011331,6.50653692 53.7011331,4.98526927 L53.7011331,0.319405898 L54.6452512,0.319405898 L54.6564033,0.330220815 Z" id="Path"></path>
                    <polygon id="Path" points="58.5704145 1.1858115 58.5704145 0.319405898 64.8356023 0.319405898 64.8356023 1.1858115 62.1806399 1.1858115 62.1806399 8.09539065 61.2253697 8.09539065 61.2253697 1.1858115"></polygon>
                    <path d="M71.6924694,5.29614084 L69.803889,5.29614084 L69.803889,8.09539065 L68.8374669,8.09539065 L68.8374669,0.319405898 L72.3703168,0.319405898 C74.1254177,0.319405898 75.0029681,1.54129103 75.0029681,2.80777695 C75.01412,3.98505414 74.3697287,5.08461163 72.7700601,5.21842116 L75.3361508,8.09539065 L74.1142656,8.09539065 L71.6924694,5.29614084 Z M74.036546,2.83008092 C74.047698,2.05220991 73.4921783,1.18581148 72.3703168,1.18581148 L69.803889,1.18581148 L69.803889,4.42974239 L72.3257089,4.42974239 C73.4921783,4.42974239 74.036546,3.70729428 74.036546,2.83008092 Z" id="Shape"></path>
                    <polygon id="Path" points="79.5275848 0.319405898 80.494007 0.319405898 80.494007 8.09539065 79.5275848 8.09539065"></polygon>
                    <polygon id="Path" points="85.339299 0.319405898 90.804986 0.319405898 90.804986 1.2081083 86.2949063 1.2081083 86.2949063 3.64106365 90.6160978 3.64106365 90.6160978 4.540581 86.2949063 4.540581 86.2949063 7.17356935 90.9827293 7.17356935 90.9827293 8.09539065 85.339299 8.09539065"></polygon>
                    <polygon id="Path" points="96.0290799 0.319405898 100.794623 6.27337786 100.794623 0.319405898 101.749893 0.319405898 101.749893 8.09539065 101.083527 8.09539065 96.3068397 2.16304137 96.3068397 8.09539065 95.3512326 8.09539065 95.3512326 0.319405898"></polygon>
                    <polygon id="Path" points="105.752776 1.1858115 105.752776 0.319405898 112.017957 0.319405898 112.017957 1.1858115 109.362994 1.1858115 109.362994 8.09539065 108.407724 8.09539065 108.407724 1.1858115"></polygon>
                    <path d="M118.708576,1.01888306 C117.719858,1.01888306 116.664556,1.40815563 116.664556,2.35227375 C116.664556,3.19637537 117.630986,3.44101634 118.775144,3.62957459 C120.330542,3.87422269 121.863635,4.18509428 121.863635,5.94020228 C121.852491,7.68448821 120.186261,8.25082999 118.697418,8.25082999 C117.320108,8.25082999 116.009006,7.75071883 115.409223,6.45112116 L116.209053,5.98480304 C116.709165,6.90662435 117.753306,7.35131264 118.708576,7.35131264 C119.653032,7.35131264 120.908035,7.05124881 120.908035,5.90708336 C120.919181,4.94066127 119.830775,4.66290143 118.664312,4.48515807 C117.164668,4.25199901 115.709287,3.90733439 115.709287,2.32996971 C115.686982,0.708004264 117.342411,0.152477407 118.686272,0.152477407 C119.84159,0.152477407 120.941485,0.38563647 121.630139,1.56358778 L120.897221,2.01909099 C120.474836,1.34124368 119.574975,1.03037213 118.708576,1.01888306 Z" id="Path"></path>
                    <path d="M134.487946,1.01888306 C133.499228,1.01888306 132.443941,1.40815563 132.443941,2.35227375 C132.443941,3.19637537 133.410355,3.44101634 134.554528,3.62957459 C136.109926,3.87422269 137.643019,4.18509428 137.643019,5.94020228 C137.631861,7.68448821 135.965302,8.25082999 134.476802,8.25082999 C133.099476,8.25082999 131.788734,7.75071883 131.188606,6.45112116 L131.988437,5.98480304 C132.488534,6.90662435 133.532676,7.35131264 134.487946,7.35131264 C135.432071,7.35131264 136.687405,7.05124881 136.687405,5.90708336 C136.698565,4.94066127 135.609814,4.66290143 134.443682,4.48515807 C132.943708,4.25199901 131.48867,3.90733439 131.48867,2.32996971 C131.466366,0.708004264 133.121451,0.152477407 134.465657,0.152477407 C135.62096,0.152477407 136.720869,0.38563647 137.409523,1.56358778 L136.67626,2.01909099 C136.254206,1.34124368 135.354359,1.03037213 134.487946,1.01888306 Z" id="Path"></path>
                    <polygon id="Path" points="147.366378 4.58518178 142.922866 4.58518178 142.922866 8.09539065 141.956093 8.09539065 141.956093 0.319405898 142.922866 0.319405898 142.922866 3.68499031 147.366378 3.68499031 147.366378 0.319405898 148.332794 0.319405898 148.332794 8.09539065 147.366378 8.09539065"></polygon>
                    <path d="M160.589265,4.22970225 C160.577979,6.26256294 159.311487,8.25083001 156.645379,8.25083001 C153.979272,8.25083001 152.690819,6.27337786 152.690819,4.22970225 C152.690819,1.97449026 154.201623,0.185596359 156.656538,0.185596359 C159.289526,0.197085428 160.600283,2.17453042 160.589265,4.22970225 Z M156.656538,1.07497291 C154.679416,1.07497291 153.657248,2.53001711 153.657248,4.22970225 C153.657248,5.80706692 154.612518,7.33982362 156.656538,7.33982362 C158.700544,7.33982362 159.622709,5.76245895 159.622709,4.22970225 C159.633854,2.65233758 158.689399,1.09660274 156.656538,1.07497291 Z" id="Shape"></path>
                    <path d="M165.903094,8.09539063 L164.947494,8.09539063 L164.947494,0.319405874 L168.480344,0.319405874 C172.057113,0.319405874 172.057113,5.57390784 168.480344,5.58471559 L165.903094,5.58471559 L165.903094,8.09539063 L165.903094,8.09539063 Z M168.480344,1.21892321 L165.903094,1.21892321 L165.903094,4.68520544 L168.480344,4.68520544 C170.768661,4.68520544 170.768661,1.21892321 168.480344,1.21892321 Z" id="Shape"></path>
                </g>
                <g id="Group" fill="#FA2398">
                    <path d="M13.8705417,29.2404164 L13.8705417,18.7410226 C13.8705417,15.6871955 12.5924287,14.1152884 9.91562125,14.1152884 C7.31116193,14.0792901 5.5688258,16.407155 5.5688258,18.9810091 L5.5688258,29.2404164 L0.0584636789,29.2404164 L0.0584636789,9.36956103 L5.10460542,9.36956103 L5.29752766,11.9074132 C7.00369064,9.61554665 9.18010272,8.84759053 11.5072361,8.88958799 C15.8118306,8.88958799 19.5014825,10.9834654 19.5014825,18.7050207 L19.5014825,29.2404164 L13.8705417,29.2404164 L13.8705417,29.2404164 Z" id="Path"></path>
                    <path d="M29.7203715,9.36956103 L29.7203715,19.8689584 C29.7203715,22.922782 31.0045141,24.494689 33.6813215,24.494689 C36.2797495,24.5306909 38.0281162,22.2028224 38.0281162,19.6289719 L38.0281162,9.36956103 L43.5384791,9.36956103 L43.5384791,29.2404164 L38.4923365,29.2404164 L38.2994143,26.6245684 C36.5872217,29.0004299 34.4168401,29.678392 32.0897068,29.6423901 C27.7790826,29.6423901 24.0954604,27.6325075 24.0954604,19.910956 L24.0954604,9.36956103 L29.7203715,9.36956103 L29.7203715,9.36956103 Z" id="Path"></path>
                    <path d="M90.4252733,3.36122402 C90.4252733,7.70497419 84.058814,7.70497419 84.058814,3.36122402 C84.058814,-0.982526154 90.4252733,-0.982526154 90.4252733,3.36122402 Z M84.4703116,9.33356269 L84.4703116,29.2404164 L90.019807,29.2404164 L90.019807,9.33356269 L84.4703116,9.33356269 Z" id="Shape"></path>
                    <path d="M116.379604,2.99160549 C116.379604,5.84743999 112.189553,5.84743999 112.189553,2.94960803 C112.189553,0.0937735325 116.379604,0.0937735325 116.379604,2.99160549 Z M112.653777,29.2404164 L115.837007,29.2404164 L115.837007,9.29156524 L112.653777,9.29156524 L112.653777,29.2404164 Z" id="Shape"></path>
                    <path d="M139.011882,26.0606005 C137.070589,28.4364619 133.736639,29.6003927 130.746328,29.6003927 C124.807919,29.6003927 120.654057,25.53863 120.654057,19.2269912 C120.654057,13.2333382 124.807919,8.93158548 130.589583,8.93158548 C136.44962,8.93158548 140.916985,12.6693702 140.175447,20.5949135 L123.879485,20.5949135 C124.223124,24.2547025 127.135063,26.5465691 130.824714,26.5465691 C132.995086,26.5465691 135.635719,25.6586197 136.919869,24.0507179 L139.05408,26.0606005 L139.011882,26.0606005 L139.011882,26.0606005 Z M137.148961,17.8590723 C136.992217,13.9952951 134.43598,11.9074132 130.667956,11.9074132 C127.334006,11.9074132 124.422081,13.9952951 123.879485,17.8170749 L137.148961,17.8170749 L137.148961,17.8590723 Z" id="Shape"></path>
                    <path d="M144.805595,9.33356269 L147.717519,9.33356269 L147.868253,12.5073795 C149.538241,10.1375171 151.865371,9.0515787 154.427631,9.0515787 C159.280848,9.0515787 162.849916,12.4293836 162.849916,18.2610495 L162.849916,29.2404164 L159.666686,29.2404164 L159.666686,18.2970479 C159.666686,14.4812673 157.496316,12.1054023 153.848862,12.1054023 C150.352128,12.1473997 147.946626,15.0032342 147.946626,18.5790283 L147.946626,29.2404164 L144.805595,29.2404164 L144.805595,9.36956103 L144.805595,9.33356269 L144.805595,9.33356269 Z" id="Path"></path>
                    <path d="M186.482065,1.09003702 L186.482065,29.1984189 L183.497778,29.1984189 L183.341033,25.5806274 C181.785592,28.3164723 178.994239,29.6003926 176.160686,29.6003926 C170.686487,29.6003926 166.656437,25.8626114 166.656437,19.3049905 C166.656437,12.6273727 170.686487,9.00958123 176.124513,9.00958123 C178.837494,9.00958123 181.942337,10.2995078 183.304859,12.9933517 L183.304859,1.09003702 L186.482065,1.09003702 L186.482065,1.09003702 Z M176.395803,12.069404 C172.669978,12.069404 169.643507,14.6012606 169.643507,19.2629931 C169.643507,23.8527289 172.669978,26.4625742 176.395803,26.4625742 C180.200002,26.4625742 183.184288,23.5707449 183.184288,19.2269912 C183.184288,14.9612368 180.157804,12.069404 176.353606,12.069404 L176.395803,12.069404 L176.395803,12.069404 Z" id="Shape"></path>
                    <path d="M207.606659,25.7006172 L207.6775,29.2415423 L210.826062,29.2404164 L210.826062,9.36956105 L207.721205,9.36956105 L207.679007,12.9933517 C206.286349,10.4195012 203.452797,9.05157875 200.577032,9.05157875 C195.108871,9.0095813 190.719878,12.8733585 190.719878,19.3049905 C190.719878,25.7786165 195.030499,29.7203895 200.540858,29.7203895 C203.181491,29.7203895 206.087391,28.4364619 207.606659,25.7006172 Z M200.697602,26.7025606 C196.893405,26.7025606 193.824721,23.8527289 193.824721,19.4249802 C193.824721,15.0032342 196.903201,12.1473997 200.733777,12.1473997 C209.928137,12.1473997 209.933803,26.7025606 200.697602,26.7025606 Z" id="Shape"></path>
                    <path d="M60.8525634,23.9974681 C60.2255635,24.2940751 59.2390893,24.4526916 58.604559,24.4526916 C57.5555368,24.4526916 56.4281424,23.8887237 56.4281424,21.8008417 L56.4281424,14.3192766 L61.3175333,14.3192766 L61.3175333,9.49555344 L56.4643164,9.49555344 L56.4643164,3.93987244 L50.8755811,4.58783531 L50.8755811,9.49555344 L47.4632551,9.49555344 L47.4632551,14.3192766 L50.8755811,14.3192766 L50.8755811,21.8008417 C50.8755811,27.9924909 54.0226367,29.8823766 58.176509,29.678392 C59.485143,29.610892 60.5205998,29.379533 61.6758742,28.9648081 L60.8525634,23.9974681 Z" id="Path"></path>
                    <path d="M80.579092,9.89527873 C79.5613492,9.3170642 78.482188,8.93158546 77.2217837,8.93158546 C75.0875726,8.93158546 73.3814114,9.73553992 72.0972688,11.5834318 L71.6692189,9.41155849 L66.4723557,9.41155849 L66.4723557,29.2404164 L72.0610947,29.2404164 L72.0610947,18.9030097 C72.0610947,15.9271819 74.1169263,14.3192766 76.5224356,14.3192766 C77.6494535,14.3192766 78.5929692,14.6391307 79.5003108,15.2739694 L80.579092,9.89527873 Z" id="Path"></path>
                    <path d="M107.191648,25.8757356 C106.374361,26.2807142 105.465133,26.5465691 104.653505,26.5465691 C102.362542,26.5465691 101.62702,25.0586569 101.62702,22.7247929 L101.62702,12.2253955 L107.607635,12.2253955 L107.607635,9.41155851 L101.669226,9.41155851 L101.669226,3.57989266 L98.4859959,3.93987244 L98.4859959,9.41155851 L94.6395922,9.41155851 L94.6395922,12.2253955 L98.4859959,12.2253955 L98.4859959,22.7247929 C98.4859959,27.1045415 100.427281,29.6003927 104.538952,29.5224004 C105.649769,29.4860255 106.687858,29.1957941 107.776822,28.7375729 L107.191648,25.8757356 Z" id="Path"></path>
                </g>
            </g>
        </g>
    </g>
</svg>