<?xml version="1.0" encoding="UTF-8"?>
<svg width="222px" height="30px" viewBox="0 0 222 30" version="1.1" xmlns="http://www.w3.org/2000/svg" xmlns:xlink="http://www.w3.org/1999/xlink">
    <!-- Generator: Sketch 63.1 (92452) - https://sketch.com -->
    <title>Nutritienda-simple_logo</title>
    <desc>Created with Sketch.</desc>
    <g id="Nutritienda-simple_logo" stroke="none" stroke-width="1" fill="none" fill-rule="evenodd">
        <g id="Group-3">
            <rect id="Rectangle" x="0" y="0" width="222" height="30"></rect>
            <g id="Group-2" transform="translate(214.896893, 2.351923)" fill="#FA2398" fill-rule="nonzero">
                <path d="M4.13217433,3.83343367 C4.03258813,3.73385824 3.9081305,3.63428281 3.75878706,3.55962184 C4.05747392,3.50985026 4.28151774,3.41027123 4.43086118,3.26092422 C4.58021896,3.08668782 4.65490501,2.88753339 4.65490501,2.61372155 C4.65490501,2.41457069 4.60513342,2.24033429 4.50556159,2.06609792 C4.40597539,1.9167473 4.28151776,1.79228608 4.10728854,1.74248223 C3.93304497,1.69267839 3.65920087,1.6429068 3.31072809,1.6429068 L1.86695063,1.6429068 L1.86695063,5.05317806 L2.56395357,5.05317806 L2.56395357,3.63431148 L2.71331135,3.63431148 C2.86265476,3.63431148 2.98711241,3.65919727 3.06181281,3.68408307 C3.13649889,3.70897245 3.21115623,3.7587763 3.2858423,3.83343367 C3.3605427,3.90809461 3.46008586,4.08235972 3.65922957,4.33128575 L4.15708881,5.07806385 L4.97854938,5.07806385 L4.55539053,4.40597539 C4.38116132,4.13216356 4.23177485,3.9330091 4.13223169,3.83343367 L4.13217433,3.83343367 L4.13217433,3.83343367 Z M3.0866986,3.08665558 L2.58883935,3.08665558 L2.58883935,2.21541626 L3.13647019,2.21541626 C3.41027125,2.21541626 3.58454349,2.21541626 3.63431508,2.24030205 C3.75878706,2.26518783 3.8334731,2.29007722 3.88324469,2.36476686 C3.93301627,2.4394565 3.98281654,2.53900327 3.98281654,2.6385787 C3.98281654,2.73815413 3.95793075,2.8128151 3.90813048,2.88750474 C3.8583302,2.96219437 3.78367283,3.01196596 3.70897245,3.03685175 C3.60940059,3.06174114 3.41027125,3.08662693 3.08665558,3.08662693 L3.0866986,3.08665558 Z" id="Shape"></path>
                <path d="M3.33561388,5.01820807e-14 C1.49356338,5.01820807e-14 -7.00328684e-13,1.49355622 -7.00328684e-13,3.33561388 C-7.00328684e-13,5.17767155 1.49356338,6.67122419 3.33561388,6.67122419 C5.17767874,6.67122419 6.64634197,5.17767157 6.64634197,3.33561388 C6.64634197,1.4935562 5.15279295,5.01820807e-14 3.33561388,5.01820807e-14 Z M3.33561388,6.02399283 C1.84206483,6.02399283 0.647202666,4.82913783 0.647202666,3.33558161 C0.647202666,1.84202899 1.84206486,0.6471704 3.33561388,0.6471704 C4.82917726,0.6471704 6.0240251,1.84202899 6.0240251,3.33558161 C6.0240251,4.80425202 4.80429148,6.02399283 3.33561388,6.02399283 Z" id="Shape"></path>
            </g>
            <g id="Group" transform="translate(0.500000, 0.000000)" fill="#FA2398" fill-rule="nonzero">
                <path d="M13.8705417,29.2404164 L13.8705417,18.7410226 C13.8705417,15.6871955 12.5924287,14.1152884 9.91562125,14.1152884 C7.31116193,14.0792901 5.5688258,16.407155 5.5688258,18.9810091 L5.5688258,29.2404164 L0.0584636789,29.2404164 L0.0584636789,9.36956103 L5.10460542,9.36956103 L5.29752766,11.9074132 C7.00369064,9.61554665 9.18010272,8.84759053 11.5072361,8.88958799 C15.8118306,8.88958799 19.5014825,10.9834654 19.5014825,18.7050207 L19.5014825,29.2404164 L13.8705417,29.2404164 L13.8705417,29.2404164 Z" id="Path"></path>
                <path d="M29.7203715,9.36956103 L29.7203715,19.8689584 C29.7203715,22.922782 31.0045141,24.494689 33.6813215,24.494689 C36.2797495,24.5306909 38.0281162,22.2028224 38.0281162,19.6289719 L38.0281162,9.36956103 L43.5384791,9.36956103 L43.5384791,29.2404164 L38.4923365,29.2404164 L38.2994143,26.6245684 C36.5872217,29.0004299 34.4168401,29.678392 32.0897068,29.6423901 C27.7790826,29.6423901 24.0954604,27.6325075 24.0954604,19.910956 L24.0954604,9.36956103 L29.7203715,9.36956103 L29.7203715,9.36956103 Z" id="Path"></path>
                <path d="M90.4252733,3.36122402 C90.4252733,7.70497419 84.058814,7.70497419 84.058814,3.36122402 C84.058814,-0.982526154 90.4252733,-0.982526154 90.4252733,3.36122402 Z M84.4703116,9.33356269 L84.4703116,29.2404164 L90.019807,29.2404164 L90.019807,9.33356269 L84.4703116,9.33356269 Z" id="Shape"></path>
                <path d="M116.379604,2.99160549 C116.379604,5.84743999 112.189553,5.84743999 112.189553,2.94960803 C112.189553,0.0937735325 116.379604,0.0937735325 116.379604,2.99160549 Z M112.653777,29.2404164 L115.837007,29.2404164 L115.837007,9.29156524 L112.653777,9.29156524 L112.653777,29.2404164 Z" id="Shape"></path>
                <path d="M139.011882,26.0606005 C137.070589,28.4364619 133.736639,29.6003927 130.746328,29.6003927 C124.807919,29.6003927 120.654057,25.53863 120.654057,19.2269912 C120.654057,13.2333382 124.807919,8.93158548 130.589583,8.93158548 C136.44962,8.93158548 140.916985,12.6693702 140.175447,20.5949135 L123.879485,20.5949135 C124.223124,24.2547025 127.135063,26.5465691 130.824714,26.5465691 C132.995086,26.5465691 135.635719,25.6586197 136.919869,24.0507179 L139.05408,26.0606005 L139.011882,26.0606005 L139.011882,26.0606005 Z M137.148961,17.8590723 C136.992217,13.9952951 134.43598,11.9074132 130.667956,11.9074132 C127.334006,11.9074132 124.422081,13.9952951 123.879485,17.8170749 L137.148961,17.8170749 L137.148961,17.8590723 Z" id="Shape"></path>
                <path d="M144.805595,9.33356269 L147.717519,9.33356269 L147.868253,12.5073795 C149.538241,10.1375171 151.865371,9.0515787 154.427631,9.0515787 C159.280848,9.0515787 162.849916,12.4293836 162.849916,18.2610495 L162.849916,29.2404164 L159.666686,29.2404164 L159.666686,18.2970479 C159.666686,14.4812673 157.496316,12.1054023 153.848862,12.1054023 C150.352128,12.1473997 147.946626,15.0032342 147.946626,18.5790283 L147.946626,29.2404164 L144.805595,29.2404164 L144.805595,9.36956103 L144.805595,9.33356269 L144.805595,9.33356269 Z" id="Path"></path>
                <path d="M186.482065,1.09003702 L186.482065,29.1984189 L183.497778,29.1984189 L183.341033,25.5806274 C181.785592,28.3164723 178.994239,29.6003926 176.160686,29.6003926 C170.686487,29.6003926 166.656437,25.8626114 166.656437,19.3049905 C166.656437,12.6273727 170.686487,9.00958123 176.124513,9.00958123 C178.837494,9.00958123 181.942337,10.2995078 183.304859,12.9933517 L183.304859,1.09003702 L186.482065,1.09003702 L186.482065,1.09003702 Z M176.395803,12.069404 C172.669978,12.069404 169.643507,14.6012606 169.643507,19.2629931 C169.643507,23.8527289 172.669978,26.4625742 176.395803,26.4625742 C180.200002,26.4625742 183.184288,23.5707449 183.184288,19.2269912 C183.184288,14.9612368 180.157804,12.069404 176.353606,12.069404 L176.395803,12.069404 L176.395803,12.069404 Z" id="Shape"></path>
                <path d="M207.606659,25.7006172 L207.6775,29.2415423 L210.826062,29.2404164 L210.826062,9.36956105 L207.721205,9.36956105 L207.679007,12.9933517 C206.286349,10.4195012 203.452797,9.05157875 200.577032,9.05157875 C195.108871,9.0095813 190.719878,12.8733585 190.719878,19.3049905 C190.719878,25.7786165 195.030499,29.7203895 200.540858,29.7203895 C203.181491,29.7203895 206.087391,28.4364619 207.606659,25.7006172 Z M200.697602,26.7025606 C196.893405,26.7025606 193.824721,23.8527289 193.824721,19.4249802 C193.824721,15.0032342 196.903201,12.1473997 200.733777,12.1473997 C209.928137,12.1473997 209.933803,26.7025606 200.697602,26.7025606 Z" id="Shape"></path>
                <path d="M60.8525634,23.9974681 C60.2255635,24.2940751 59.2390893,24.4526916 58.604559,24.4526916 C57.5555368,24.4526916 56.4281424,23.8887237 56.4281424,21.8008417 L56.4281424,14.3192766 L61.3175333,14.3192766 L61.3175333,9.49555344 L56.4643164,9.49555344 L56.4643164,3.93987244 L50.8755811,4.58783531 L50.8755811,9.49555344 L47.4632551,9.49555344 L47.4632551,14.3192766 L50.8755811,14.3192766 L50.8755811,21.8008417 C50.8755811,27.9924909 54.0226367,29.8823766 58.176509,29.678392 C59.485143,29.610892 60.5205998,29.379533 61.6758742,28.9648081 L60.8525634,23.9974681 Z" id="Path"></path>
                <path d="M80.579092,9.89527873 C79.5613492,9.3170642 78.482188,8.93158546 77.2217837,8.93158546 C75.0875726,8.93158546 73.3814114,9.73553992 72.0972688,11.5834318 L71.6692189,9.41155849 L66.4723557,9.41155849 L66.4723557,29.2404164 L72.0610947,29.2404164 L72.0610947,18.9030097 C72.0610947,15.9271819 74.1169263,14.3192766 76.5224356,14.3192766 C77.6494535,14.3192766 78.5929692,14.6391307 79.5003108,15.2739694 L80.579092,9.89527873 Z" id="Path"></path>
                <path d="M107.191648,25.8757356 C106.374361,26.2807142 105.465133,26.5465691 104.653505,26.5465691 C102.362542,26.5465691 101.62702,25.0586569 101.62702,22.7247929 L101.62702,12.2253955 L107.607635,12.2253955 L107.607635,9.41155851 L101.669226,9.41155851 L101.669226,3.57989266 L98.4859959,3.93987244 L98.4859959,9.41155851 L94.6395922,9.41155851 L94.6395922,12.2253955 L98.4859959,12.2253955 L98.4859959,22.7247929 C98.4859959,27.1045415 100.427281,29.6003927 104.538952,29.5224004 C105.649769,29.4860255 106.687858,29.1957941 107.776822,28.7375729 L107.191648,25.8757356 Z" id="Path"></path>
            </g>
        </g>
    </g>
</svg>