<?xml version="1.0" encoding="UTF-8"?>
<svg width="149px" height="34px" viewBox="0 0 149 34" version="1.1" xmlns="http://www.w3.org/2000/svg" xmlns:xlink="http://www.w3.org/1999/xlink">
    <!-- Generator: Sketch 63.1 (92452) - https://sketch.com -->
    <title>Nutritienda-Logo-Mobile</title>
    <desc>Created with Sketch.</desc>
    <g id="Nutritienda-Logo-Mobile" stroke="none" stroke-width="1" fill="none" fill-rule="evenodd">
        <g id="Nutritienda-Logo" transform="translate(0.000000, 0.000000)">
            <rect id="Rectangle" x="0" y="0" width="149" height="34"></rect>
            <g id="Group-3" transform="translate(0.335526, 0.000000)" fill-rule="nonzero">
                <g id="Group-2" transform="translate(143.871599, 1.578264)" fill="#FA2398">
                    <path d="M2.77290646,2.57243575 C2.70607888,2.5056154 2.62256126,2.43879504 2.52234395,2.38869361 C2.72277855,2.35529425 2.87312375,2.28847148 2.97334106,2.18825178 C3.07356798,2.07132998 3.12368626,1.93768688 3.12368626,1.75394472 C3.12368626,1.62030401 3.0902869,1.50338222 3.02346896,1.38646044 C2.95664138,1.28623832 2.87312376,1.20271829 2.75620678,1.16929729 C2.63928018,1.13587629 2.45551637,1.10247693 2.2216728,1.10247693 L1.25282213,1.10247693 L1.25282213,3.39094844 L1.72054779,3.39094844 L1.72054779,2.43881428 L1.82077472,2.43881428 C1.92099201,2.43881428 2.00450964,2.45551396 2.05463754,2.47221364 C2.10475583,2.48891572 2.15485484,2.52233673 2.20497312,2.57243575 C2.25510102,2.62253717 2.32189972,2.73947823 2.45553563,2.9065207 L2.78962538,3.40764811 L3.34086866,3.40764811 L3.05690681,2.95664138 C2.93998983,2.77289923 2.83974365,2.63925611 2.77294495,2.57243575 L2.77290646,2.57243575 L2.77290646,2.57243575 Z M2.07133722,2.07130835 L1.73724746,2.07130835 L1.73724746,1.48666091 L2.10473658,1.48666091 C2.2884715,1.48666091 2.40541734,1.48666091 2.4388167,1.50336059 C2.52234395,1.52006026 2.57246221,1.53676235 2.60586157,1.58688303 C2.63926092,1.6370037 2.67267952,1.70380483 2.67267952,1.77062518 C2.67267952,1.83744554 2.65597985,1.88754697 2.62256124,1.93766765 C2.58914263,1.98778833 2.53904361,2.02118768 2.48891572,2.03788736 C2.42209776,2.05458945 2.2884715,2.07128912 2.07130835,2.07128912 L2.07133722,2.07130835 Z" id="Shape"></path>
                    <path d="M2.23837247,-6.03961325e-14 C1.00225964,-6.03961325e-14 1.3500312e-13,1.00225483 1.3500312e-13,2.23837247 C1.3500312e-13,3.47449012 1.00225964,4.47674255 2.23837247,4.47674255 C3.47449494,4.47674255 4.46004527,3.47449013 4.46004527,2.23837247 C4.46004527,1.00225482 3.45779527,-6.03961325e-14 2.23837247,-6.03961325e-14 Z M2.23837247,4.04241624 C1.23612245,4.04241624 0.434307052,3.24060565 0.434307052,2.23835082 C0.434307052,1.2360984 1.23612247,0.4342854 2.23837247,0.4342854 C3.24063211,0.4342854 4.0424379,1.2360984 4.0424379,2.23835082 C4.0424379,3.22390596 3.22393244,4.04241624 2.23837247,4.04241624 Z" id="Shape"></path>
                </g>
                <g id="Group" transform="translate(0.000000, 26.842105)" fill="#444444">
                    <polygon id="Path" points="0.0207374283 0.795741929 0.0207374283 0.214338168 4.22500817 0.214338168 4.22500817 0.795741929 2.44339105 0.795741929 2.44339105 5.4324332 1.80235334 5.4324332 1.80235334 0.795741929"></polygon>
                    <polygon id="Path" points="10.5412777 3.0768983 7.55944483 3.0768983 7.55944483 5.4324332 6.91069854 5.4324332 6.91069854 0.214338168 7.55944483 0.214338168 7.55944483 2.47282245 10.5412777 2.47282245 10.5412777 0.214338168 11.1897978 0.214338168 11.1897978 5.4324332 10.5412777 5.4324332"></polygon>
                    <polygon id="Path" points="14.4421486 0.214338168 18.109917 0.214338168 18.109917 0.810704253 15.0834136 0.810704253 15.0834136 2.44334535 17.9831607 2.44334535 17.9831607 3.04696883 15.0834136 3.04696883 15.0834136 4.81384259 18.2291897 4.81384259 18.2291897 5.4324332 14.4421486 5.4324332"></polygon>
                    <polygon id="Path" points="25.3887615 0.214338168 28.5866916 4.20976672 28.5866916 0.214338168 29.2277281 0.214338168 29.2277281 5.4324332 28.7805666 5.4324332 25.575153 1.4515146 25.575153 5.4324332 24.9338903 5.4324332 24.9338903 0.214338168"></polygon>
                    <path d="M36.6773233,0.221595547 L36.6773233,3.35263063 C36.6773233,4.79888025 35.7006858,5.52948381 34.5601076,5.52948381 C33.4494589,5.52948381 32.4206723,4.81384258 32.4206723,3.35263063 L32.4206723,0.221595547 L33.061935,0.221595547 L33.061935,3.35263063 C33.061935,4.38890562 33.7551255,4.93311773 34.5601076,4.93311773 C35.3653159,4.93311773 36.0362867,4.36622872 36.0362867,3.34537806 L36.0362867,0.214338168 L36.6698396,0.214338168 L36.6773233,0.221595547 Z" id="Path"></path>
                    <polygon id="Path" points="39.3038308 0.795741929 39.3038308 0.214338168 43.5081015 0.214338168 43.5081015 0.795741929 41.726482 0.795741929 41.726482 5.4324332 41.0854455 5.4324332 41.0854455 0.795741929"></polygon>
                    <path d="M48.1094203,3.55398925 L46.8420834,3.55398925 L46.8420834,5.4324332 L46.1935633,5.4324332 L46.1935633,0.214338168 L48.5642915,0.214338168 C49.7420566,0.214338168 50.3309391,1.0342874 50.3309391,1.88416611 C50.3384227,2.67418107 49.9060022,3.41204201 48.8325403,3.50183525 L50.5545222,5.4324332 L49.734573,5.4324332 L48.1094203,3.55398925 Z M49.682419,1.89913325 C49.6899026,1.37714086 49.3171196,0.795741915 48.5642915,0.795741915 L46.8420834,0.795741915 L46.8420834,2.97259029 L48.5343573,2.97259029 C49.3171196,2.97259029 49.682419,2.48778958 49.682419,1.89913325 Z" id="Shape"></path>
                    <polygon id="Path" points="53.3671951 0.214338168 54.0157152 0.214338168 54.0157152 5.4324332 53.3671951 5.4324332"></polygon>
                    <polygon id="Path" points="57.2671612 0.214338168 60.9349248 0.214338168 60.9349248 0.810704253 57.9084239 0.810704253 57.9084239 2.44334535 60.8081709 2.44334535 60.8081709 3.04696883 57.9084239 3.04696883 57.9084239 4.81384259 61.0541999 4.81384259 61.0541999 5.4324332 57.2671612 5.4324332"></polygon>
                    <polygon id="Path" points="64.4405668 0.214338168 67.6384969 4.20976672 67.6384969 0.214338168 68.2795334 0.214338168 68.2795334 5.4324332 67.8323671 5.4324332 64.6269582 1.4515146 64.6269582 5.4324332 63.9856955 5.4324332 63.9856955 0.214338168"></polygon>
                    <polygon id="Path" points="70.9656785 0.795741929 70.9656785 0.214338168 75.1699445 0.214338168 75.1699445 0.795741929 73.3883246 0.795741929 73.3883246 5.4324332 72.7472883 5.4324332 72.7472883 0.795741929"></polygon>
                    <path d="M79.6597025,0.683724159 C78.9962204,0.683724159 78.2880575,0.944946538 78.2880575,1.57849949 C78.2880575,2.14493611 78.9365825,2.30910307 79.7043731,2.43563558 C80.7481268,2.59980733 81.7769133,2.80841853 81.7769133,3.98618837 C81.7694347,5.15669604 80.651307,5.53674117 79.6522145,5.53674117 C78.727967,5.53674117 77.8481487,5.20114026 77.4456625,4.32904183 L77.982391,4.01611783 C78.317992,4.63470844 79.0186662,4.93311769 79.6597025,4.93311769 C80.293482,4.93311769 81.1356552,4.73175907 81.1356552,3.96396383 C81.1431345,3.31544375 80.412757,3.12905227 79.6299991,3.00977712 C78.6236585,2.85331512 77.6470212,2.62202703 77.6470212,1.56353231 C77.632054,0.475108125 78.7429335,0.102320365 79.6447352,0.102320365 C80.4200145,0.102320365 81.1581018,0.258782368 81.6202251,1.0492497 L81.1283984,1.35491632 C80.844956,0.900045103 80.2411016,0.691433929 79.6597025,0.683724159 Z" id="Path"></path>
                    <path d="M90.2484901,0.683724159 C89.585008,0.683724159 88.8768553,0.944946538 88.8768553,1.57849949 C88.8768553,2.14493611 89.5253701,2.30910307 90.2931701,2.43563558 C91.3369238,2.59980733 92.3657103,2.80841853 92.3657103,3.98618837 C92.3582223,5.15669604 91.2398736,5.53674117 90.2410115,5.53674117 C89.3167539,5.53674117 88.437177,5.20114026 88.0344595,4.32904183 L88.5711881,4.01611783 C88.9067797,4.63470844 89.6074538,4.93311769 90.2484901,4.93311769 C90.8820478,4.93311769 91.7244428,4.73175907 91.7244428,3.96396383 C91.7319315,3.31544375 91.0013228,3.12905227 90.2187868,3.00977712 C89.2122251,2.85331512 88.2358183,2.62202703 88.2358183,1.56353231 C88.220851,0.475108125 89.3315001,0.102320365 90.233533,0.102320365 C91.0088021,0.102320365 91.7468988,0.258782368 92.2090222,1.0492497 L91.7169643,1.35491632 C91.4337436,0.900045103 90.8298987,0.691433929 90.2484901,0.683724159 Z" id="Path"></path>
                    <polygon id="Path" points="98.8905961 3.0768983 95.9087655 3.0768983 95.9087655 5.4324332 95.26001 5.4324332 95.26001 0.214338168 95.9087655 0.214338168 95.9087655 2.47282245 98.8905961 2.47282245 98.8905961 0.214338168 99.5391116 0.214338168 99.5391116 5.4324332 98.8905961 5.4324332"></polygon>
                    <path d="M107.763849,2.83835283 C107.756275,4.20250934 106.906392,5.53674119 105.117294,5.53674119 C103.328195,5.53674119 102.463576,4.20976672 102.463576,2.83835283 C102.463576,1.32498689 103.477405,0.124544925 105.124782,0.124544925 C106.891656,0.132254695 107.771243,1.45922436 107.763849,2.83835283 Z M105.124782,0.721363401 C103.798029,0.721363401 103.112101,1.69777464 103.112101,2.83835283 C103.112101,3.89684754 103.753137,4.92540795 105.124782,4.92540795 C106.496417,4.92540795 107.115239,3.86691325 107.115239,2.83835283 C107.122718,1.77985811 106.488939,0.735878157 105.124782,0.721363401 Z" id="Shape"></path>
                    <path d="M111.329708,5.43243319 L110.68845,5.43243319 L110.68845,0.214338152 L113.059178,0.214338152 C115.459378,0.214338152 115.459378,3.74038552 113.059178,3.74763809 L111.329708,3.74763809 L111.329708,5.43243319 L111.329708,5.43243319 Z M113.059178,0.81796163 L111.329708,0.81796163 L111.329708,3.14401944 L113.059178,3.14401944 C114.594759,3.14401944 114.594759,0.81796163 113.059178,0.81796163 Z" id="Shape"></path>
                </g>
                <g id="Group" fill="#FA2398">
                    <path d="M9.30786354,19.6218584 L9.30786354,12.5762125 C9.30786354,10.5269338 8.45018239,9.47210145 6.65390373,9.47210145 C4.90617445,9.44794467 3.73697521,11.0100646 3.73697521,12.7372561 L3.73697521,19.6218584 L0.0392322056,19.6218584 L0.0392322056,6.28746859 L3.4254589,6.28746859 L3.55491988,7.990501 C4.69984503,6.45253788 6.16033209,5.93719891 7.72196105,5.96538141 C10.6105705,5.96538141 13.0865211,7.37048338 13.0865211,12.5520533 L13.0865211,19.6218584 L9.30786354,19.6218584 L9.30786354,19.6218584 Z" id="Path"></path>
                    <path d="M19.9439335,6.28746859 L19.9439335,13.3331168 C19.9439335,15.3823932 20.8056608,16.4372255 22.6019395,16.4372255 C24.3456214,16.4613847 25.5188674,14.8992624 25.5188674,13.1720733 L25.5188674,6.28746859 L29.216611,6.28746859 L29.216611,19.6218584 L25.8303837,19.6218584 L25.7009227,17.8664867 C24.5519514,19.4608148 23.0955111,19.9157631 21.5338822,19.8916039 C18.6412265,19.8916039 16.1693221,18.5428669 16.1693221,13.3612994 L16.1693221,6.28746859 L19.9439335,6.28746859 L19.9439335,6.28746859 Z" id="Path"></path>
                    <path d="M60.6801176,2.25555822 C60.6801176,5.17044321 56.4078883,5.17044321 56.4078883,2.25555822 C56.4078883,-0.659326761 60.6801176,-0.659326761 60.6801176,2.25555822 Z M56.6840249,6.2633118 L56.6840249,19.6218584 L60.4080284,19.6218584 L60.4080284,6.2633118 L56.6840249,6.2633118 Z" id="Shape"></path>
                    <path d="M78.0968393,2.00752473 C78.0968393,3.92393999 75.2850951,3.92393999 75.2850951,1.97934223 C75.2850951,0.0629269758 78.0968393,0.0629269758 78.0968393,2.00752473 Z M75.5966138,19.6218584 L77.7327286,19.6218584 L77.7327286,6.23512931 L75.5966138,6.23512931 L75.5966138,19.6218584 Z" id="Shape"></path>
                    <path d="M93.2842889,17.4880346 C91.9815795,19.0823626 89.7443233,19.8634214 87.7376675,19.8634214 C83.7526822,19.8634214 80.9652225,17.1377649 80.9652225,12.902323 C80.9652225,8.8802664 83.7526822,5.99356394 87.6324835,5.99356394 C91.5648768,5.99356394 94.5627139,8.50181424 94.0651023,13.8202709 L83.1296542,13.8202709 C83.3602546,16.276182 85.3143184,17.8141451 87.7902689,17.8141451 C89.2467023,17.8141451 91.0187064,17.2182843 91.8804381,16.1392976 L93.3126066,17.4880346 L93.2842889,17.4880346 L93.2842889,17.4880346 Z M92.0341714,11.9843775 C91.9289875,9.39157964 90.2136179,7.990501 87.6850755,7.990501 C85.44782,7.990501 83.4937649,9.39157964 83.1296542,11.956195 L92.0341714,11.956195 L92.0341714,11.9843775 Z" id="Shape"></path>
                    <path d="M97.1721754,6.2633118 L99.1262298,6.2633118 L99.2273806,8.39310994 C100.34803,6.80280756 101.909657,6.07408571 103.629069,6.07408571 C106.885832,6.07408571 109.280864,8.3407706 109.280864,12.2541253 L109.280864,19.6218584 L107.14475,19.6218584 L107.14475,12.2782821 C107.14475,9.71769253 105.688317,8.12336208 103.240683,8.12336208 C100.894191,8.15154456 99.2799725,10.0679598 99.2799725,12.4675058 L99.2799725,19.6218584 L97.1721754,19.6218584 L97.1721754,6.28746859 L97.1721754,6.2633118 L97.1721754,6.2633118 Z" id="Path"></path>
                    <path d="M125.139281,0.731472213 L125.139281,19.5936759 L123.136667,19.5936759 L123.031483,17.1659474 C121.9877,19.0018433 120.114555,19.8634213 118.213092,19.8634213 C114.539616,19.8634213 111.835241,17.3551735 111.835241,12.9546647 C111.835241,8.47363168 114.539616,6.04590319 118.188818,6.04590319 C120.009371,6.04590319 122.092884,6.91151184 123.007208,8.71922283 L123.007208,0.731472213 L125.139281,0.731472213 L125.139281,0.731472213 Z M118.370868,8.09920529 C115.870643,8.09920529 113.839722,9.79821435 113.839722,12.9264822 C113.839722,16.0064365 115.870643,17.75778 118.370868,17.75778 C120.923685,17.75778 122.926299,15.8172104 122.926299,12.902323 C122.926299,10.0397773 120.895369,8.09920529 118.342551,8.09920529 L118.370868,8.09920529 L118.370868,8.09920529 Z" id="Shape"></path>
                    <path d="M139.314995,17.2464668 L139.362533,19.6226139 L141.475384,19.6218584 L141.475384,6.2874686 L139.391861,6.2874686 L139.363544,8.71922283 C138.428997,6.99203367 136.527535,6.07408574 134.597745,6.07408574 C130.928321,6.04590324 127.983076,8.63870109 127.983076,12.9546647 C127.983076,17.2988084 130.875729,19.9439456 134.57347,19.9439456 C136.345474,19.9439456 138.295486,19.0823626 139.314995,17.2464668 Z M134.678654,17.9188236 C132.125838,17.9188236 130.066589,16.0064365 130.066589,13.0351841 C130.066589,10.0679598 132.132411,8.15154456 134.702929,8.15154456 C140.872829,8.15154456 140.876631,17.9188236 134.678654,17.9188236 Z" id="Shape"></path>
                    <path d="M40.8352728,16.1035641 C40.4145229,16.302603 39.7525467,16.409043 39.3267435,16.409043 C38.6227944,16.409043 37.8662534,16.0305909 37.8662534,14.6295122 L37.8662534,9.60898823 L41.1472921,9.60898823 L41.1472921,6.37201612 L37.8905281,6.37201612 L37.8905281,2.64386177 L34.1401926,3.07867896 L34.1401926,6.37201612 L31.8503423,6.37201612 L31.8503423,9.60898823 L34.1401926,9.60898823 L34.1401926,14.6295122 C34.1401926,18.7844347 36.2520325,20.0526474 39.0394994,19.9157631 C39.9176617,19.870467 40.6125078,19.7152129 41.3877577,19.4369107 L40.8352728,16.1035641 Z" id="Path"></path>
                    <path d="M54.0728117,6.64025283 C53.3898528,6.25224045 52.6656788,5.99356393 51.8198811,5.99356393 C50.3877132,5.99356393 49.2427892,6.53305969 48.3810619,7.7730924 L48.0938179,6.31565109 L44.6064493,6.31565109 L44.6064493,19.6218584 L48.3567872,19.6218584 L48.3567872,12.6849144 C48.3567872,10.6879774 49.7363584,9.60898823 51.3505818,9.60898823 C52.1068701,9.60898823 52.7400188,9.82362717 53.3488928,10.2496374 L54.0728117,6.64025283 Z" id="Path"></path>
                    <path d="M71.9312373,17.3639805 C71.382795,17.6357425 70.7726553,17.8141451 70.22801,17.8141451 C68.6906534,17.8141451 68.1970793,16.8156777 68.1970793,15.2495321 L68.1970793,8.20388382 L72.2103866,8.20388382 L72.2103866,6.3156511 L68.2254014,6.3156511 L68.2254014,2.40229639 L66.0892867,2.64386177 L66.0892867,6.3156511 L63.5081474,6.3156511 L63.5081474,8.20388382 L66.0892867,8.20388382 L66.0892867,15.2495321 C66.0892867,18.1885739 67.3919914,19.8634214 70.1511386,19.8110845 C70.8965553,19.786675 71.5931676,19.5919145 72.3239204,19.2844239 L71.9312373,17.3639805 Z" id="Path"></path>
                </g>
            </g>
        </g>
    </g>
</svg>