<?xml version="1.0" encoding="UTF-8"?>
<svg width="50px" height="32px" viewBox="0 0 50 32" version="1.1" xmlns="http://www.w3.org/2000/svg" xmlns:xlink="http://www.w3.org/1999/xlink">
    <!-- Generator: Sketch 63.1 (92452) - https://sketch.com -->
    <title>footer-Meestro</title>
    <desc>Created with Sketch.</desc>
    <g id="footer-Meestro" stroke="none" stroke-width="1" fill="none" fill-rule="evenodd">
        <path d="M48.7128187,0 C49.4245751,0 50,0.569133678 50,1.27115264 L50,30.7288474 C50,31.4308663 49.4245751,32 48.7128187,32 L1.2871813,32 C0.575424929,32 0,31.4308663 0,30.7288474 L0,1.27115264 C0,0.569133678 0.575424929,0 1.2871813,0 L48.7128187,0 Z M46.3414474,15.6756832 C46.3414474,15.6721862 46.3414474,15.671312 46.3431959,15.6695635 C46.3414474,8.6703558 40.6667213,2.99737817 33.6675136,3 C30.396962,3.00087515 27.4157856,4.24142921 25.168101,6.27667222 C22.9195421,4.24230345 19.9401142,3.00262364 16.6721853,3.00262364 L16.5908805,3.00262364 C9.63276234,3.0480844 4,8.70794835 4,15.6756832 C4,22.671394 9.67734885,28.3478686 16.6721853,28.3478686 C19.9401142,28.3478686 22.9186679,27.1081888 25.1672267,25.07382 C27.4157856,27.1116857 30.400459,28.3522398 33.6736333,28.351366 C40.672841,28.3496171 46.3431959,22.6740167 46.3414474,15.6756832 Z M28.1370379,10.2737216 C28.3442341,10.7125928 28.5260771,11.1645776 28.6843155,11.6314246 L21.6781138,11.6314246 C21.7471792,11.5002878 21.9919679,10.9722436 22.3608994,10.2737216 L28.1370379,10.2737216 Z M19.4330519,13.6369432 C20.7225637,13.6369432 21.4027266,14.142257 21.4027266,15.0916874 C21.4027266,15.3364761 21.3852416,15.5226903 21.2951944,16.0752133 L20.9725979,17.8394403 L20.9192689,18.1541686 L20.8834249,18.4059512 L20.8650657,18.5764291 L20.8475808,18.7110628 L19.5947873,18.7110628 L19.6306314,18.1970066 C19.2555801,18.6052792 18.7354042,18.7967389 18.0552414,18.7967389 C17.2491872,18.7967389 16.6940415,18.2433416 16.6940415,17.4407845 C16.6940415,16.234326 17.6609568,15.5270615 19.3255198,15.5270615 C19.4863809,15.5270615 19.7014452,15.5410495 19.9339945,15.5655283 C19.9698385,15.4020445 19.9881977,15.3338533 19.9881977,15.2429318 C19.9881977,14.9150898 19.7189301,14.7926955 19.0212824,14.7926955 C18.5911537,14.7926955 18.1076961,14.844276 17.7859738,14.929952 L17.5709095,14.9841552 L17.4458924,15.0165023 L17.6425976,13.8983426 C18.3944485,13.7077571 18.8779062,13.6369432 19.4330519,13.6369432 Z M18.6820752,17.7441476 C19.29055,17.7441476 19.7206786,17.2362111 19.7573969,16.501845 C19.5956616,16.4852344 19.5239734,16.4826116 19.4164413,16.4826116 C18.5754173,16.4826116 18.1452886,16.7361428 18.1452886,17.2379595 C18.1452886,17.5448196 18.3419938,17.7441476 18.6820752,17.7441476 Z M14.7252411,12.6079565 L17.15914,12.6079565 L15.9771603,18.7136856 L14.4734585,18.7136856 L15.3686856,14.0189884 L13.309838,18.7136856 L11.9486381,18.7136856 L11.6977297,14.0487128 L10.8025025,18.7136856 L9.44217687,18.7136856 L10.6066716,12.6079565 L12.9522717,12.6079565 L13.0598038,16.3890674 L14.7252411,12.6079565 Z M26.422643,7.5854174 C26.779335,8.01554608 27.1089255,8.46840514 27.4070431,8.94224608 L23.1118761,8.94224608 C23.3872633,8.48763853 23.6915007,8.02254005 24.0149715,7.5854174 L26.422643,7.5854174 Z M29.0855941,14.8093062 C28.6012622,14.8093062 28.351228,14.9456884 28.351228,15.2123332 C28.351228,15.4448825 28.4229162,15.5017084 29.04975,15.7526168 C29.8199601,16.0551057 30.1241975,16.4528873 30.1241975,17.1347986 C30.1241975,18.2669462 29.3898314,18.7906192 27.7777231,18.7906192 C27.5801437,18.7906192 27.3126246,18.775757 26.9550583,18.7495296 C26.775838,18.7372902 26.6324618,18.722428 26.5432888,18.7049431 L26.2748955,18.6559854 L26.2032074,18.6428717 L26.4173975,17.4976104 C26.9017294,17.6322442 27.3126246,17.6934413 27.7794716,17.6934413 C28.3704614,17.6934413 28.6379805,17.5535621 28.6379805,17.2458278 C28.6379805,17.018524 28.547059,16.9450874 27.9394585,16.697676 C27.1342786,16.3724567 26.775838,15.9397053 26.775838,15.3137457 C26.7749638,14.4001594 27.3677021,13.636069 29.04975,13.636069 C29.4081906,13.636069 29.9991804,13.6797813 30.393465,13.7339845 L30.1784007,14.8818685 C29.7841161,14.8355335 29.3907057,14.8093062 29.0855941,14.8093062 Z M36.9310712,13.7366072 C36.9485561,13.7427269 36.9669153,13.7427269 37.0919324,13.7908104 L36.552523,15.1930998 L36.3733027,15.1563815 C36.3016146,15.1485133 36.2482857,15.1441421 36.1940825,15.1441421 C35.4780756,15.1441421 35.2464006,15.6774317 34.7087397,18.7136856 L33.2041636,18.7136856 L34.1177499,13.7479724 L35.4789498,13.7479724 L35.3355736,14.5015718 C35.8006721,13.9149532 36.1582384,13.6946434 36.6425703,13.6946434 C36.6967735,13.6946434 36.7509767,13.6990147 36.8043057,13.7068829 C36.8043057,13.7095056 36.8585089,13.7191223 36.9310712,13.7366072 Z M32.4155944,14.9553051 L32.022184,17.0272664 C32.0038248,17.1181879 32.0038248,17.1872533 32.0038248,17.2327141 C32.0038248,17.4897422 32.1664344,17.5998971 32.5240008,17.5998971 C32.6857361,17.5998971 32.8116275,17.5841607 32.9174111,17.5518136 L32.720706,18.6533627 C32.3089364,18.7661403 31.9863399,18.815098 31.6462585,18.815098 C30.8760484,18.815098 30.4642789,18.4286816 30.4642789,17.7240399 C30.4642789,17.5850349 30.4817638,17.4364132 30.5001229,17.2790491 L30.5901702,16.790346 L30.6618583,16.3978098 L31.3603803,12.6070823 L32.8465973,12.6070823 L32.6315329,13.7470981 L33.4008688,13.7470981 L33.1858044,14.9553051 L32.4155944,14.9553051 Z M39.4174248,13.6063447 C40.9762041,13.6063447 41.7997432,14.5863736 41.7997432,15.8470353 C41.7997432,16.1547696 41.7997432,16.1748773 41.7638991,16.4633782 C41.5304756,18.1139533 40.3843401,18.8474451 38.8456684,18.8474451 C37.1426386,18.8474451 36.46335,17.8175842 36.46335,16.5577967 C36.46335,14.7996895 37.6269705,13.6063447 39.4174248,13.6063447 Z M40.1517908,16.4205402 C40.1876349,16.2386972 40.2051198,16.0428662 40.2051198,15.8278019 C40.2051198,15.3102487 39.9909297,14.8180486 39.382455,14.8180486 C38.6122449,14.8180486 38.1471464,15.7228925 38.1471464,16.5202042 C38.1471464,17.1942473 38.4688687,17.6479806 39.0065295,17.6374896 C39.329126,17.6374896 40.0267738,17.1942473 40.1517908,16.4205402 Z M26.1288965,16.6548379 L23.1582111,16.6548379 C23.1398519,16.7308973 23.1398519,16.7649928 23.1398519,16.8113278 C23.1398519,17.3865812 23.5874655,17.6794534 24.4468486,17.6794534 C24.9845095,17.6794534 25.4679671,17.5824122 26.0047537,17.3638509 L25.7547196,18.6070277 C25.2529028,18.7416614 24.7519602,18.8072298 24.2326585,18.8072298 C22.5497364,18.8072298 21.6719941,18.0457622 21.6728677,16.5814013 C21.6728677,14.8792458 22.7822856,13.6247038 24.2868617,13.6247038 C25.5212961,13.6247038 26.3098653,14.3267228 26.3098653,15.4273976 C26.3098653,15.7945806 26.2556621,16.1512727 26.1288965,16.6548379 Z M24.2685026,14.7612227 C23.7859192,14.7612227 23.4449635,15.075951 23.3015873,15.6529529 L24.9670246,15.6547013 L24.9670246,15.3994217 C24.9670246,14.9963946 24.7161162,14.7612227 24.2685026,14.7612227 Z M22.1781821,21.0269386 L28.1606426,21.0269386 C27.9420813,21.4955341 27.6955441,21.9475189 27.4227796,22.3837673 L22.9265361,22.3837673 C22.6537715,21.9457704 22.3976177,21.4972826 22.1781821,21.0269386 Z M23.8698467,23.6855185 L26.4864629,23.6855185 C26.0921782,24.1689761 25.6611753,24.6218352 25.1995738,25.0423472 L25.1978253,25.0423472 C25.1873344,25.0528381 25.1759692,25.0607063 25.1654782,25.070323 C24.6960085,24.6471883 24.2711253,24.1777186 23.8698467,23.6855185 Z" id="Shape" fill="#B0B2B6" fill-rule="nonzero"></path>
    </g>
</svg>