<?xml version="1.0" encoding="UTF-8"?>
<svg width="50px" height="32px" viewBox="0 0 50 32" version="1.1" xmlns="http://www.w3.org/2000/svg" xmlns:xlink="http://www.w3.org/1999/xlink">
    <!-- Generator: Sketch 63.1 (92452) - https://sketch.com -->
    <title>footer-visa</title>
    <desc>Created with Sketch.</desc>
    <g id="footer-visa" stroke="none" stroke-width="1" fill="none" fill-rule="evenodd">
        <path d="M48.7128187,0 L1.2871813,0 C0.575424929,0 0,0.569133678 0,1.27115264 L0,30.7288474 C0,31.4308663 0.575424929,32 1.2871813,32 L48.7128187,32 C49.4245751,32 50,31.4308663 50,30.7288474 L50,1.27115264 C50,0.569133678 49.4245751,0 48.7128187,0 Z M3.87128187,9.67002705 L9.20768414,9.67002705 C9.92740793,9.69712865 10.5072592,9.92355818 10.70733,10.6832773 L11.8679178,16.1953938 C10.7276912,13.3121329 7.97981586,10.9132038 3.82701841,9.9200612 L3.87128187,9.67002705 Z M10.3284348,22.2416742 L7.24592776,11.8416523 C9.46175637,13.2421933 11.3491501,15.4645248 12.0139873,17.0110647 L12.3734065,18.295331 L15.7445113,9.78979865 L19.3918201,9.78979865 L13.9713173,22.2390514 L10.3284348,22.2416742 Z M22.072415,22.2504166 L18.6304887,22.2504166 L20.7825779,9.77668497 L24.2262748,9.77668497 L22.072415,22.2504166 Z M28.0621459,22.4375051 C26.5191218,22.4217687 25.032755,22.1201541 24.2271601,21.7713302 L24.7114023,18.979865 L25.1549221,19.1783187 C26.2854108,19.6442915 27.0175283,19.8331284 28.3958924,19.8331284 C29.384738,19.8331284 30.4444051,19.4510832 30.4541431,18.6153048 C30.4603399,18.0689015 30.0106232,17.6789881 28.6703258,17.0670164 C27.3636686,16.4707811 25.6338527,15.4706445 25.6550992,13.6793159 C25.6736898,11.2550337 28.0709986,9.56336912 31.4730878,9.56336912 C32.8063031,9.56336912 33.8748229,9.83438516 34.5564802,10.087042 L34.0917139,12.7910827 L33.7809844,12.6468322 C33.1471317,12.3950496 32.3317989,12.1520094 31.2048513,12.1694943 C29.8574717,12.1694943 29.2324717,12.7237658 29.2324717,13.2421933 C29.2253895,13.8261891 29.9619334,14.210857 31.1658994,14.7896074 C33.1515581,15.6795891 34.0695822,16.759282 34.0571884,18.1781821 C34.0306303,20.7659481 31.6820113,22.4375051 28.0621459,22.4375051 Z M43.3870397,9.78979865 L46.1729816,22.2547879 L42.9789306,22.2556621 C42.9789306,22.2556621 42.6646601,20.8218998 42.5601983,20.3865257 L42.0870711,20.3861371 C40.9748288,20.3849229 38.4805831,20.3812802 38.1515581,20.3812802 C38.0178824,20.7178647 37.4282932,22.2556621 37.4282932,22.2556621 L33.8137394,22.2556621 L38.924398,10.8249051 C39.2873584,10.0127312 39.9026204,9.78979865 40.7276912,9.78979865 L43.3870397,9.78979865 Z M40.7808074,13.1136792 C40.6055241,13.5831489 40.3036473,14.3376226 40.3231232,14.3044013 C40.3231232,14.3044013 39.2351275,17.0731361 38.9518414,17.7908915 L41.8103754,17.7908915 C41.6722734,17.1658061 41.0127479,14.1890009 41.0127479,14.1890009 L40.7808074,13.1136792 Z" id="Combined-Shape" fill="#B0B2B6" fill-rule="nonzero"></path>
    </g>
</svg>