<?xml version="1.0" encoding="UTF-8"?>
<svg width="50px" height="32px" viewBox="0 0 50 32" version="1.1" xmlns="http://www.w3.org/2000/svg" xmlns:xlink="http://www.w3.org/1999/xlink">
    <!-- Generator: Sketch 63.1 (92452) - https://sketch.com -->
    <title>footer-Mastercard</title>
    <desc>Created with Sketch.</desc>
    <g id="footer-Mastercard" stroke="none" stroke-width="1" fill="none" fill-rule="evenodd">
        <path d="M48.7128187,0 C49.4245751,0 50,0.569133678 50,1.27115264 L50,1.27115264 L50,30.7288474 C50,31.4308663 49.4245751,32 48.7128187,32 L48.7128187,32 L1.2871813,32 C0.575424929,32 0,31.4308663 0,30.7288474 L0,30.7288474 L0,1.27115264 C0,0.569133678 0.575424929,0 1.2871813,0 L1.2871813,0 Z M33.6048159,3.32475389 C30.2930241,3.32562905 27.2742564,4.5661831 24.9982295,6.60142611 C22.7213173,4.56705735 19.7043201,3.32737754 16.3951841,3.32737754 L16.3951841,3.32737754 L16.3128541,3.32737754 C9.26699717,3.37283829 3.56320822,9.03270224 3.56320822,16.0004371 C3.56320822,22.9961479 9.31214589,28.6726225 16.3951841,28.6726225 C19.7043201,28.6726225 22.720432,27.4329427 24.9973442,25.3985739 C27.2742564,27.4364396 30.2965652,28.6769937 33.6110127,28.6761199 C40.6984773,28.674371 46.4403329,22.9987706 46.4385623,16.0004371 C46.4385623,15.9969401 46.4385623,15.9960659 46.4403329,15.9943174 C46.4385623,8.99510969 40.6922805,3.32213207 33.6048159,3.32475389 Z M26.3332153,24.0128951 C25.9339589,24.4963528 25.4975212,24.9492118 25.0300992,25.3697238 L25.0300992,25.3697238 C25.0274433,25.370598 25.0283286,25.370598 25.0283286,25.370598 C25.0177054,25.3793405 25.0061969,25.3880829 24.9955737,25.3976996 C24.5201841,24.9728164 24.0899433,24.504221 23.6836048,24.0128951 L23.6836048,24.0128951 Z M28.0285057,21.3508182 C27.8063031,21.8194137 27.5575425,22.2722728 27.2813385,22.7076469 L27.2813385,22.7076469 L22.7283994,22.7076469 C22.4513102,22.2705243 22.1928116,21.8220364 21.9706091,21.3508182 L21.9706091,21.3508182 Z M31.7767351,12.6590717 C32.4884915,12.6590717 33.3153329,12.9895364 33.3153329,12.9895364 L33.3153329,12.9895364 L33.092245,14.4189274 C33.092245,14.4189274 32.5336402,14.0333852 31.838704,14.0333852 C30.9091714,14.0333852 30.0752479,14.9085048 30.0752479,16.5022539 C30.0752479,17.2855777 30.463881,18.0164467 31.434136,18.017321 C31.8944759,18.017321 32.5637394,17.685982 32.5637394,17.685982 L32.5637394,17.685982 L32.3194051,19.1582111 C32.3194051,19.1582111 31.5846317,19.3426768 31.1242918,19.3426768 C29.4936261,19.3426768 28.6658994,18.2315111 28.6658994,16.5485889 C28.6658994,14.0106549 30.2000708,12.6590717 31.7767351,12.6590717 Z M20.8985482,13.2185886 L20.7595609,14.0054094 L21.4412181,14.0054094 L21.2668201,15.2748135 L20.5435552,15.2748135 L20.1602337,17.6151682 C20.1301346,17.7996339 20.1823654,18.0505423 20.657755,18.0505423 C20.7790368,18.0505423 20.9162535,18.010327 21.0100921,18.010327 L21.0100921,18.010327 L20.8392351,19.1573368 C20.7020184,19.1949294 20.3133853,19.3313116 19.8149788,19.3348086 C19.1784703,19.3409283 18.7260977,18.9877332 18.7260977,18.1912958 C18.7260977,17.6562577 19.5024788,13.2474387 19.5325779,13.2185886 L19.5325779,13.2185886 L20.8985482,13.2185886 Z M23.6632436,13.854165 C25.1628895,13.854165 25.6108357,14.9382291 25.6108357,15.8273366 C25.6108357,16.1831544 25.4311261,17.0573997 25.4311261,17.0573997 L25.4311261,17.0573997 L22.6549221,17.0573997 C22.6549221,17.0573997 22.3981941,18.1379668 23.865085,18.1379668 C24.5538244,18.1379668 25.3160411,17.8057536 25.3160411,17.8057536 L25.3160411,17.8057536 L25.0752479,19.1066306 C25.0752479,19.1066306 24.6343839,19.3286889 23.6322592,19.3286889 C22.546034,19.3286889 21.2721317,18.8758299 21.2721317,16.9691009 C21.2721317,15.3167773 22.2893059,13.8550392 23.6632436,13.854165 Z M35.4718484,13.8768953 C35.9552054,13.8768953 37.348619,13.9276016 37.345967,15.5056143 L37.345967,15.5056143 L36.8094901,19.2211567 L35.6072946,19.2211567 L35.6524433,18.705352 C35.6303116,18.7071005 35.2142351,19.3243177 34.2510623,19.3243177 C33.7464589,19.3243177 32.9320113,19.0541759 32.9320113,17.8704478 C32.9320113,16.3676201 34.1722734,15.8710488 35.3532224,15.8710488 C35.5408994,15.8710488 35.9410411,15.9033959 35.9410411,15.9033959 C35.9410411,15.9033959 35.9879603,15.8116001 35.9879603,15.5633145 C35.9879603,15.1550419 35.615262,15.0990902 35.1062323,15.0990902 C34.2103399,15.0990902 33.6172096,15.336885 33.6172096,15.336885 L33.6172096,15.336885 L33.8163952,14.1741387 C33.8163952,14.1741387 34.5334632,13.8768953 35.4718484,13.8768953 Z M13.3241856,13.8768953 C13.8075425,13.8768953 15.2000708,13.9276016 15.2009561,15.5056143 L15.2009561,15.5056143 L14.664483,19.2211567 L13.4614023,19.2211567 L13.506551,18.705352 C13.4853045,18.7071005 13.069228,19.3243177 12.10517,19.3243177 C11.5996813,19.3243177 10.786119,19.0541759 10.786119,17.8704478 C10.786119,16.3676201 12.0272663,15.8710488 13.2091006,15.8710488 C13.3950071,15.8710488 13.796034,15.9033959 13.796034,15.9033959 C13.796034,15.9033959 13.8411827,15.8116001 13.8411827,15.5633145 C13.8411827,15.1550419 13.4693697,15.0990902 12.9603399,15.0990902 C12.0635623,15.0990902 11.4713173,15.336885 11.4713173,15.336885 L11.4713173,15.336885 L11.6696176,14.1741387 C11.6696176,14.1741387 12.3875708,13.8768953 13.3241856,13.8768953 Z M45.0079674,12.8068191 L43.9633499,19.2229052 L42.6345609,19.2229052 L42.6938739,18.7411961 C42.6938739,18.7411961 42.2406161,19.3050843 41.4217422,19.3050843 C40.2850567,19.3050843 39.7282224,18.2218944 39.7282224,17.1159741 C39.7282224,15.4042018 40.7710694,13.9136136 42.0237252,13.9127394 C42.8293201,13.9127394 43.3427762,14.6147584 43.3427762,14.6147584 L43.3427762,14.6147584 L43.6375708,12.8094418 L45.0079674,12.8068191 Z M17.5141643,13.886512 C18.2949717,13.886512 18.7747875,13.9922957 18.7747875,13.9922957 L18.7747875,13.9922957 L18.6021601,15.1830178 C18.6021601,15.1830178 17.8611898,15.1226949 17.6690864,15.1226949 C17.1821884,15.1226949 16.9174929,15.2276043 16.9174929,15.5633145 C16.9174929,16.2373576 18.5455028,15.9060186 18.5455028,17.5828211 C18.5455028,19.1837828 17.1432151,19.2925895 16.6240742,19.2975268 L16.4792847,19.2972161 C15.3328612,19.2972161 14.9787535,19.1416004 14.9459986,19.132858 L14.9459986,19.132858 L15.128364,17.9517526 C15.1301346,17.9430101 15.703789,18.1580745 16.342068,18.1580745 C16.7103399,18.1580745 17.1883853,18.1222304 17.1883853,17.6886048 C17.1883853,17.0364178 15.4780453,17.1937819 15.4780453,15.6481163 C15.4780453,14.2851679 16.503187,13.886512 17.5141643,13.886512 Z M44.9752125,18.4299648 C45.046034,18.4299648 45.1133144,18.4474497 45.1788244,18.4832937 C45.2452195,18.5182635 45.2983357,18.5689698 45.3346317,18.6354124 C45.371813,18.6992323 45.3895184,18.7674234 45.3895184,18.8399858 C45.3895184,18.9107997 45.3726983,18.9781165 45.3346317,19.0428107 C45.2983357,19.1075048 45.2469901,19.1590853 45.1814802,19.1958036 C45.1168555,19.2316477 45.0478045,19.2500068 44.9752125,19.2500068 C44.9043909,19.2500068 44.8362252,19.2316477 44.76983,19.1958036 C44.7043201,19.1590853 44.6529745,19.1075048 44.6166785,19.0428107 C44.5794972,18.9781165 44.5609065,18.9107997 44.5609065,18.8399858 C44.5609065,18.7691719 44.5794972,18.7009808 44.6166785,18.6354124 C44.6538598,18.5689698 44.7052054,18.5182635 44.7716006,18.4832937 C44.838881,18.4483239 44.9070467,18.430839 44.9752125,18.4299648 Z M28.6411119,13.9424637 C28.8199363,13.9407152 28.9049221,13.9582001 28.9049221,13.9582001 C28.7234419,14.3236347 28.5632082,14.6584706 28.3967776,15.5230992 C27.4486544,15.1917602 27.3742918,17.0049449 26.9768059,19.2386416 L26.9768059,19.2386416 L25.5745397,19.2386416 L26.4270538,14.0089064 L27.6991856,14.0089064 L27.5761331,14.766877 C27.5761331,14.766877 28.0293909,13.9424637 28.6411119,13.9424637 Z M40.1141997,13.9407152 C40.2921388,13.9407152 40.3771246,13.9590744 40.3771246,13.9582001 C40.1956445,14.3227604 40.0345255,14.6575964 39.8672096,15.5213507 C38.9190864,15.1900117 38.8464943,17.0023222 38.447238,19.2368932 L38.447238,19.2368932 L37.0449717,19.2368932 L37.8974858,14.0071579 L39.1705028,14.0071579 L39.0483357,14.7651285 C39.0483357,14.7651285 39.5024788,13.9407152 40.1141997,13.9407152 Z M7.69564448,12.8024479 L7.76558074,16.7452941 L9.11207507,12.8024479 L11.2756728,12.8024479 L10.1983003,19.2272765 L8.79957507,19.2272765 L9.57772663,14.3839576 L7.82223796,19.2272765 L6.88119688,19.2272765 L6.75902975,14.3839576 L5.92776204,19.2272765 L4.60959632,19.2272765 L5.70201841,12.8024479 L7.69564448,12.8024479 Z M44.9778683,18.4981559 C44.9203258,18.4981559 44.8645538,18.5112696 44.8078966,18.5418682 C44.7512394,18.5724667 44.7096317,18.6144305 44.6786473,18.6686337 C44.6458924,18.7237112 44.6308428,18.7805371 44.6308428,18.8391115 C44.6308428,18.897686 44.6450071,18.9536377 44.6768768,19.0087151 C44.7087465,19.0637926 44.7503541,19.1057564 44.8061261,19.1363549 C44.8601275,19.1660793 44.91767,19.1818157 44.9778683,19.1818157 C45.0371813,19.1818157 45.0938385,19.1660793 45.1487252,19.1363549 C45.2044972,19.1040079 45.2469901,19.0629183 45.2770892,19.0087151 C45.3080737,18.9545119 45.3231232,18.897686 45.3231232,18.8391115 C45.3231232,18.7805371 45.3063031,18.7237112 45.2753187,18.6686337 C45.2443343,18.6135563 45.2027266,18.5724667 45.1460694,18.5418682 C45.092068,18.5121438 45.0354108,18.4981559 44.9778683,18.4981559 Z M44.9504249,18.6240472 C45.0026558,18.6240472 45.0416076,18.6284184 45.0637394,18.6371609 C45.0858711,18.6459033 45.1044618,18.6607655 45.1186261,18.6799989 C45.1327904,18.7001065 45.1398725,18.7228369 45.1398725,18.7446931 C45.1398725,18.7761659 45.1265935,18.8058902 45.1044618,18.8286206 C45.0814448,18.8522252 45.0504603,18.8662132 45.0123938,18.8688359 C45.0283286,18.8740814 45.0398371,18.8819496 45.0504603,18.8915663 C45.0672805,18.9090512 45.0902975,18.9379013 45.1159703,18.9789908 L45.1159703,18.9789908 L45.1708569,19.0655411 L45.0814448,19.0655411 L45.0433782,18.9964757 C45.0106232,18.9413982 44.9858357,18.9081769 44.967245,18.8924405 C44.9548513,18.8828238 44.9344901,18.8775783 44.9088173,18.8775783 L44.9088173,18.8775783 L44.8672096,18.8775783 L44.8672096,19.0646668 L44.7946176,19.0646668 L44.7946176,18.6240472 Z M13.3188739,16.8711854 C12.3176346,16.8711854 12.1149079,17.315302 12.1149079,17.6842335 C12.1149079,17.874819 12.2255666,18.1939185 12.6496105,18.1939185 C13.4729108,18.1939185 13.6428824,17.129962 13.6163244,16.9026583 C13.5773725,16.8956643 13.552585,16.8720597 13.3188739,16.8711854 Z M35.4683074,16.8711854 C34.467068,16.8711854 34.2643414,17.315302 34.2643414,17.6842335 C34.2643414,17.874819 34.3741147,18.1939185 34.7990439,18.1939185 C35.6205737,18.1939185 35.7914306,17.129962 35.7657578,16.9026583 C35.7259207,16.8956643 35.7011331,16.8720597 35.4683074,16.8711854 Z M42.2592068,15.2101194 C41.6581091,15.2101194 41.1827195,15.8998989 41.1827195,16.9463705 C41.1827195,17.5863181 41.4128895,17.9937164 41.9050992,17.9937164 C42.6451841,17.9937164 43.0019476,17.0416633 43.0019476,16.3291533 C43.0019476,15.5440811 42.7496459,15.2109936 42.2592068,15.2101194 Z M23.66767,15.0649947 C22.9231586,15.0649947 22.779745,15.9007732 22.779745,15.9890719 L22.779745,15.9890719 L24.296211,15.9890719 C24.296211,15.9208808 24.4387394,15.0649947 23.66767,15.0649947 Z M28.0046034,10.5984755 C28.2144122,11.0373467 28.3985482,11.4893315 28.5587819,11.9561785 L28.5587819,11.9561785 L21.4642351,11.9561785 C21.5341714,11.8250417 21.7820467,11.2969975 22.1556303,10.5984755 L22.1556303,10.5984755 Z M26.2685907,7.9101713 C26.6297805,8.34029998 26.9635269,8.79315903 27.2654037,9.26699997 L27.2654037,9.26699997 L22.9160765,9.26699997 C23.1949363,8.81239243 23.5030099,8.34729394 23.8305595,7.9101713 L23.8305595,7.9101713 Z" id="Combined-Shape" fill="#B0B2B6" fill-rule="nonzero"></path>
    </g>
</svg>