<?xml version="1.0" encoding="UTF-8"?>
<svg width="51px" height="42px" viewBox="0 0 51 42" version="1.1" xmlns="http://www.w3.org/2000/svg" xmlns:xlink="http://www.w3.org/1999/xlink">
    <!-- Generator: Sketch 63.1 (92452) - https://sketch.com -->
    <title>store-logo-sample</title>
    <desc>Created with Sketch.</desc>
    <g id="store-logo-sample" stroke="none" stroke-width="1" fill="none" fill-rule="evenodd">
        <rect id="Rectangle" x="0" y="0" width="51" height="42"></rect>
        <g id="Group" transform="translate(0.000000, 4.000000)">
            <path d="M30.4033864,20.4596273 C30.5671446,20.4596273 30.7307818,20.4500407 30.8933288,20.4296383 C31.0168742,20.4140293 31.1595571,20.4038281 31.2706268,20.3422524 C31.5036674,20.2127098 31.506211,19.976485 31.4696319,19.7441932 C31.4266332,19.4719571 31.1921391,19.3318446 30.9340261,19.3658895 C30.6602882,19.4021467 30.3686241,19.3937891 30.1211699,19.2566263 C29.6391005,18.9899209 29.5160395,18.3053362 29.7320018,17.8224397 C29.8614822,17.5328738 30.1231078,17.3411409 30.4301546,17.2876769 C30.5889468,17.2600232 30.7552486,17.2676433 30.9141619,17.2886602 C31.0702894,17.3093083 31.2209664,17.28104 31.3343375,17.1596092 C31.4693896,17.0142118 31.5286187,16.7033832 31.4502522,16.5214828 C31.311203,16.1972575 30.8645015,16.2112688 30.5711417,16.2112688 C30.0472849,16.2112688 29.5132537,16.3424092 29.0861741,16.6604891 C28.2705321,17.2677662 28.0538431,18.4909238 28.4981221,19.3945265 C28.8573728,20.1255696 29.6272304,20.4596273 30.4033864,20.4596273 Z" id="Path" fill="#656669"></path>
            <path d="M38.1642559,20.4596273 C38.3280142,20.4596273 38.4916513,20.4500407 38.6541983,20.4296383 C38.7777438,20.4140293 38.9204266,20.4038281 39.0314964,20.3422524 C39.264537,20.2127098 39.2670806,19.976485 39.2305014,19.7441932 C39.1875028,19.4719571 38.9530087,19.3318446 38.6948957,19.3658895 C38.4211578,19.4021467 38.1294937,19.3937891 37.8820394,19.2566263 C37.39997,18.9899209 37.2769091,18.3053362 37.4928713,17.8224397 C37.6223518,17.5328738 37.8839774,17.3411409 38.1910241,17.2876769 C38.3498163,17.2600232 38.5161182,17.2676433 38.6750315,17.2886602 C38.831159,17.3093083 38.981836,17.28104 39.0952071,17.1596092 C39.2302592,17.0142118 39.2894883,16.7033832 39.2111217,16.5214828 C39.0720726,16.1972575 38.6253711,16.2112688 38.3320113,16.2112688 C37.8081544,16.2112688 37.2741233,16.3424092 36.8470437,16.6604891 C36.0314016,17.2677662 35.8147126,18.4909238 36.2589917,19.3945265 C36.6182424,20.1255696 37.3881,20.4596273 38.1642559,20.4596273 Z" id="Path" fill="#656669"></path>
            <path d="M33.0954654,20.1440167 C33.2513143,20.5574484 33.8481177,20.445934 34.2047973,20.445934 C34.4335433,20.445934 34.6485301,20.3723982 34.7355832,20.1468205 C34.754502,20.1034892 34.7697165,20.0588835 34.7867831,20.0150424 C35.0467518,19.3423876 35.3067204,18.6694779 35.5666891,17.9969505 C35.6873463,17.6845828 35.8080035,17.3722151 35.9289253,17.0597199 C36.0362203,16.7818898 36.1441767,16.4481113 35.7890847,16.2695608 C35.6204027,16.184555 35.3891431,16.2174358 35.2048498,16.2174358 C34.9645938,16.2174358 34.7325403,16.2750409 34.6401952,16.5190981 C34.5399121,16.7838014 34.480245,17.0687685 34.4021883,17.3399715 C34.247927,17.8758778 34.0910197,18.4087254 33.9730085,18.9534254 C33.8112061,18.1825105 33.5474007,17.426889 33.3197132,16.6725419 C33.2796264,16.5397442 33.2437732,16.4124266 33.1248359,16.3196467 C32.9591968,16.1904174 32.7439454,16.2173083 32.5454961,16.2173083 C32.3335522,16.2173083 32.1136703,16.1947506 31.9506772,16.3557136 C31.8093813,16.4953934 31.7896686,16.6880902 31.8563476,16.8646016 C32.2693869,17.9578249 32.6825584,19.0507934 33.0954654,20.1440167 Z" id="Path" fill="#656669"></path>
            <path d="M33.7352629,30.3391401 C31.3382419,30.3391401 29.1088704,29.5905581 27.2586241,28.3098858 L5.48683024,28.3098858 C4.13531606,28.3098858 3.03588629,27.1851964 3.03588629,25.8021248 L3.03588629,12.2729301 L23.8681331,12.2729301 C25.0123878,10.3764997 26.6639179,8.83347176 28.6275578,7.84262803 L3.03599724,7.84444443 L3.03599724,5.61391079 C3.03599724,4.23095268 4.13542701,3.10614979 5.48694119,3.10614979 L40.4132807,3.10614979 C41.7646839,3.10614979 42.8642247,4.23095268 42.8642247,5.61391079 L42.8642247,7.84160631 L38.8413036,7.84183336 C42.6771585,9.77663511 45.3229353,13.8193638 45.3229353,18.4829592 C45.3229353,20.158357 44.9829764,21.7893666 44.327801,23.2940232 L45.9,24.7893708 L45.9,5.61391079 C45.9,2.5183188 43.4386265,0 40.4132807,0 L5.48683024,0 C2.46126254,0 0,2.51843232 0,5.61391079 L0,25.8022383 C0,28.8978303 2.46137349,31.4161491 5.48683024,31.4161491 L40.3269596,31.4161491 L38.2225207,29.4145948 C36.8092059,30.0229737 35.2868247,30.3391401 33.7352629,30.3391401 Z" id="Path" fill="#DADCE1"></path>
            <path d="M7.68469281,17.1058271 C7.2368496,17.1058271 6.87391304,17.4878579 6.87391304,17.9591437 L6.87391304,20.5007207 C6.87391304,20.9722436 7.2369622,21.3540373 7.68469281,21.3540373 L22.7282609,21.3540373 C22.5680193,20.5411404 22.483563,19.6989659 22.483563,18.8366409 C22.483563,18.2494301 22.523539,17.6714649 22.5990991,17.1055901 L7.68469281,17.1058271 L7.68469281,17.1058271 Z" id="Path" fill="#DADCE1"></path>
            <path d="M50.3619691,32.3974997 L42.1669404,24.4738093 C43.3268048,22.7457279 44.0089336,20.6454782 44.0089336,18.3784665 C44.0089336,12.4889941 39.4186777,7.71428571 33.7565849,7.71428571 C28.0944921,7.71428571 23.5043478,12.4888781 23.5043478,18.3784665 C23.5043478,24.2679389 28.0944921,29.0422992 33.7565849,29.0422992 C35.791145,29.0422992 37.6854637,28.4235274 39.2801099,27.3602891 L47.6399249,35.4435464 C48.0249472,35.8159467 48.5132818,36 49.0005007,36 C49.5368097,36 50.0715567,35.7769544 50.4650582,35.3363174 C51.2168056,34.4949642 51.1706163,33.1790878 50.3619691,32.3974997 Z M33.7565849,11.3362822 C37.4895497,11.3362822 40.5265513,14.4954764 40.5265513,18.3784665 C40.5265513,22.2613405 37.4895497,25.4203027 33.7565849,25.4203027 C30.0236201,25.4203027 26.9866186,22.2613405 26.9866186,18.3784665 C26.9866186,14.4954764 30.0236201,11.3362822 33.7565849,11.3362822 Z" id="Shape" fill="#B0B2B6"></path>
        </g>
    </g>
</svg>