<?xml version="1.0" encoding="UTF-8"?>
<svg width="50px" height="50px" viewBox="0 0 50 50" version="1.1" xmlns="http://www.w3.org/2000/svg" xmlns:xlink="http://www.w3.org/1999/xlink">
    <!-- Generator: Sketch 63.1 (92452) - https://sketch.com -->
    <title>Mood-Happy</title>
    <desc>Created with Sketch.</desc>
    <g id="Mood-Happy" stroke="none" stroke-width="1" fill="none" fill-rule="evenodd">
        <g id="Mood-/-Happy">
            <rect id="Rectangle" x="0" y="0" width="50" height="50"></rect>
            <path d="M25,0.78125 C38.3754727,0.78125 49.21875,11.6245273 49.21875,25 C49.21875,38.3754727 38.3754727,49.21875 25,49.21875 C11.6245273,49.21875 0.78125,38.3754727 0.78125,25 C0.78125,11.6245273 11.6245273,0.78125 25,0.78125 Z M25,3.90628052 C13.3504483,3.90628052 3.90628052,13.3504483 3.90628052,25 C3.90628052,36.6495517 13.3504483,46.0937195 25,46.0937195 C36.6495517,46.0937195 46.0937195,36.6495517 46.0937195,25 C46.0937195,13.3504483 36.6495517,3.90628052 25,3.90628052 Z M33.0228944,29.434813 C33.4553728,28.6879547 34.4113882,28.4332929 35.1581363,28.8658135 C35.9048736,29.2985109 36.1595486,30.2544195 35.7270353,31.0011549 C33.4758322,34.8872072 29.4533127,37.249158 25,37.249158 C20.5466628,37.249158 16.524151,34.887185 14.272936,31.0010138 C13.8404343,30.2542983 14.0951434,29.298318 14.8418637,28.8658135 C15.5885792,28.4333118 16.5445595,28.6880209 16.9770434,29.4347056 C18.6729791,32.3623885 21.6696315,34.1241275 25,34.1241275 C28.3303685,34.1241275 31.3270209,32.3623885 33.0228944,29.434813 Z M15.6249084,17.9687195 C18.213638,17.9687195 20.312439,20.0675205 20.312439,22.65625 C20.312439,23.5192105 19.61293,24.2187195 18.7499695,24.2187195 C17.948649,24.2187195 17.2882638,23.6155714 17.1980114,22.8384729 L17.1875,22.65625 C17.1875,21.7934415 16.4878085,21.09375 15.625,21.09375 C14.8238206,21.09375 14.1632882,21.6970554 14.073014,22.4740547 L14.0625,22.65625 C14.0625,23.5192322 13.3627862,24.2187195 12.4998474,24.2187195 C11.6368869,24.2187195 10.9373779,23.5192105 10.9373779,22.65625 C10.9373779,20.0675205 13.0361789,17.9687195 15.6249084,17.9687195 Z M34.375,17.9687195 C36.9637746,17.9687195 39.0625671,20.06758 39.0623474,22.65625 C39.0623474,23.5192105 38.3628384,24.2187195 37.4998779,24.2187195 C36.6986263,24.2187195 36.0381821,23.6155564 35.9479209,22.8384697 L35.9374084,22.65625 C35.9374084,21.7934415 35.237717,21.09375 34.3749084,21.09375 C33.5737291,21.09375 32.9131966,21.6970554 32.8229225,22.4740547 L32.8124084,22.65625 C32.8124084,23.5192105 32.1128995,24.2187195 31.249939,24.2187195 C30.3869785,24.2187195 29.6874695,23.5192105 29.6874695,22.65625 C29.6874695,20.0675205 31.7862705,17.9687195 34.375,17.9687195 Z" id="Combined-Shape" fill="#FA2398" fill-rule="evenodd"></path>
        </g>
    </g>
</svg>