<?xml version="1.0" encoding="UTF-8"?>
<svg width="32px" height="32px" viewBox="0 0 32 32" version="1.1" xmlns="http://www.w3.org/2000/svg" xmlns:xlink="http://www.w3.org/1999/xlink">
    <!-- Generator: Sketch 63.1 (92452) - https://sketch.com -->
    <title>Payment-paypal</title>
    <desc>Created with Sketch.</desc>
    <g id="Payment-paypal" stroke="none" stroke-width="1" fill="none" fill-rule="evenodd">
        <rect id="Rectangle" x="0" y="0" width="32" height="32"></rect>
        <g id="Icons-/-payment-paypal">
            <g id="Group">
                <rect id="Rectangle" x="0" y="0" width="32" height="32"></rect>
                <path d="M23.3825169,6.8821571 C22.0800487,4.00344798 19.1979492,2.11303253 15.9974371,2.11303253 L5.85767935,2.11303253 L2,25.2579783 L8.3840722,25.2579783 L7.61332743,29.8869675 L16.3243256,29.8869675 L17.4815729,22.9434837 L21.8935782,22.9434837 C25.873876,22.9434837 29.2351482,20.0967006 29.8860998,16.1737566 C30.2604534,13.9344153 29.7049974,11.7100481 28.3234204,9.91117275 C27.1028861,8.32278308 25.3300037,7.24718725 23.3825169,6.8821571 L23.3825169,6.8821571 Z M8.76803196,22.9434837 L4.73235806,22.9434837 L7.81816244,4.42752711 L15.9974371,4.42752711 C18.4560225,4.42752711 20.6541143,5.98766367 21.4666737,8.3100692 C21.7848037,9.22151441 21.8681503,10.2069828 21.7068251,11.1644806 C21.2420615,13.9663413 18.8408299,16 15.9974371,16 L9.92527925,16 L8.76803196,22.9434837 Z M27.6035313,15.7917746 L27.6035313,15.7934698 C27.1382026,18.5953304 24.737536,20.6289892 21.8935782,20.6289892 L15.5208072,20.6289892 L14.3635599,27.5724729 L10.3448379,27.5724729 L11.8863274,18.3144946 L15.9974371,18.3144946 C16.3175448,18.3144946 16.6311543,18.2896318 16.9419385,18.2537504 C20.2266448,17.8748762 22.942051,15.549928 23.8088563,12.3559142 C23.8811843,12.0909 23.9436237,11.8213653 23.9893937,11.5447675 C23.9899587,11.5405295 23.9899587,11.536009 23.9905238,11.5320535 C24.0450523,11.2079904 24.0786735,10.881667 24.0925175,10.553931 C24.0930826,10.5454551 24.0942127,10.5372616 24.0942127,10.5285031 C24.1069266,10.2038749 24.0987332,9.87924676 24.0727403,9.55659623 C24.0716102,9.54077449 24.0716102,9.52523534 24.0699151,9.50969611 C24.0687849,9.49924248 24.0687849,9.48878877 24.0682198,9.47777012 C25.0130038,9.86257741 25.8538162,10.4957296 26.487251,11.3201552 C27.4744145,12.6053891 27.8708056,14.1929312 27.6035313,15.7917746 L27.6035313,15.7917746 Z" id="Shape" fill="#3B3B3B"></path>
            </g>
        </g>
    </g>
</svg>