<?xml version="1.0" encoding="UTF-8"?>
<svg width="32px" height="32px" viewBox="0 0 32 32" version="1.1" xmlns="http://www.w3.org/2000/svg" xmlns:xlink="http://www.w3.org/1999/xlink">
    <!-- Generator: Sketch 63.1 (92452) - https://sketch.com -->
    <title>Payment-bizum</title>
    <desc>Created with Sketch.</desc>
    <g id="Payment-bizum" stroke="none" stroke-width="1" fill="none" fill-rule="evenodd">
        <rect id="Rectangle" x="0" y="0" width="32" height="32"></rect>
        <g id="Icons-/-payment-bizum">
            <g id="Group" stroke-width="1">
                <rect id="Rectangle" x="0" y="0" width="32" height="32"></rect>
            </g>
            <path d="M22.0709296,25.6402042 C22.7566749,24.6963491 24.081348,24.4861485 25.0250667,25.1716207 C25.9702868,25.8581849 26.1806238,27.1825851 25.4943326,28.1267132 C24.8072224,29.0728888 23.4845967,29.2830893 22.5380117,28.5952967 C21.5930646,27.9087325 21.3849114,26.5854243 22.0709296,25.6402042 Z M18.1800352,20.1983298 C18.8650979,19.2532462 20.189771,19.0430456 21.1334897,19.7293368 C22.0800747,20.4168565 22.2890469,21.7401646 21.6039841,22.6852482 L21.6039841,22.6852482 L19.1148817,26.1079687 C18.428727,27.0538713 17.1055553,27.2653003 16.1589703,26.5772347 C15.2144327,25.8882136 15.0062795,24.5664069 15.6922977,23.6222787 L15.6922977,23.6222787 Z M19.2629776,7.91033188 C19.9492688,6.96634022 21.272577,6.75463821 22.2164321,7.44365931 C23.1630172,8.12954105 23.3732177,9.45121128 22.6855616,10.3965679 L22.6855616,10.3965679 L12.7362498,24.0894973 C12.0500951,25.0358093 10.7273329,25.2442355 9.78088434,24.5572618 C8.83716566,23.871653 8.6268286,22.54698 9.31448476,21.6029883 L9.31448476,21.6029883 Z M12.8851646,5.89090495 C13.5714558,4.9444564 14.8940815,4.73439232 15.8390286,5.42327692 C16.7852042,6.10956814 16.9945858,7.4327398 16.3070661,8.37795991 L16.3070661,8.37795991 L13.8212396,11.7993155 C13.132901,12.745218 11.8104118,12.9566471 10.8658742,12.2704923 C9.91792419,11.5807888 9.71099947,10.2593915 10.3967447,9.31362545 L10.3967447,9.31362545 Z M6.50653269,3.86984009 C7.19200495,2.92857831 8.51449413,2.71701279 9.46258061,3.403577 C10.4057533,4.08986822 10.6159539,5.41413183 9.92843422,6.35825999 C9.24255248,7.3033436 7.91815238,7.5129982 6.97416072,6.82575152 C6.02894061,6.1395968 5.819559,4.81642514 6.50653269,3.86984009 Z" id="Combined-Shape" fill="#3B3B3B"></path>
        </g>
    </g>
</svg>