<?xml version="1.0" encoding="UTF-8"?>
<svg width="32px" height="32px" viewBox="0 0 32 32" version="1.1" xmlns="http://www.w3.org/2000/svg" xmlns:xlink="http://www.w3.org/1999/xlink">
    <!-- Generator: Sketch 63.1 (92452) - https://sketch.com -->
    <title>Payment-cards</title>
    <desc>Created with Sketch.</desc>
    <g id="Payment-cards" stroke="none" stroke-width="1" fill="none" fill-rule="evenodd">
        <rect id="Rectangle" x="0" y="0" width="32" height="32"></rect>
        <g id="Icons-/-payment-card">
            <g id="Group">
                <rect id="Rectangle" x="0" y="0" width="32" height="32"></rect>
                <path d="M27.78,6.70371582 C28.3322847,6.70371582 28.78,7.15143107 28.78,7.70371582 L28.78,24.2962842 C28.78,24.8485689 28.3322847,25.2962842 27.78,25.2962842 L4.22,25.2962842 C3.66771525,25.2962842 3.22,24.8485689 3.22,24.2962842 L3.22,7.70371582 C3.22,7.15143107 3.66771525,6.70371582 4.22,6.70371582 L27.78,6.70371582 Z M26.779,16.1217158 L5.22,16.1217158 L5.22,23.2962842 L26.78,23.2962842 L26.779,16.1217158 Z M26.779,12.6157158 L5.22,12.6157158 L5.22,14.1217158 L26.779,14.1217158 L26.779,12.6157158 Z M26.78,8.70371582 L5.22,8.70371582 L5.22,10.6157158 L26.779,10.6157158 L26.78,8.70371582 Z M18.8645801,19.1762842 L23.8645801,19.1762842 C24.4168648,19.1762842 24.8645801,19.6239994 24.8645801,20.1762842 C24.8645801,20.68912 24.4785399,21.1117913 23.9812012,21.1695564 L23.8645801,21.1762842 L18.8645801,21.1762842 C18.3122953,21.1762842 17.8645801,20.7285689 17.8645801,20.1762842 C17.8645801,19.6634483 18.2506203,19.240777 18.747959,19.1830119 L18.8645801,19.1762842 Z M8.97541992,22.0162842 C9.99162386,22.0162842 10.8154199,21.1924881 10.8154199,20.1762842 C10.8154199,19.1600802 9.99162386,18.3362842 8.97541992,18.3362842 C7.95921598,18.3362842 7.13541992,19.1600802 7.13541992,20.1762842 C7.13541992,21.1924881 7.95921598,22.0162842 8.97541992,22.0162842 Z" id="Shape" fill="#3B3B3B"></path>
            </g>
        </g>
    </g>
</svg>