<?xml version="1.0" encoding="UTF-8"?>
<svg width="32px" height="32px" viewBox="0 0 32 32" version="1.1" xmlns="http://www.w3.org/2000/svg" xmlns:xlink="http://www.w3.org/1999/xlink">
    <!-- Generator: Sketch 63.1 (92452) - https://sketch.com -->
    <title>Payment-cash_on_delivery</title>
    <desc>Created with Sketch.</desc>
    <g id="Payment-cash_on_delivery" stroke="none" stroke-width="1" fill="none" fill-rule="evenodd">
        <rect id="Rectangle" x="0" y="0" width="32" height="32"></rect>
        <g id="Icons-/-payment-cash_on_delivery">
            <g id="Group">
                <rect id="Rectangle" x="0" y="0" width="32" height="32"></rect>
                <path d="M31.0625,5.625 L28.1875,5.625 C27.888875,5.625 27.6080625,5.76725 27.4315,6.008125 L25.635625,8.4570625 C25.394875,8.785375 24.9391875,8.8683125 24.59825,8.645875 C24.228875,8.405 24.1359375,7.900875 24.4034375,7.5438125 C26.1150625,5.1910625 26.3125,5.1805625 26.3125,4.6875 C26.3125,4.1681875 25.888375,3.75 25.375,3.75 L21.772,3.75 C23.665,2.5296875 25.87,1.875 28.176125,1.875 L31.0625,1.875 C31.58025,1.875 32,1.45525 32,0.9375 C32,0.41975 31.58025,0 31.0625,0 L28.1760625,0 C24.6583125,0 21.2889375,1.3471875 18.7481875,3.75 L13.1875,3.75 C12.66975,3.75 12.25,4.16975 12.25,4.6875 L12.25,11.3125 L6.5625,11.3125 C6.04475,11.3125 5.625,11.73225 5.625,12.25 L5.625,22.649375 C3.725375,22.786125 1.8946875,23.5051875 0.4095625,24.70925 C0.007375,25.0353125 -0.0543125,25.6256875 0.2718125,26.0279375 C0.5979375,26.43025 1.1883125,26.49175 1.5905,26.1656875 C2.9153125,25.0915625 4.584125,24.5 6.289625,24.5 L8.375,24.5 C8.8919375,24.5 9.3125,24.9205625 9.3125,25.4375 C9.3125,25.9544375 8.8919375,26.375 8.375,26.375 L5.625,26.375 C5.10725,26.375 4.6875,26.79475 4.6875,27.3125 C4.6875,27.83025 5.10725,28.25 5.625,28.25 L14.776875,28.25 C14.39,29.3413125 13.3473125,30.125 12.125,30.125 L0.9375,30.125 C0.41975,30.125 0,30.54475 0,31.0625 C0,31.58025 0.41975,32 0.9375,32 L12.125,32 C14.38875,32 16.282625,30.387 16.7181875,28.25 L21.625,28.25 C22.14275,28.25 22.5625,27.83025 22.5625,27.3125 L22.5625,16.875 L29.125,16.875 C29.64275,16.875 30.0625,16.45525 30.0625,15.9375 L30.0625,7.5 L31.0625,7.5 C31.58025,7.5 32,7.08025 32,6.5625 C32,6.04475 31.58025,5.625 31.0625,5.625 Z M22.406625,11.732875 C22.2388125,11.4796875 21.9515625,11.3125 21.625,11.3125 L19.568875,11.3125 C18.8458125,10.089875 19.7295625,8.53125 21.15625,8.53125 C22.8434375,8.53125 23.6276875,10.607875 22.406625,11.732875 Z M14.125,5.625 L23.498125,5.625 C23.0029375,6.3111875 22.7943125,6.4945 22.5973125,6.9469375 C19.786375,5.760875 16.77975,8.3180625 17.558,11.3125 L14.125,11.3125 L14.125,5.625 Z M13.1875,13.1875 L15.0625,13.1875 L15.0625,16.9375 L13.1875,16.9375 L13.1875,13.1875 Z M20.6875,26.375 C17.3553125,26.375 14.497125,26.375 11.026875,26.375 C11.6731875,24.5521875 10.3140625,22.625 8.375,22.625 L7.5,22.625 L7.5,13.1875 L11.3125,13.1875 L11.3125,17.875 C11.3125,18.39275 11.73225,18.8125 12.25,18.8125 L16,18.8125 C16.51775,18.8125 16.9375,18.39275 16.9375,17.875 L16.9375,13.1875 L20.6875,13.1875 L20.6875,26.375 Z M22.5625,15 L22.5625,13.8191875 C23.859625,13.292875 24.7644375,12.0695625 24.8648125,10.640125 C25.7679375,10.691375 26.6200625,10.2851875 27.1475625,9.565875 L28.1875,8.1478125 L28.1875,15 L22.5625,15 Z" id="Shape" fill="#3B3B3B"></path>
            </g>
        </g>
    </g>
</svg>