<?xml version="1.0" encoding="UTF-8"?>
<svg width="32px" height="32px" viewBox="0 0 32 32" version="1.1" xmlns="http://www.w3.org/2000/svg" xmlns:xlink="http://www.w3.org/1999/xlink">
    <!-- Generator: Sketch 63.1 (92452) - https://sketch.com -->
    <title>Payment-bank_transfer</title>
    <desc>Created with Sketch.</desc>
    <g id="Payment-bank_transfer" stroke="none" stroke-width="1" fill="none" fill-rule="evenodd">
        <rect id="Rectangle" x="0" y="0" width="32" height="32"></rect>
        <g id="Icons-/-payment-banktransfer">
            <g id="Group">
                <rect id="Rectangle" x="0" y="0" width="32" height="32"></rect>
                <path d="M15.6856016,2.06265285 C15.8869063,1.97914505 16.1130937,1.97914505 16.3143984,2.06265285 L16.3143984,2.06265285 L29.4940845,7.53140227 C29.8003892,7.65844132 30.0000015,7.95747254 30.0000015,8.28904281 L30.0000015,8.28904281 L30.0000015,11.5702925 C30.0000015,12.0233237 29.6327173,12.3906049 29.1796861,12.3906049 L29.1796861,12.3906049 L27.7578112,12.3906049 L27.7578112,21.6874789 L28.0312487,21.6874789 C28.4842799,21.6874789 28.8515611,22.0547601 28.8515611,22.5077913 L28.8515611,22.5077913 L28.8515611,24.9687285 L29.1796861,24.9687285 C29.6327173,24.9687285 30.0000015,25.3360097 30.0000015,25.7890409 L30.0000015,25.7890409 L30.0000015,29.1796656 C30.0000015,29.6326968 29.6327173,29.999978 29.1796861,29.999978 L29.1796861,29.999978 L2.8203139,29.999978 C2.3672827,29.999978 2.00000149,29.6326968 2.00000149,29.1796656 L2.00000149,29.1796656 L2.00000149,25.7890409 C2.00000149,25.3360097 2.3672827,24.9687285 2.8203139,24.9687285 L2.8203139,24.9687285 L3.14843887,24.9687285 L3.14843887,22.5077913 C3.14843887,22.0547601 3.51572008,21.6874789 3.96875128,21.6874789 L3.96875128,21.6874789 L4.24218875,21.6874789 L4.24218875,12.3906049 L2.8203139,12.3906049 C2.3672827,12.3906049 2.00000149,12.0233237 2.00000149,11.5702925 L2.00000149,11.5702925 L2.00000149,8.28904281 C2.00000149,7.95747254 2.19961085,7.65844132 2.5059155,7.53140227 L2.5059155,7.53140227 Z M28.3593737,26.6093534 L3.64062632,26.6093534 L3.64062632,28.3593532 L28.3593737,28.3593532 L28.3593737,26.6093534 Z M8.61718829,23.3281037 L4.78906369,23.3281037 L4.78906369,24.9687285 L8.61718829,24.9687285 L8.61718829,23.3281037 Z M22.8359368,12.3906049 L9.16406323,12.3906049 L9.16406323,21.6874789 L9.4375007,21.6874789 C9.8905319,21.6874789 10.2578131,22.0547601 10.2578131,22.5077913 L10.2578131,22.5077913 L10.2578131,24.9687285 L21.7421869,24.9687285 L21.7421869,22.5077913 C21.7421869,22.0547601 22.1094681,21.6874789 22.5624993,21.6874789 L22.5624993,21.6874789 L22.8359368,21.6874789 L22.8359368,12.3906049 Z M27.2109363,23.3281037 L23.3828117,23.3281037 L23.3828117,24.9687285 L27.2109363,24.9687285 L27.2109363,23.3281037 Z M16.6962596,13.5834961 C17.9048533,13.5834961 18.8074064,13.8324763 19.4338141,14.2880454 C19.8991754,14.6264901 20.146498,15.0222062 20.2328293,15.3675313 C20.366778,15.9033263 20.0410173,16.4462607 19.5052224,16.5802095 C19.0076986,16.7045904 18.5040186,16.4325893 18.3273559,15.96411 L18.2920015,15.856022 L18.3035507,15.8966257 C18.3118193,15.9316277 18.3105489,15.9400621 18.287809,15.9263914 L18.2574707,15.9055176 C18.0016689,15.71948 17.5087273,15.5834961 16.6962596,15.5834961 C15.7223336,15.5834961 15.1106263,16.0246423 14.8193142,16.9049902 L17.209545,16.9051531 C17.4856874,16.9051531 17.709545,17.1290107 17.709545,17.4051531 C17.709545,17.650613 17.5326699,17.8547614 17.2994206,17.8970974 L17.209545,17.9051531 L14.6352781,17.9037198 C14.6227494,18.0711503 14.6165469,18.2476246 14.6165469,18.4331369 C14.6165469,18.6186492 14.6227494,18.7951235 14.6352781,18.962554 L17.209545,18.9611207 C17.4856874,18.9611207 17.709545,19.1849784 17.709545,19.4611207 C17.709545,19.7065806 17.5326699,19.9107291 17.2994206,19.9530651 L17.209545,19.9611207 L14.8193081,19.9612653 C15.1106178,20.8416253 15.7223269,21.2827777 16.6962596,21.2827777 C17.4348666,21.2827777 17.9094025,21.1703943 18.1817651,21.0101881 L18.2574707,20.9607562 C18.2958492,20.9328445 18.3087814,20.9255506 18.3081978,20.9433367 L18.293,21.01 L18.3273559,20.9021638 C18.5040186,20.4336845 19.0076986,20.1616834 19.5052224,20.2860643 C20.0410173,20.420013 20.366778,20.9629475 20.2328293,21.4987424 C20.146498,21.8440676 19.8991754,22.2397837 19.4338141,22.5782283 C18.8074064,23.0337975 17.9048533,23.2827777 16.6962596,23.2827777 C14.4796748,23.2827777 13.1755928,21.9853283 12.761411,19.961607 L12.3333333,19.9611207 C12.057191,19.9611207 11.8333333,19.7372631 11.8333333,19.4611207 C11.8333333,19.2156608 12.0102085,19.0115124 12.2434577,18.9691764 L12.3333333,18.9611207 L12.6323242,18.961463 C12.6218026,18.7890515 12.6165469,18.6128556 12.6165469,18.4331369 C12.6165469,18.2534182 12.6218026,18.0772223 12.6323242,17.9048108 L12.3333333,17.9051531 C12.057191,17.9051531 11.8333333,17.6812954 11.8333333,17.4051531 C11.8333333,17.1596932 12.0102085,16.9555447 12.2434577,16.9132087 L12.3333333,16.9051531 L12.761411,16.9046668 C13.1755928,14.8809455 14.4796748,13.5834961 16.6962596,13.5834961 Z M7.5234384,12.3906049 L5.88281358,12.3906049 L5.88281358,21.6874789 L7.5234384,21.6874789 L7.5234384,12.3906049 Z M26.1171864,12.3906049 L24.4765616,12.3906049 L24.4765616,21.6874789 L26.1171864,21.6874789 L26.1171864,12.3906049 Z M16,3.7084183 L3.64062632,8.83679276 L3.64062632,10.7499801 L28.3593737,10.7499801 L28.3593737,8.83673807 L16,3.7084183 Z M20.9218745,7.4687304 C21.3749057,7.4687304 21.7421869,7.83601161 21.7421869,8.28904281 C21.7421869,8.74207402 21.3749057,9.10935523 20.9218745,9.10935523 L20.9218745,9.10935523 L11.0781255,9.10935523 C10.6250943,9.10935523 10.2578131,8.74207402 10.2578131,8.28904281 C10.2578131,7.83601161 10.6250943,7.4687304 11.0781255,7.4687304 L11.0781255,7.4687304 Z" id="Combined-Shape" fill="#3B3B3B"></path>
            </g>
        </g>
    </g>
</svg>