<?xml version="1.0" encoding="UTF-8"?>
<svg width="32px" height="32px" viewBox="0 0 32 32" version="1.1" xmlns="http://www.w3.org/2000/svg" xmlns:xlink="http://www.w3.org/1999/xlink">
    <!-- Generator: Sketch 63.1 (92452) - https://sketch.com -->
    <title>shipping-pickup_on_store</title>
    <desc>Created with Sketch.</desc>
    <g id="shipping-pickup_on_store" stroke="none" stroke-width="1" fill="none" fill-rule="evenodd">
        <rect id="Rectangle" x="0" y="0" width="32" height="32"></rect>
        <g id="Icons-/-store">
            <g id="Group">
                <rect id="Rectangle" x="0" y="0" width="32" height="32"></rect>
                <path d="M5.04263994,29.9742487 C4.48984431,29.9742487 4.04977092,29.5713087 3.99355134,29.036037 L3.98747841,28.919409 L3.98747841,17.7343963 C2.23606476,17.1157201 1,15.4422043 1,13.4857456 C1,13.1245829 1.0515027,12.7901372 1.1545081,12.4029013 C1.1545081,12.3350894 1.16581008,12.2778642 1.18116551,12.224454 L1.36084078,11.6825073 L4.57975944,2.72103778 C4.72051397,2.34618007 5.07302547,2.07826495 5.46461865,2.03265111 L5.58309639,2.02575135 L26.3905085,2.02575135 C26.8121868,2.02575135 27.1697528,2.2595885 27.3473641,2.6119041 L27.395133,2.72103778 L30.6391592,11.73401 L30.6460024,11.7650309 L30.6655544,11.8106203 L30.717057,11.9918454 C30.7939892,12.1463535 30.8454919,12.3011835 30.871887,12.5062286 C30.9484973,12.8419618 31,13.1764075 31,13.4857456 C31,15.1850267 30.0348915,16.6728499 28.6204764,17.4514423 L28.4248651,17.5531712 L28.4248651,28.919409 C28.4248651,29.4722046 28.0219251,29.9119976 27.4866534,29.9681798 L27.3700254,29.9742487 L5.04263994,29.9742487 Z M22.9401496,16.368931 C22.1167502,17.3484479 20.8542903,17.9922317 19.4633955,17.9922317 C18.0728227,17.9922317 16.8116503,17.3735555 15.9869634,16.368931 C15.1632421,17.3484479 13.9007822,17.9922317 12.5114969,17.9922317 C11.1206022,17.9922317 9.85846415,17.3735555 9.03474286,16.368931 C8.33945643,17.193618 7.38633462,17.7595039 6.27838282,17.9404071 C6.24404768,17.9404071 6.19855363,17.9517091 6.15677922,17.9592437 L6.09876715,17.9658365 L6.09876715,27.8629599 L10,27.8627513 L10,20.9742487 C10,20.4219639 10.4477153,19.9742487 11,19.9742487 L21,19.9742487 C21.5522847,19.9742487 22,20.4219639 22,20.9742487 L22,27.8627513 L26.2875031,27.8629599 L26.2875031,18.0173392 C26.2529534,18.0173392 26.2073878,18.0061803 26.1655895,17.998741 L26.1075655,17.9922317 C26.056492,17.9922317 25.9935443,17.9805005 25.9341731,17.9726797 L25.8497301,17.9658365 C25.7982274,17.9658365 25.7216172,17.9404071 25.6701145,17.9404071 C25.5403921,17.914012 25.4386742,17.8889044 25.3356688,17.8625093 L25.2574491,17.8374017 C24.3307224,17.6046739 23.5324306,17.0906126 22.9401496,16.368931 Z M20,21.974 L12,21.974 L12,27.8627513 L20,27.8627513 L20,21.974 Z M25.6437194,4.11161064 L6.33020741,4.11161064 L3.24068928,12.6871318 C3.24068928,12.7122394 3.21429414,12.7637421 3.21429414,12.7901372 C3.13768388,13.0466851 3.11128875,13.2530177 3.11128875,13.4593504 C3.11128875,14.6123364 3.9060186,15.5545234 4.96048644,15.819879 L5.12053777,15.8545478 L5.19714804,15.8545478 C5.23148317,15.8712862 5.25465938,15.8768656 5.27373446,15.8787255 L5.30015344,15.8796554 C5.37837316,15.8796554 5.48137856,15.9060505 5.55798882,15.9060505 C5.71281881,15.9060505 5.8673269,15.8796554 6.02215689,15.8545478 C6.15026985,15.8281527 6.25327525,15.8030451 6.3817101,15.7515424 C6.40810524,15.7251473 6.40810524,15.7251473 6.4332128,15.7251473 C7.20635683,15.4116045 7.79730503,14.7133003 7.93260452,13.8418889 L7.95350808,13.6653612 L7.95350808,13.6389661 C7.97024646,13.6054893 7.97582592,13.5714403 7.97768574,13.5372006 L7.97861565,13.4857456 C7.97861565,12.8934645 8.44246183,12.4292965 9.03474286,12.4292965 C9.58753849,12.4292965 10.0273315,12.8336384 10.0835137,13.3690971 L10.0895825,13.4857456 L10.0895825,13.6653612 C10.1674803,14.5920879 10.7848689,15.3907016 11.6098778,15.7251473 C11.6349854,15.7515424 11.6349854,15.7515424 11.6613805,15.7515424 L12.0473288,15.8545478 C12.2021588,15.8796554 12.3566669,15.9060505 12.5114969,15.9060505 C12.6647174,15.9060505 12.8195474,15.8796554 12.9740555,15.8545478 C13.1037779,15.8281527 13.2318909,15.8030451 13.3600039,15.7515424 C13.386399,15.7251473 13.386399,15.7251473 13.4118285,15.7251473 C14.1849725,15.4116045 14.7759207,14.7133003 14.9109549,13.8418889 L14.9318018,13.6653612 L14.9318018,13.6389661 C14.9485402,13.6054893 14.9541197,13.5714403 14.9559795,13.5372006 L14.9569094,13.4857456 C14.9569094,12.8934645 15.4210775,12.4292965 16.0133585,12.4292965 C16.6053177,12.4292965 17.0694857,12.8934645 17.0694857,13.4857456 C17.0694857,13.5200807 17.0806446,13.5426846 17.0880839,13.569199 L17.0945933,13.6138585 L17.0945933,13.6653612 C17.1712036,14.5920879 17.7898797,15.3907016 18.613601,15.7251473 C18.6399961,15.7515424 18.6399961,15.7515424 18.6651037,15.7515424 L18.8983442,15.821691 C18.940357,15.8341613 18.9832402,15.8457494 19.0259445,15.8545478 C19.1804526,15.8796554 19.3352826,15.9060505 19.4897907,15.9060505 C19.6446207,15.9060505 19.7978412,15.8796554 19.9526712,15.8545478 C20.0820717,15.8281527 20.2105066,15.8030451 20.3386195,15.7515424 C20.3650146,15.7251473 20.3650146,15.7251473 20.3901222,15.7251473 C21.163568,15.4116045 21.7545351,14.7133003 21.8895705,13.8418889 L21.9104175,13.6653612 L21.9104175,13.6389661 C21.9271559,13.6054893 21.9327353,13.5714403 21.9345951,13.5372006 L21.9355251,13.4857456 C21.9355251,12.8934645 22.3993712,12.4292965 22.9916523,12.4292965 C23.5444479,12.4292965 23.9856429,12.8336384 24.042012,13.3690971 L24.0481014,13.4857456 L24.0481014,13.6653612 C24.1247116,14.5920879 24.7433878,15.3907016 25.5667872,15.7251473 C25.5918948,15.7515424 25.5918948,15.7515424 25.6182899,15.7515424 L25.851125,15.821691 C25.8931498,15.8341613 25.9362118,15.8457494 25.9794526,15.8545478 C26.1326731,15.8796554 26.2875031,15.9060505 26.4420112,15.9060505 C26.5450166,15.9060505 26.674739,15.9060505 26.7764568,15.8796554 L26.9905268,15.8284865 C27.0288201,15.8199265 27.0690565,15.8114143 27.11219,15.8030451 C28.115527,15.493707 28.862638,14.5669803 28.862638,13.4857456 C28.862638,13.3206794 28.8463632,13.1556133 28.7999695,12.9643425 L28.7593107,12.8155667 C28.7593107,12.7986137 28.7481518,12.7700726 28.7407125,12.7451081 L28.7342032,12.7122394 L28.6827005,12.5577313 L28.6761911,12.526627 L28.6575929,12.4807992 L25.6437194,4.11161064 Z" id="Shape" fill="#3B3B3B"></path>
            </g>
        </g>
    </g>
</svg>