<?xml version="1.0" encoding="UTF-8"?>
<svg width="32px" height="32px" viewBox="0 0 32 32" version="1.1" xmlns="http://www.w3.org/2000/svg" xmlns:xlink="http://www.w3.org/1999/xlink">
    <!-- Generator: Sketch 63.1 (92452) - https://sketch.com -->
    <title>Icons / Social / Google</title>
    <desc>Created with Sketch.</desc>
    <g id="Icons-/-Social-/-Google" stroke="none" stroke-width="1" fill="none" fill-rule="evenodd">
        <g id="Group">
            <polygon id="Shape" points="0 0 32 0 32 32 0 32"></polygon>
            <path d="M16.3125,18.75 L16.3125,14.0625 L28.875,14.0625 C29.0000006,14.5625025 29.0625,15.312495 29.0625,16.3125 C29.0625,20.1875194 27.8854284,23.3229047 25.53125,25.71875 C23.1770716,28.1145953 20.0833525,29.3125 16.25,29.3125 C12.583315,29.3125 9.44792969,28.0208333 6.84375,25.4375 C4.23957031,22.8541537 2.9375,19.7083519 2.9375,16 C2.9375,12.2916481 4.22915375,9.14584625 6.8125,6.5625 C9.39584625,3.97915375 12.5416481,2.6875 16.25,2.6875 C19.8750181,2.6875 22.8749881,3.87498812 25.25,6.25 L21.6875,9.75 C20.3124931,8.37499312 18.5208444,7.6875 16.3125,7.6875 C14.0624887,7.6875 12.1354247,8.51040844 10.53125,10.15625 C8.92707531,11.8020916 8.125,13.7812384 8.125,16.09375 C8.125,18.4062616 8.92707531,20.3749919 10.53125,22 C12.1354247,23.6250081 14.0624887,24.4375 16.3125,24.4375 C17.6041667,24.4375 18.749995,24.2395853 19.75,23.84375 C20.750005,23.4479147 21.5312472,22.9375031 22.09375,22.3125 C22.6562528,21.6875 23.0833319,21.0729197 23.375,20.46875 C23.6666681,19.8645803 23.8749994,19.2916694 24,18.75 L16.3125,18.75 Z" id="ïŽ" fill="#FA2398"></path>
        </g>
    </g>
</svg>