<?xml version="1.0" encoding="UTF-8"?>
<svg width="32px" height="32px" viewBox="0 0 32 32" version="1.1" xmlns="http://www.w3.org/2000/svg" xmlns:xlink="http://www.w3.org/1999/xlink">
    <!-- Generator: Sketch 63.1 (92452) - https://sketch.com -->
    <title>Icons / Social / Google-plus</title>
    <desc>Created with Sketch.</desc>
    <g id="Icons-/-Social-/-Google-plus" stroke="none" stroke-width="1" fill="none" fill-rule="evenodd">
        <g id="Group">
            <polygon id="Shape" points="0 0 32 0 32 32 0 32"></polygon>
            <path d="M10.6222168,25.3436295 C5.30823116,25.3436295 1,20.9841844 1,15.6643116 C1,10.3444382 5.30823116,6 10.6222168,6 C13.1140855,6 15.3882913,6.94542197 17.0920688,8.49861445 C15.0805607,10.4044647 15.148111,10.5095116 14.3525145,11.3048665 C13.3692769,10.4794983 12.2884665,9.8867341 10.6222168,9.8867341 C7.46234676,9.8867341 5.00050035,12.4528786 5.00050035,15.6117879 C5.00050035,18.7706971 7.46234676,21.4118751 10.6222168,21.4118751 C13.7370526,21.4118751 15.005504,19.9112058 15.8236179,17.6602017 L10.7348012,17.6602017 L10.7348012,13.9085283 L19.8616462,13.9085283 C20.4996249,18.4105364 18.5631723,25.3436295 10.6222168,25.3436295 Z M31,16.1595324 L27.9977486,16.1595324 L27.9977486,19.9112058 L25.7460595,19.9112058 L25.7460595,16.1595324 L21.9932451,16.1595324 L21.9932451,13.9085283 L25.7460595,13.9085283 L25.7460595,10.907189 L27.9977486,10.907189 L27.9977486,13.9085283 L31,13.9085283 L31,16.1595324 Z" id="Combined-Shape" fill="#FA2398"></path>
        </g>
    </g>
</svg>