<?xml version="1.0" encoding="UTF-8"?>
<svg width="32px" height="32px" viewBox="0 0 32 32" version="1.1" xmlns="http://www.w3.org/2000/svg" xmlns:xlink="http://www.w3.org/1999/xlink">
    <!-- Generator: Sketch 63.1 (92452) - https://sketch.com -->
    <title>Icons / Social / Instagram</title>
    <desc>Created with Sketch.</desc>
    <g id="Icons-/-Social-/-Instagram" stroke="none" stroke-width="1" fill="none" fill-rule="evenodd">
        <g id="Group">
            <polygon id="Shape" points="0 0 32 0 32 32 0 32"></polygon>
            <path d="M20.8502415,4 L11.1495947,4 C7.20726114,4 4,7.20726114 4,11.1495947 L4,20.8502415 C4,24.7924113 7.20726114,27.9999181 11.1496766,27.9999181 L20.8503234,27.9999181 C24.7924932,27.9999181 28,24.7925751 28,20.8502415 L28,11.1495947 C28,7.20726114 24.7925751,4 20.8502415,4 Z M25.5855459,20.8503234 C25.5855459,23.4654975 23.4654975,25.5855459 20.8503234,25.5855459 L11.1496766,25.5855459 C8.53450251,25.5855459 6.41445414,23.4654975 6.41445414,20.8503234 L6.41445414,11.1496766 C6.41445414,8.53450251 8.53450251,6.41437224 11.1496766,6.41437224 L20.8503234,6.41437224 C23.4654975,6.41437224 25.5855459,8.53458441 25.5855459,11.1496766 L25.5855459,20.8503234 Z M15.9999591,9.79262616 C12.5773191,9.79262616 9.79262616,12.5773191 9.79262616,15.9999591 C9.79262616,19.4223534 12.5773191,22.2070463 15.9999591,22.2070463 C19.4225991,22.2070463 22.2070463,19.4225991 22.2070463,15.9999591 C22.2070463,12.5773191 19.4225991,9.79262616 15.9999591,9.79262616 Z M15.9999591,19.792674 C13.9052155,19.792674 12.2069985,18.0947845 12.2069985,15.9999591 C12.2069985,13.9051337 13.9052155,12.2069985 15.9999591,12.2069985 C18.0947026,12.2069985 19.792674,13.9050518 19.792674,15.9999591 C19.792674,18.0947026 18.0947026,19.792674 15.9999591,19.792674 Z M23.706345,9.83946907 C23.706345,9.01783559 23.0405542,8.35204487 22.2189208,8.35204487 C21.397533,8.35204487 20.7314965,9.01799939 20.7314965,9.83946907 C20.7314965,10.6608567 21.397533,11.3268934 22.2189208,11.3268934 C23.0403905,11.3268934 23.706345,10.6608567 23.706345,9.83946907 Z" id="Combined-Shape" fill="#FA2398"></path>
        </g>
    </g>
</svg>