<?xml version="1.0" encoding="UTF-8"?>
<svg width="32px" height="32px" viewBox="0 0 32 32" version="1.1" xmlns="http://www.w3.org/2000/svg" xmlns:xlink="http://www.w3.org/1999/xlink">
    <!-- Generator: Sketch 63.1 (92452) - https://sketch.com -->
    <title>Icons / Social / Linkedin</title>
    <desc>Created with Sketch.</desc>
    <g id="Icons-/-Social-/-Linkedin" stroke="none" stroke-width="1" fill="none" fill-rule="evenodd">
        <g id="Group">
            <polygon id="Shape" points="0 0 32 0 32 32 0 32"></polygon>
            <path d="M23.09375,18.375 C23.09375,17.4583287 22.927085,16.7812522 22.59375,16.34375 C22.260415,15.9062478 21.6354212,15.6875 20.71875,15.6875 C19.5937444,15.6875 18.8020856,16.02083 18.34375,16.6875 C17.8854144,17.35417 17.65625,18.2916606 17.65625,19.5 L17.65625,28.625 C17.65625,28.8333344 17.5937506,28.9999994 17.46875,29.125 C17.3437494,29.2500006 17.1770844,29.3125 16.96875,29.3125 L12.21875,29.3125 C12.0520825,29.3125 11.8958341,29.2500006 11.75,29.125 C11.6041659,28.9999994 11.53125,28.8333344 11.53125,28.625 L11.53125,11.75 C11.53125,11.5833325 11.6041659,11.4270841 11.75,11.28125 C11.8958341,11.1354159 12.0520825,11.0625 12.21875,11.0625 L16.84375,11.0625 C17.0104175,11.0625 17.1458328,11.1041663 17.25,11.1875 C17.3541672,11.2708337 17.4270831,11.3958325 17.46875,11.5625 L17.46875,11.875 C17.5104169,11.9583333 17.53125,12.1041656 17.53125,12.3125 C18.6979225,11.1874944 20.28124,10.625 22.28125,10.625 C24.4895944,10.625 26.2187438,11.1874944 27.46875,12.3125 C28.7187562,13.4375056 29.34375,15.0833225 29.34375,17.25 L29.34375,28.625 C29.34375,28.8333344 29.2708341,28.9999994 29.125,29.125 C28.9791659,29.2500006 28.8229175,29.3125 28.65625,29.3125 L23.78125,29.3125 C23.6145825,29.3125 23.4583341,29.2500006 23.3125,29.125 C23.1666659,28.9999994 23.09375,28.8333344 23.09375,28.625 L23.09375,18.375 Z M9.09375,5.9375 C9.09375,6.81250437 8.78125312,7.57291344 8.15625,8.21875 C7.53124687,8.86458656 6.77083781,9.1875 5.875,9.1875 C4.97916219,9.1875 4.21875313,8.86458656 3.59375,8.21875 C2.96874687,7.57291344 2.65625,6.80208781 2.65625,5.90625 C2.65625,5.01041219 2.96874687,4.25000313 3.59375,3.625 C4.21875313,2.99999687 4.97916219,2.6875 5.875,2.6875 C6.77083781,2.6875 7.53124687,2.99999687 8.15625,3.625 C8.78125312,4.25000313 9.09375,5.02082875 9.09375,5.9375 Z M8.96875,11.75 L8.96875,28.625 C8.96875,28.8333344 8.89583406,28.9999994 8.75,29.125 C8.60416594,29.2500006 8.4479175,29.3125 8.28125,29.3125 L3.53125,29.3125 C3.32291563,29.3125 3.15625062,29.2500006 3.03125,29.125 C2.90624938,28.9999994 2.84375,28.8333344 2.84375,28.625 L2.84375,11.75 C2.84375,11.5833325 2.90624938,11.4270841 3.03125,11.28125 C3.15625062,11.1354159 3.32291563,11.0625 3.53125,11.0625 L8.28125,11.0625 C8.4479175,11.0625 8.60416594,11.1354159 8.75,11.28125 C8.89583406,11.4270841 8.96875,11.5833325 8.96875,11.75 Z" id="linkedin" fill="#FA2398"></path>
        </g>
    </g>
</svg>