<?xml version="1.0" encoding="UTF-8"?>
<svg width="32px" height="32px" viewBox="0 0 32 32" version="1.1" xmlns="http://www.w3.org/2000/svg" xmlns:xlink="http://www.w3.org/1999/xlink">
    <!-- Generator: Sketch 63.1 (92452) - https://sketch.com -->
    <title>Icons / Social / Pinterest</title>
    <desc>Created with Sketch.</desc>
    <g id="Icons-/-Social-/-Pinterest" stroke="none" stroke-width="1" fill="none" fill-rule="evenodd">
        <g id="Group">
            <polygon id="Shape" points="0 0 32 0 32 32 0 32"></polygon>
            <path d="M11.53125,12.875 C11.53125,11.7499944 11.8229138,10.7916706 12.40625,10 C12.9895863,9.20832937 13.6979125,8.8125 14.53125,8.8125 C15.2395869,8.8125 15.7708316,9.04166437 16.125,9.5 C16.4791684,9.95833562 16.65625,10.52083 16.65625,11.1875 C16.65625,11.6041687 16.5937506,12.1249969 16.46875,12.75 C16.3020825,13.3333362 16.0937513,14.0416625 15.84375,14.875 C15.5937488,15.6666706 15.4062506,16.3124975 15.28125,16.8125 C15.0729156,17.6458375 15.2291641,18.3645803 15.75,18.96875 C16.2708359,19.5729197 16.9479125,19.875 17.78125,19.875 C19.2395906,19.875 20.4374953,19.0520916 21.375,17.40625 C22.3125047,15.7604084 22.78125,13.770845 22.78125,11.4375 C22.78125,9.64582438 22.2083391,8.1875 21.0625,7.0625 C19.9166609,5.93749437 18.3020938,5.375 16.21875,5.375 C13.885405,5.375 12.0000072,6.11457594 10.5625,7.59375 C9.12499281,9.07292406 8.40625,10.8541562 8.40625,12.9375 C8.40625,14.1458394 8.76041313,15.1875 9.46875,16.0625 C9.71875125,16.3125013 9.80208375,16.604165 9.71875,16.9375 C9.63541625,17.1458344 9.53125063,17.5624969 9.40625,18.1875 C9.32291625,18.3958344 9.20833406,18.5312497 9.0625,18.59375 C8.91666594,18.6562503 8.7604175,18.6666669 8.59375,18.625 C7.51041125,18.1666644 6.69791938,17.3958388 6.15625,16.3125 C5.61458062,15.2291612 5.34375,13.9791738 5.34375,12.5625 C5.34375,11.6458287 5.48958187,10.7291712 5.78125,9.8125 C6.07291813,8.89582875 6.53124687,8.01042094 7.15625,7.15625 C7.78125312,6.30207906 8.53124562,5.54167 9.40625,4.875 C10.2812544,4.20833 11.34375,3.67708531 12.59375,3.28125 C13.84375,2.88541469 15.1979094,2.6875 16.65625,2.6875 C18.1145906,2.6875 19.4791603,2.9374975 20.75,3.4375 C22.0208397,3.9375025 23.0833291,4.6041625 23.9375,5.4375 C24.7916709,6.2708375 25.4583309,7.23957781 25.9375,8.34375 C26.4166691,9.44792219 26.65625,10.5833275 26.65625,11.75 C26.65625,14.8750156 25.8645913,17.4583231 24.28125,19.5 C22.6979088,21.5416769 20.6562625,22.5625 18.15625,22.5625 C17.3229125,22.5625 16.5416703,22.3750019 15.8125,22 C15.0833297,21.6249981 14.5729181,21.1666694 14.28125,20.625 C13.6562469,23.0416787 13.2812506,24.4791644 13.15625,24.9375 C12.822915,26.1875 12.0729225,27.645825 10.90625,29.3125 L9.84375,29.3125 C9.59374875,27.1874894 9.635415,25.4375069 9.96875,24.0625 L12.03125,15.4375 C11.697915,14.7291631 11.53125,13.875005 11.53125,12.875 Z" id="pinterest" fill="#FA2398"></path>
        </g>
    </g>
</svg>