<?xml version="1.0" encoding="UTF-8"?>
<svg width="32px" height="32px" viewBox="0 0 32 32" version="1.1" xmlns="http://www.w3.org/2000/svg" xmlns:xlink="http://www.w3.org/1999/xlink">
    <!-- Generator: Sketch 63.1 (92452) - https://sketch.com -->
    <title>Icons / Social / Twitter</title>
    <desc>Created with Sketch.</desc>
    <g id="Icons-/-Social-/-Twitter" stroke="none" stroke-width="1" fill="none" fill-rule="evenodd">
        <g id="Group">
            <polygon id="Shape" points="0 0 32 0 32 32 0 32"></polygon>
            <path d="M26.59375,10.5625 L26.59375,11.25 C26.59375,13.1250094 26.2500034,14.9687409 25.5625,16.78125 C24.8749966,18.5937591 23.8958397,20.2499925 22.625,21.75 C21.3541603,23.2500075 19.7083434,24.4687453 17.6875,25.40625 C15.6666566,26.3437547 13.4479288,26.8125 11.03125,26.8125 C7.98956813,26.8125 5.19792937,26.0000081 2.65625,24.375 C3.07291875,24.4166669 3.51041437,24.4375 3.96875,24.4375 C6.51042937,24.4375 8.78124,23.6666744 10.78125,22.125 C9.57291063,22.0833331 8.50000469,21.7083369 7.5625,21 C6.62499531,20.2916631 5.98958333,19.3958388 5.65625,18.3125 C5.98958333,18.3958338 6.322915,18.4375 6.65625,18.4375 C7.15625,18.4375 7.63541437,18.3541675 8.09375,18.1875 C6.84374375,17.9374987 5.8020875,17.312505 4.96875,16.3125 C4.1354125,15.312495 3.71875,14.1666731 3.71875,12.875 L3.71875,12.8125 C4.51042063,13.2291687 5.34374563,13.4583331 6.21875,13.5 C4.59374188,12.3749944 3.78125,10.8541763 3.78125,8.9375 C3.78125,7.937495 4.0312475,7.0208375 4.53125,6.1875 C5.90625688,7.85416667 7.56249031,9.1875 9.5,10.1875 C11.4375097,11.1875 13.5312387,11.7499994 15.78125,11.875 C15.6979163,11.4583313 15.65625,11.0416687 15.65625,10.625 C15.65625,9.1249925 16.1874947,7.84375531 17.25,6.78125 C18.3125053,5.71874469 19.5937425,5.1875 21.09375,5.1875 C22.6770913,5.1875 24.0104112,5.74999437 25.09375,6.875 C26.3437563,6.62499875 27.5104113,6.1875 28.59375,5.5625 C28.1770813,6.85417312 27.3645894,7.85416667 26.15625,8.5625 C27.2812556,8.43749937 28.343745,8.16666875 29.34375,7.75 C28.5937462,8.83333875 27.6770887,9.77082938 26.59375,10.5625 Z" id="twitter" fill="#FA2398"></path>
        </g>
    </g>
</svg>