<?xml version="1.0" encoding="UTF-8"?>
<svg width="32px" height="32px" viewBox="0 0 32 32" version="1.1" xmlns="http://www.w3.org/2000/svg" xmlns:xlink="http://www.w3.org/1999/xlink">
    <!-- Generator: Sketch 63.1 (92452) - https://sketch.com -->
    <title>Icons / Social / Whatsapp</title>
    <desc>Created with Sketch.</desc>
    <g id="Icons-/-Social-/-Whatsapp" stroke="none" stroke-width="1" fill="none" fill-rule="evenodd">
        <g id="Group">
            <polygon id="Shape" points="0 -5.32907052e-15 32 -5.32907052e-15 32 32 0 32"></polygon>
            <path d="M29.3333333,15.6565929 C29.3333333,22.8308148 23.4728887,28.6465185 16.24237,28.6465185 C13.9469629,28.6465185 11.7905186,28.0598522 9.91436988,27.0302225 L2.66666667,29.3333333 L5.02962918,22.3638519 C3.8376296,20.4065188 3.15111073,18.1108151 3.15111073,15.6565929 C3.15111073,8.48237032 9.01214791,2.66666667 16.24237,2.66666667 C23.4734813,2.66666667 29.3333333,8.48237032 29.3333333,15.6565929 Z M16.24237,4.73540746 C10.1730368,4.73540746 5.2361481,9.63466696 5.2361481,15.6565929 C5.2361481,18.0462227 6.01511115,20.2592597 7.33274066,22.0595555 L5.95762918,26.1155555 L10.187259,24.7712594 C11.9250368,25.9122968 14.0068146,26.5777777 16.2426666,26.5777777 C22.3111113,26.5777777 27.2488886,21.6791114 27.2488886,15.6571855 C27.2488886,9.63525955 22.3114073,4.73540746 16.24237,4.73540746 Z M22.8530367,18.6482963 C22.7721483,18.515852 22.5585183,18.4358522 22.237926,18.2767412 C21.9167404,18.1176295 20.3386669,17.3469628 20.045333,17.2411856 C19.7511113,17.1351112 19.5365928,17.081778 19.3229627,17.4002966 C19.1093334,17.7191112 18.4942221,18.4358522 18.3066667,18.6482963 C18.1194073,18.8613338 17.9324446,18.8880004 17.611259,18.7285927 C17.2906666,18.5694818 16.2568888,18.2328888 15.0311109,17.1484448 C14.0773329,16.3045927 13.4331852,15.2628146 13.2459258,14.9437041 C13.0589631,14.6251855 13.2263703,14.4530368 13.3866665,14.2945184 C13.5312594,14.151704 13.7078514,13.9226666 13.8681483,13.7368891 C14.029037,13.5508149 14.0823702,13.4183705 14.1887406,13.2056297 C14.2962962,12.9931855 14.2426664,12.8074073 14.162074,12.6477037 C14.0820736,12.4885927 13.4397037,10.9217777 13.1724446,10.2841479 C12.9051848,9.64711137 12.6382222,9.75318515 12.4506662,9.75318515 C12.2637035,9.75318515 12.0494815,9.72651855 11.8355555,9.72651855 C11.6216296,9.72651855 11.2737774,9.80622236 10.9795557,10.124741 C10.6856292,10.4435555 9.85688856,11.2139257 9.85688856,12.7804447 C9.85688856,14.3472597 11.0062222,15.8610374 11.167111,16.073185 C11.3274072,16.2853332 13.3863699,19.6050373 16.6485927,20.8800003 C19.9111109,22.1543707 19.9111109,21.729185 20.4995556,21.6758519 C21.0874071,21.6228147 22.3976296,20.9057777 22.6660739,20.1626667 C22.9327405,19.4183705 22.9327405,18.7810374 22.8530367,18.6482963 L22.8530367,18.6482963 Z" id="whatsapp" fill="#FA2398"></path>
        </g>
    </g>
</svg>