<?xml version="1.0" encoding="UTF-8"?>
<svg width="32px" height="32px" viewBox="0 0 32 32" version="1.1" xmlns="http://www.w3.org/2000/svg" xmlns:xlink="http://www.w3.org/1999/xlink">
    <!-- Generator: Sketch 63.1 (92452) - https://sketch.com -->
    <title>Icons / Social / Youtube</title>
    <desc>Created with Sketch.</desc>
    <g id="Icons-/-Social-/-Youtube" stroke="none" stroke-width="1" fill="none" fill-rule="evenodd">
        <g id="Group">
            <polygon id="Shape" points="0 0 32 0 32 32 0 32"></polygon>
        </g>
        <path d="M29.5161587,9.27573444 C30.0040452,11.4884431 30,13.9038156 30,16.1819687 C30,18.4598196 29.9982643,20.8748907 29.5100889,23.0876001 C29.1672967,24.6413521 27.9490259,25.7876664 26.4836325,25.9586634 C23.0120661,26.3633867 19.498301,26.3654974 15.9989877,26.3633867 C12.5002522,26.3654974 8.98562043,26.3633867 5.51376514,25.9586634 C4.04750446,25.7873643 2.83010024,24.6410499 2.48788649,23.0876001 C2,20.8751921 2,18.4601211 2,16.1819687 C2,13.9038156 2.00549132,11.4884431 2.4933778,9.27573444 C2.83617,7.72198249 4.05328464,6.57566816 5.51867872,6.40467048 C8.99082288,6.00024923 12.5057442,5.99813783 16.004479,6.00024923 C19.5026368,5.99813783 23.0169797,6.00024923 26.4891239,6.40467048 C27.9553845,6.57566816 29.1733665,7.72198249 29.5161587,9.27573444 Z M12.3866628,20.71656 C15.3619607,19.1067136 18.3112456,17.5116449 21.288278,15.900592 C18.3019968,14.2750636 15.354157,12.6703443 12.3866628,11.0547679 L12.3866628,20.71656 Z" id="youtube" fill="#FA2398"></path>
    </g>
</svg>