<?xml version="1.0" encoding="UTF-8"?>
<svg width="32px" height="32px" viewBox="0 0 32 32" version="1.1" xmlns="http://www.w3.org/2000/svg" xmlns:xlink="http://www.w3.org/1999/xlink">
    <!-- Generator: Sketch 63.1 (92452) - https://sketch.com -->
    <title>Icons / Alert-notification</title>
    <desc>Created with Sketch.</desc>
    <g id="Icons-/-Alert-notification" stroke="none" stroke-width="1" fill="none" fill-rule="evenodd">
        <g id="Group">
            <rect id="Rectangle" x="0" y="0" width="32" height="32"></rect>
            <path d="M16.1165425,3.11211089 C17.8047262,3.11211089 19.1775843,4.48723245 19.1775843,6.17779309 L19.1775843,7.72919542 C21.720404,8.94444459 23.3879941,11.5182975 23.3989669,14.3839542 L23.4026935,14.8784878 C23.4390246,17.6037551 23.8055974,20.0217642 24.6198067,21.7449375 C25.0296576,22.6123744 25.4371813,23.0813234 25.6921281,23.2498475 C26.1096042,23.4429845 26.3237183,23.8922262 26.2271872,24.3474529 C26.1305443,24.8027179 25.7111695,25.1242665 25.2400618,25.1242665 L20.0513446,25.1242665 C19.8943369,27.2282278 18.13577,28.8878891 16.0000864,28.8878891 C13.8644027,28.8878891 12.1058358,27.2282278 11.9488281,25.1242665 L6.76011095,25.1242665 C6.28896925,25.1242665 5.86963127,24.8027312 5.77298865,24.3474677 C5.67634093,23.8923159 5.89046325,23.4430762 6.27680494,23.2670749 C6.56309496,23.0811575 6.97049717,22.6123483 7.38031751,21.7449356 C8.23976154,19.9259874 8.60044743,17.3329226 8.60044743,14.421498 C8.60044743,11.536321 10.2703058,8.94867998 12.8225391,7.72908815 L12.8225391,6.17779309 C12.8225391,4.48723245 14.1953971,3.11211089 15.8835808,3.11211089 L16.1165425,3.11211089 Z M18.0595801,25.1243159 L13.9405524,25.1243159 C14.089012,26.131537 14.9577276,26.9044675 16.0000864,26.9044675 C16.987573,26.9044675 17.8192294,26.2107304 18.0302384,25.281321 L18.0595801,25.1243159 Z M15.9998395,8.99382761 C13.0124813,8.99382761 10.5814994,11.4287995 10.5814994,14.421498 C10.5814994,17.9999838 10.0715918,20.8254931 9.05874231,22.8227271 L8.97460159,22.9844711 L8.88906234,23.1407955 L23.1111135,23.1407955 L23.0255389,22.9844209 L22.9414214,22.8227093 C21.977325,20.921687 21.4689038,18.270019 21.4222387,14.9366168 L21.4187142,14.4557862 L21.413869,14.2058602 C21.2992815,11.3118167 18.9146911,8.99382761 15.9998395,8.99382761 Z M16.1165919,5.09553249 L15.8836302,5.09553249 C15.328081,5.09553249 14.8687229,5.51855733 14.8099443,6.06004725 L14.8035911,6.17778305 L14.8036284,7.1072871 C15.1967452,7.04298803 15.5963908,7.01040601 15.9998889,7.01040601 C16.3026267,7.01040601 16.6031973,7.02875383 16.9004825,7.06508528 L17.196631,7.10739755 L17.196631,6.17779309 C17.196631,5.6209241 16.7743095,5.16077466 16.2340549,5.10189637 L16.1165919,5.09553249 Z" id="Shape" fill="#FA2398"></path>
        </g>
    </g>
</svg>