<?xml version="1.0" encoding="UTF-8"?>
<svg width="32px" height="32px" viewBox="0 0 32 32" version="1.1" xmlns="http://www.w3.org/2000/svg" xmlns:xlink="http://www.w3.org/1999/xlink">
    <!-- Generator: Sketch 63.1 (92452) - https://sketch.com -->
    <title>Icons / best_price</title>
    <desc>Created with Sketch.</desc>
    <g id="Icons-/-best_price" stroke="none" stroke-width="1" fill="none" fill-rule="evenodd">
        <g id="Group">
            <rect id="Rectangle" x="0" y="0" width="32" height="32"></rect>
            <path d="M16.22,3.44038 C16.7722847,3.44038 17.22,3.88809525 17.22,4.44038 C17.22,4.99266475 16.7722847,5.44038 16.22,5.44038 C10.2665803,5.44038 5.44038,10.2665803 5.44038,16.22 C5.44038,22.1734197 10.2665803,26.99962 16.22,26.99962 C22.1734197,26.99962 26.99962,22.1734197 26.99962,16.22 C26.99962,15.6677153 27.4473353,15.22 27.99962,15.22 C28.5519047,15.22 28.99962,15.6677153 28.99962,16.22 C28.99962,23.2779892 23.2779892,28.99962 16.22,28.99962 C9.16201077,28.99962 3.44038,23.2779892 3.44038,16.22 C3.44038,9.16201077 9.16201077,3.44038 16.22,3.44038 Z M16.5443894,9.22 C18.2582484,9.22 19.5096753,9.56522121 20.3566352,10.1811921 C20.954328,10.6158777 21.2618012,11.1078349 21.3641727,11.5173207 C21.4981214,12.0531156 21.1723607,12.5960501 20.6365658,12.7299988 C20.1007709,12.8639475 19.5578364,12.5381869 19.4238877,12.0023919 C19.4300181,12.0269137 19.3765875,11.9414247 19.1802918,11.7986642 C18.7039378,11.4522249 17.8621224,11.22 16.5443894,11.22 C14.8696533,11.22 13.8027303,11.9927485 13.2887816,13.452516 L17.3143175,13.4524855 C17.8666023,13.4524855 18.3143175,13.9002007 18.3143175,14.4524855 C18.3143175,15.0047702 17.8666023,15.4524855 17.3143175,15.4524855 L17.3143175,15.4524855 L12.9372946,15.4524748 C12.9289657,15.6280128 12.9248204,15.8086949 12.9248204,15.9944612 C12.9248204,16.1802275 12.9289657,16.3609096 12.9372946,16.5364476 L17.3143175,16.5364369 C17.8666023,16.5364369 18.3143175,16.9841522 18.3143175,17.5364369 C18.3143175,18.0887217 17.8666023,18.5364369 17.3143175,18.5364369 L17.3143175,18.5364369 L13.2887816,18.5364064 C13.8027303,19.9961739 14.8696533,20.7689224 16.5443894,20.7689224 C17.8621224,20.7689224 18.7039378,20.5366975 19.1802918,20.1902582 C19.3765875,20.0474977 19.4300181,19.9620087 19.4238877,19.9865305 C19.5578364,19.4507356 20.1007709,19.1249749 20.6365658,19.2589236 C21.1723607,19.3928723 21.4981214,19.9358068 21.3641727,20.4716017 C21.2618012,20.8810875 20.954328,21.3730447 20.3566352,21.8077303 C19.5096753,22.4237012 18.2582484,22.7689224 16.5443894,22.7689224 C13.6254295,22.7689224 11.8607152,21.1515764 11.2104185,18.5368912 L10,18.5364369 C9.44771525,18.5364369 9,18.0887217 9,17.5364369 C9,16.9841522 9.44771525,16.5364369 10,16.5364369 L10,16.5364369 L10.9360547,16.5359053 C10.9285626,16.358273 10.9248204,16.1777508 10.9248204,15.9944612 C10.9248204,15.8108345 10.9285763,15.6299853 10.9360961,15.452037 L10,15.4524855 C9.44771525,15.4524855 9,15.0047702 9,14.4524855 C9,13.9002007 9.44771525,13.4524855 10,13.4524855 L10,13.4524855 L11.2104185,13.4520312 C11.8607152,10.837346 13.6254295,9.22 16.5443894,9.22 Z M28.4288202,3.08383241 C28.7668179,2.64705325 29.3948986,2.56697502 29.8316778,2.90497267 C30.2684569,3.24297032 30.3485351,3.87105102 30.0105375,4.30783018 L30.0105375,4.30783018 L25.154851,10.5826153 C24.7861314,11.0590951 24.0829062,11.1037439 23.6568856,10.6777232 L23.6568856,10.6777232 L20.7292323,7.75006999 C20.3387081,7.35954569 20.3387081,6.72638072 20.7292323,6.33585642 C21.1197566,5.94533213 21.7529216,5.94533213 22.1434459,6.33585642 L22.1434459,6.33585642 L24.2681146,8.4605251 Z" id="Combined-Shape" fill="#FA2398"></path>
        </g>
    </g>
</svg>