<?xml version="1.0" encoding="UTF-8"?>
<svg width="32px" height="32px" viewBox="0 0 32 32" version="1.1" xmlns="http://www.w3.org/2000/svg" xmlns:xlink="http://www.w3.org/1999/xlink">
    <!-- Generator: Sketch 63.1 (92452) - https://sketch.com -->
    <title>Icons / Card-Refund</title>
    <desc>Created with Sketch.</desc>
    <g id="Icons-/-Card-Refund" stroke="none" stroke-width="1" fill="none" fill-rule="evenodd">
        <g id="Group">
            <rect id="Rectangle" x="0" y="0" width="32" height="32"></rect>
            <path d="M29,6 C29.5128358,6 29.9355072,6.38604019 29.9932723,6.88337887 L30.0000458,7 L30.0000458,8.99899409 C30.0000458,9.55183907 29.5518763,10.0000085 28.9990314,10.0000085 C28.9990285,10.0000085 28.9990257,10.0000085 28.9990229,10.0000085 C28.4464449,10.0000038 27.9984957,9.55204703 27.9985004,8.99946903 C27.9985004,8.99930511 27.9985004,8.99914118 27.9985005,8.99897725 L27.999,8 L27.999,8 L3.999,8 L3.999,24 L27.999,24 L27.9985005,23.0010228 C27.9982242,22.4484495 28.4459494,22.0002764 28.9985226,22.0000001 C28.9986894,22 28.9988561,22 28.9990229,22 C29.5518725,22 30.0000458,22.4481732 30.0000458,23.0010229 L30.0000458,25 L30.0000458,25 C30.0000458,25.5128358 29.6139598,25.9355072 29.1166211,25.9932723 L29,26 L3,26 C2.48716416,26 2.06449284,25.6139598 2.00672773,25.1166211 L2,25 L2,7 C2,6.48716416 2.38604019,6.06449284 2.88337887,6.00672773 L3,6 L29,6 Z M17.0734258,11 L17.0734258,13.2477653 L19.3623344,13.2477653 L19.3623344,14.3323345 L17.057158,14.3323345 L17.057158,18.3792367 C17.057158,19.2788045 17.3406587,19.8523074 18.2236906,19.8523074 C18.4739587,19.8523074 18.7483029,19.7867257 19.009318,19.680572 L19.2019958,19.5937404 L19.4275463,20.6968109 C19.0078142,20.8734283 18.6076918,20.9852955 18.1795369,20.9993159 C16.6556832,21.0282211 15.9052726,20.1399058 15.849803,18.5707841 L15.8464773,18.3792367 L15.8464773,14.3323345 L14.3639142,14.3323345 L14.3639142,13.2477653 L15.8464773,13.2477653 L15.8464773,11.1387511 L17.0734258,11 Z M26.3025078,11.065608 C26.6313793,11.3944795 26.6566771,11.9119674 26.3784012,12.2698567 L26.3025078,12.3558026 L22.6581156,15.9994526 L26.3025078,19.6441974 C26.6313793,19.9730688 26.6566771,20.4905567 26.3784012,20.8484461 L26.3025078,20.934392 C25.9736364,21.2632634 25.4561485,21.2885612 25.0982591,21.0102854 L25.0123133,20.934392 L20.7230186,16.6450973 C20.3941472,16.3162258 20.3688494,15.7987379 20.6471252,15.4408486 L20.7230186,15.3549027 L25.0123133,11.065608 C25.3685907,10.7093307 25.9462304,10.7093307 26.3025078,11.065608 Z M31.0041078,11.065608 C31.3329793,11.3944795 31.3582771,11.9119674 31.0800012,12.2698567 L31.0041078,12.3558026 L27.3591682,15.9994526 L31.0041078,19.6441974 C31.3329793,19.9730688 31.3582771,20.4905567 31.0800012,20.8484461 L31.0041078,20.934392 C30.6752364,21.2632634 30.1577485,21.2885612 29.7998591,21.0102854 L29.7139133,20.934392 L25.4246186,16.6450973 C25.0957472,16.3162258 25.0704494,15.7987379 25.3487252,15.4408486 L25.4246186,15.3549027 L29.7139133,11.065608 C30.0701907,10.7093307 30.6478304,10.7093307 31.0041078,11.065608 Z M10.4584849,13.0465763 C12.1176537,13.0465763 13.5397982,13.8536433 13.5397982,16.8298502 L13.5397982,20.8906276 L11.3694007,20.8906276 L11.3694007,16.8437268 C11.3694007,15.6666555 10.876763,15.0607775 9.84501068,15.0607775 C8.8411443,15.0469022 8.16957586,15.9441577 8.16957586,16.9362275 L8.16957586,20.8906276 L6.0456543,20.8906276 L6.0456543,13.2315777 L7.99064612,13.2315777 L8.06500633,14.209771 C8.72263214,13.3263908 9.56151141,13.0303887 10.4584849,13.0465763 Z" id="Shape" fill="#FA2398"></path>
        </g>
    </g>
</svg>