<?xml version="1.0" encoding="UTF-8"?>
<svg width="32px" height="32px" viewBox="0 0 32 32" version="1.1" xmlns="http://www.w3.org/2000/svg" xmlns:xlink="http://www.w3.org/1999/xlink">
    <!-- Generator: Sketch 63.1 (92452) - https://sketch.com -->
    <title>Icons / categories</title>
    <desc>Created with Sketch.</desc>
    <g id="Icons-/-categories" stroke="none" stroke-width="1" fill="none" fill-rule="evenodd">
        <g id="Group">
            <rect id="Rectangle" x="0" y="0" width="32" height="32"></rect>
            <path d="M4,7 C4,6.44771525 4.44771525,6 5,6 L27,6 C27.5522847,6 28,6.44771525 28,7 C28,7.55228475 27.5522847,8 27,8 L5,8 C4.44771525,8 4,7.55228475 4,7 Z M4,13 C4,12.4477153 4.44771525,12 5,12 L27,12 C27.5522847,12 28,12.4477153 28,13 C28,13.5522847 27.5522847,14 27,14 L5,14 C4.44771525,14 4,13.5522847 4,13 Z M4,19 C4,18.4477153 4.44771525,18 5,18 L27,18 C27.5522847,18 28,18.4477153 28,19 C28,19.5522847 27.5522847,20 27,20 L5,20 C4.44771525,20 4,19.5522847 4,19 Z M4,25 C4,24.4477153 4.44771525,24 5,24 L27,24 C27.5522847,24 28,24.4477153 28,25 C28,25.5522847 27.5522847,26 27,26 L5,26 C4.44771525,26 4,25.5522847 4,25 Z" id="Shape" fill="#FA2398"></path>
        </g>
    </g>
</svg>