<?xml version="1.0" encoding="UTF-8"?>
<svg width="32px" height="32px" viewBox="0 0 32 32" version="1.1" xmlns="http://www.w3.org/2000/svg" xmlns:xlink="http://www.w3.org/1999/xlink">
    <!-- Generator: Sketch 63.1 (92452) - https://sketch.com -->
    <title>Icons / categories 2</title>
    <desc>Created with Sketch.</desc>
    <g id="Icons-/-categories-2" stroke="none" stroke-width="1" fill="none" fill-rule="evenodd">
        <g id="Group">
            <rect id="Rectangle" x="0" y="0" width="32" height="32"></rect>
            <path d="M28,21.5 C28.5522847,21.5 29,21.9477153 29,22.5 L29,27.5 C29,28.0522847 28.5522847,28.5 28,28.5 L4,28.5 C3.44771525,28.5 3,28.0522847 3,27.5 L3,22.5 C3,21.9477153 3.44771525,21.5 4,21.5 L28,21.5 Z M27,23.5 L5,23.5 L5,26.5 L27,26.5 L27,23.5 Z M28,12.5 C28.5522847,12.5 29,12.9477153 29,13.5 L29,18.5 C29,19.0522847 28.5522847,19.5 28,19.5 L4,19.5 C3.44771525,19.5 3,19.0522847 3,18.5 L3,13.5 C3,12.9477153 3.44771525,12.5 4,12.5 L28,12.5 Z M27,14.5 L5,14.5 L5,17.5 L27,17.5 L27,14.5 Z M28,3.5 C28.5522847,3.5 29,3.94771525 29,4.5 L29,9.5 C29,10.0522847 28.5522847,10.5 28,10.5 L4,10.5 C3.44771525,10.5 3,10.0522847 3,9.5 L3,4.5 C3,3.94771525 3.44771525,3.5 4,3.5 L28,3.5 Z M27,5.5 L5,5.5 L5,8.5 L27,8.5 L27,5.5 Z" id="Shape" fill="#FA2398"></path>
        </g>
    </g>
</svg>