<?xml version="1.0" encoding="UTF-8"?>
<svg width="32px" height="32px" viewBox="0 0 32 32" version="1.1" xmlns="http://www.w3.org/2000/svg" xmlns:xlink="http://www.w3.org/1999/xlink">
    <!-- Generator: Sketch 63.1 (92452) - https://sketch.com -->
    <title>Icons / Chat</title>
    <desc>Created with Sketch.</desc>
    <g id="Icons-/-Chat" stroke="none" stroke-width="1" fill="none" fill-rule="evenodd">
        <g id="Group">
            <rect id="Rectangle" x="0" y="0" width="32" height="32"></rect>
            <path d="M5.22,4.5 L26.78,4.5 C27.8343618,4.5 28.6981651,5.31587779 28.7745143,6.35073766 L28.78,6.5 L28.78,21.46 C28.78,22.5143618 27.9641222,23.3781651 26.9292623,23.4545143 L26.78,23.46 L16.427193,23.46 L12.2637934,27.8112221 C11.9808268,28.1069542 11.5893014,28.2742112 11.18,28.2742112 C10.4003039,28.2742112 9.75955132,27.6793231 9.68686658,26.9186712 L9.68,26.7742112 L9.68,23.46 L5.22,23.46 C4.1656382,23.46 3.30183488,22.6441222 3.22548574,21.6092623 L3.22,21.46 L3.22,6.5 C3.22,5.4456382 4.03587779,4.58183488 5.07073766,4.50548574 L5.22,4.5 L26.78,4.5 L5.22,4.5 Z M26.78,6.5 L5.22,6.5 L5.22,21.46 L11.68,21.46 L11.68,25.5284223 L15.572807,21.46 L26.78,21.46 L26.78,6.5 Z M9.5797168,17.125459 L22.4202832,17.125459 C22.972568,17.125459 23.4202832,17.5731742 23.4202832,18.125459 C23.4202832,18.6382948 23.034243,19.0609661 22.5369043,19.1187313 L22.4202832,19.125459 L9.5797168,19.125459 C9.02743205,19.125459 8.5797168,18.6777437 8.5797168,18.125459 C8.5797168,17.6126231 8.96575699,17.1899518 9.46309567,17.1321867 L9.5797168,17.125459 Z M22.4202832,12.9565332 C22.972568,12.9565332 23.4202832,13.4042485 23.4202832,13.9565332 C23.4202832,14.469369 23.034243,14.8920404 22.5369043,14.9498055 L22.4202832,14.9565332 L9.5797168,14.9565332 C9.02743205,14.9565332 8.5797168,14.508818 8.5797168,13.9565332 C8.5797168,13.4436974 8.96575699,13.021026 9.46309567,12.9632609 L9.5797168,12.9565332 L22.4202832,12.9565332 Z M22.4202832,8.78760742 C22.972568,8.78760742 23.4202832,9.23532267 23.4202832,9.78760742 C23.4202832,10.3004433 23.034243,10.7231146 22.5369043,10.7808797 L22.4202832,10.7876074 L9.5797168,10.7876074 C9.02743205,10.7876074 8.5797168,10.3398922 8.5797168,9.78760742 C8.5797168,9.27477158 8.96575699,8.85210026 9.46309567,8.79433515 L9.5797168,8.78760742 L22.4202832,8.78760742 Z" id="Shape" fill="#FA2398"></path>
        </g>
    </g>
</svg>