<?xml version="1.0" encoding="UTF-8"?>
<svg width="32px" height="32px" viewBox="0 0 32 32" version="1.1" xmlns="http://www.w3.org/2000/svg" xmlns:xlink="http://www.w3.org/1999/xlink">
    <!-- Generator: Sketch 63.1 (92452) - https://sketch.com -->
    <title>Icons / close-2</title>
    <desc>Created with Sketch.</desc>
    <g id="Icons-/-close-2" stroke="none" stroke-width="1" fill="none" fill-rule="evenodd">
        <rect id="Rectangle" x="0" y="0" width="32" height="32"></rect>
        <path d="M21.6486695,8.88925831 C22.0377265,8.49727228 22.6708871,8.49489789 23.0628731,8.88395495 C23.4548591,9.27301201 23.4572335,9.90617254 23.0681765,10.2981586 L23.0681765,10.2981586 L17.4134629,15.9937084 L23.1109873,21.648915 C23.4728205,22.0080447 23.5026769,22.5751678 23.1991252,22.9686 L23.1162904,23.0631187 C22.7272333,23.4551046 22.0940728,23.4574789 21.7020868,23.0684218 L21.7020868,23.0684218 L16.0044629,17.4137084 L10.3513305,23.1107417 C9.99220094,23.4725749 9.42507786,23.5024314 9.03164555,23.1988798 L8.93712691,23.1160451 C8.54514088,22.726988 8.54276649,22.0938275 8.93182355,21.7018414 L8.93182355,21.7018414 L14.5854629,16.0047084 L8.88901273,10.351085 C8.52717952,9.9919553 8.49732312,9.42483222 8.80087482,9.03139996 L8.88370957,8.93688133 C9.27276669,8.54489536 9.90592722,8.54252105 10.2979132,8.93157817 L10.2979132,8.93157817 L15.9944629,14.5857084 Z" id="Combined-Shape" fill="#FA2398"></path>
    </g>
</svg>