<?xml version="1.0" encoding="UTF-8"?>
<svg width="32px" height="32px" viewBox="0 0 32 32" version="1.1" xmlns="http://www.w3.org/2000/svg" xmlns:xlink="http://www.w3.org/1999/xlink">
    <!-- Generator: Sketch 63.1 (92452) - https://sketch.com -->
    <title>Icons / customer-help</title>
    <desc>Created with Sketch.</desc>
    <g id="Icons-/-customer-help" stroke="none" stroke-width="1" fill="none" fill-rule="evenodd">
        <rect id="Rectangle" x="0" y="0" width="32" height="32"></rect>
        <path d="M25.0366922,5.71756486 C30.0279057,10.7080012 30.0278911,18.799461 25.0367652,23.7901746 C22.3358334,26.4915527 18.6375911,27.8027269 14.9215607,27.4886668 C13.5961141,29.0516923 11.0081803,30.09967 7.16439899,30.7403002 C6.27451428,30.8886143 5.65870426,29.8756339 6.2,29.1539063 C7.94390654,26.8286975 8.11609039,25.1153912 6.96335163,23.7902914 C1.97209432,18.7998587 1.97209432,10.7083661 6.96323482,5.71763788 C11.954033,0.726015178 20.0454928,0.726000576 25.0366922,5.71756486 Z M8.37747758,7.13182223 C4.16738568,11.3415664 4.16738568,18.1665938 8.42400112,22.4257942 C9.88966626,24.1061124 10.0664482,26.1100547 9.045281,28.3134093 C11.4805003,27.7006839 13.0015466,26.8729509 13.6127818,25.9009626 C13.8207108,25.5703132 14.2021229,25.39099 14.5893977,25.4418006 C17.8921134,25.8751188 21.2221823,24.776727 23.6225224,22.3759903 C27.8326143,18.1662461 27.8326143,11.3412187 23.6225516,7.13185144 C19.4123399,2.92129192 12.5873124,2.92129192 8.37747758,7.13182223 Z M15.5554199,20.0125488 C16.1077047,20.0125488 16.5554199,20.4602641 16.5554199,21.0125488 C16.5554199,21.5648336 16.1077047,22.0125488 15.5554199,22.0125488 C15.0031352,22.0125488 14.5554199,21.5648336 14.5554199,21.0125488 C14.5554199,20.4602641 15.0031352,20.0125488 15.5554199,20.0125488 Z M16.2002799,7.42236328 C18.6018757,7.42236328 20.4223633,9.22048667 20.4223633,11.4223633 C20.4223633,12.4685367 19.8307277,13.3559901 18.895881,14.135029 C18.3895866,14.556941 17.8909853,14.8616418 17.5362435,15.0390127 C17.4623269,15.075971 17.2845423,15.2093095 17.092121,15.4498361 C16.7454332,15.8831958 16.5334744,16.4660825 16.5334744,17.2556966 L16.5334744,17.2556966 L16.5334744,17.6445855 C16.5334744,18.1968703 16.0857591,18.6445855 15.5334744,18.6445855 C14.9811896,18.6445855 14.5334744,18.1968703 14.5334744,17.6445855 L14.5334744,17.6445855 L14.5334744,17.2556966 C14.5334744,16.003644 14.9048489,14.9823641 15.5303834,14.200446 C15.9212954,13.711806 16.3268442,13.4076444 16.6418164,13.2501583 C16.6907275,13.2257027 16.7938552,13.169228 16.9321633,13.0847064 C17.1665703,12.9414577 17.4009228,12.777411 17.6155122,12.5985864 C18.1389989,12.1623475 18.4223633,11.737301 18.4223633,11.4223633 C18.4223633,10.3306278 17.5028022,9.42236328 16.2002799,9.42236328 C14.7722516,9.42236328 14.0868056,10.1949991 14.0868056,11.2001411 C14.0868056,11.7524258 13.6390903,12.2001411 13.0868056,12.2001411 C12.5345208,12.2001411 12.0868056,11.7524258 12.0868056,11.2001411 C12.0868056,9.14021469 13.6108024,7.42236328 16.2002799,7.42236328 Z" id="Combined-Shape" fill="#FA2398"></path>
    </g>
</svg>