<?xml version="1.0" encoding="UTF-8"?>
<svg width="32px" height="32px" viewBox="0 0 32 32" version="1.1" xmlns="http://www.w3.org/2000/svg" xmlns:xlink="http://www.w3.org/1999/xlink">
    <!-- Generator: Sketch 63.1 (92452) - https://sketch.com -->
    <title>Icons / danger</title>
    <desc>Created with Sketch.</desc>
    <g id="Icons-/-danger" stroke="none" stroke-width="1" fill="none" fill-rule="evenodd">
        <rect id="Rectangle" x="0" y="0" width="32" height="32"></rect>
        <path d="M24.792789,6.72601962 L25.0366922,6.96365131 L25.2743072,7.20751817 C30.0266068,12.2142958 29.947389,20.1260428 25.0367652,25.0362611 C20.0459475,30.0279032 11.9540525,30.0279032 6.96335163,25.0363779 C1.97209432,20.0459451 1.97209432,11.9544526 6.96323482,6.96372433 C11.8735363,2.05261167 19.7852846,1.97338604 24.792789,6.72601962 Z M8.37747758,8.37790868 C4.16738568,12.5876528 4.16738568,19.4126803 8.37756518,23.6221643 C12.5873075,27.8326022 19.4126925,27.8326022 23.6225224,23.6220767 C27.8326143,19.4123326 27.8326143,12.5873051 23.6225516,8.37793789 L23.3984923,8.16013428 C19.1736701,4.16867432 12.5134557,4.24124733 8.37747758,8.37790868 Z M20.2116265,10.3371199 C20.6006836,9.94513384 21.2338441,9.94275945 21.6258301,10.3318165 C22.0178162,10.7208736 22.0201906,11.3540341 21.6311335,11.7460201 L21.6311335,11.7460201 L17.41338,15.99457 L21.6630702,20.2118166 C22.0249034,20.5709463 22.0547598,21.1380693 21.7512081,21.5315016 L21.6683734,21.6260202 C21.2793163,22.0180062 20.6461557,22.0203805 20.2541698,21.6313234 L20.2541698,21.6313234 L16.00438,17.41357 L11.7883735,21.6628801 C11.4292439,22.0247134 10.8621208,22.0545699 10.4686885,21.7510182 L10.3741699,21.6681835 C9.98218384,21.2791264 9.97980945,20.6459659 10.3688665,20.2539799 L10.3688665,20.2539799 L14.58538,16.00457 L10.3369298,11.7881834 C9.97509656,11.4290537 9.94524016,10.8619307 10.2487919,10.4684984 L10.3316266,10.3739798 C10.7206837,9.9819938 11.3538443,9.97961949 11.7458302,10.3686766 L11.7458302,10.3686766 L15.99438,14.58557 Z" id="Shape" fill="#FA2398"></path>
    </g>
</svg>