<?xml version="1.0" encoding="UTF-8"?>
<svg width="32px" height="32px" viewBox="0 0 32 32" version="1.1" xmlns="http://www.w3.org/2000/svg" xmlns:xlink="http://www.w3.org/1999/xlink">
    <!-- Generator: Sketch 63.1 (92452) - https://sketch.com -->
    <title>Icons / delete</title>
    <desc>Created with Sketch.</desc>
    <g id="Icons-/-delete" stroke="none" stroke-width="1" fill="none" fill-rule="evenodd">
        <g id="Group">
            <rect id="Rectangle" x="0" y="0" width="32" height="32"></rect>
            <path d="M18.66,3.22 C19.1728358,3.22 19.5955072,3.60604019 19.6532723,4.10337887 L19.66,4.22 L19.66,6.259 L24.36,6.26 C24.8728358,6.26 25.2955072,6.64604019 25.3532723,7.14337887 L25.36,7.26 C25.36,7.77283584 24.9739598,8.19550716 24.4766211,8.25327227 L24.36,8.26 L23.84,8.259 L23.84,25.78 C23.84,27.3776809 22.59108,28.6836609 21.0162728,28.7749073 L20.84,28.78 L11.16,28.78 C9.56231912,28.78 8.25633912,27.53108 8.16509269,25.9562728 L8.16,25.78 L8.16,8.259 L7.64,8.26 C7.12716416,8.26 6.70449284,7.87395981 6.64672773,7.37662113 L6.64,7.26 C6.64,6.74716416 7.02604019,6.32449284 7.52337887,6.26672773 L7.64,6.26 L12.34,6.259 L12.34,4.22 C12.34,3.70716416 12.7260402,3.28449284 13.2233789,3.22672773 L13.34,3.22 L18.66,3.22 Z M21.84,8.259 L10.16,8.259 L10.16,25.78 C10.16,26.2928358 10.5460402,26.7155072 11.0433789,26.7732723 L11.16,26.78 L20.84,26.78 C21.3528358,26.78 21.7755072,26.3939598 21.8332723,25.8966211 L21.84,25.78 L21.84,8.259 Z M13.72,10.44 C14.2328358,10.44 14.6555072,10.8260402 14.7132723,11.3233789 L14.72,11.44 L14.72,24.36 C14.72,24.9122847 14.2722847,25.36 13.72,25.36 C13.2071642,25.36 12.7844928,24.9739598 12.7267277,24.4766211 L12.72,24.36 L12.72,11.44 C12.72,10.8877153 13.1677153,10.44 13.72,10.44 Z M18.28,10.44 C18.7928358,10.44 19.2155072,10.8260402 19.2732723,11.3233789 L19.28,11.44 L19.28,24.36 C19.28,24.9122847 18.8322847,25.36 18.28,25.36 C17.7671642,25.36 17.3444928,24.9739598 17.2867277,24.4766211 L17.28,24.36 L17.28,11.44 C17.28,10.8877153 17.7277153,10.44 18.28,10.44 Z M17.66,5.22 L14.34,5.22 L14.34,6.259 L17.66,6.259 L17.66,5.22 Z" id="Shape" fill="#FA2398"></path>
        </g>
    </g>
</svg>