<?xml version="1.0" encoding="UTF-8"?>
<svg width="32px" height="32px" viewBox="0 0 32 32" version="1.1" xmlns="http://www.w3.org/2000/svg" xmlns:xlink="http://www.w3.org/1999/xlink">
    <!-- Generator: Sketch 63.1 (92452) - https://sketch.com -->
    <title>Icons / Delivery</title>
    <desc>Created with Sketch.</desc>
    <g id="Icons-/-Delivery" stroke="none" stroke-width="1" fill="none" fill-rule="evenodd">
        <g id="Group">
            <rect id="Rectangle" x="0" y="0" width="32" height="32"></rect>
            <path d="M15,4 C17.209139,4 19,5.790861 19,8 L21.9209686,8 C23.5122676,8 25.038391,8.63214104 26.1636093,9.75735931 L30.1213203,13.7150703 C30.6839295,14.2776795 31,15.0407412 31,15.8363907 L31,24 C31,24.5522847 30.5522847,25 30,25 L27.84375,25 C27.396684,26.719842 25.853198,28 24,28 C22.146802,28 20.603316,26.719842 20.15625,25 L11.84375,25 C11.396684,26.719842 9.8531978,28 8,28 C6.1468019,28 4.6033156,26.719842 4.15625,25 L2,25 C1.44771525,25 1,24.5522847 1,24 L1,8 C1,5.790861 2.790861,4 5,4 L15,4 Z M8,22 C6.883586,22 6,22.883586 6,24 C6,25.116414 6.883586,26 8,26 C9.116414,26 10,25.116414 10,24 C10,22.883586 9.116414,22 8,22 Z M24,22 C22.883586,22 22,22.883586 22,24 C22,25.116414 22.883586,26 24,26 C25.116414,26 26,25.116414 26,24 C26,22.883586 25.116414,22 24,22 Z M15,6 L5,6 C3.8954305,6 3,6.8954305 3,8 L3,23 L4.15625,23 C4.6033156,21.280158 6.1468019,20 8,20 C9.8531978,20 11.396684,21.280158 11.84375,23 L17,23 L17,8 C17,6.8954305 16.1045695,6 15,6 Z M21.9056458,10 L19,10 L19,12 L21.2307935,12 C23.7729743,12 25.8799563,13.8909432 25.9950493,16.2929325 L26,16.5000366 C26,17.3455371 25.2952057,18 24.461587,18 L19,18 L19,23 L20.15625,23 C20.603316,21.280158 22.146802,20 24,20 C25.853198,20 27.396684,21.280158 27.84375,23 L29,23 L29,16.2659271 C29,15.7354941 28.7892863,15.2267863 28.4142136,14.8517136 L24.7340729,11.1715729 C23.9839274,10.4214274 22.9665117,10 21.9056458,10 Z M21.2307935,14 L19,14 L19,16 L23.9437995,16 C23.6986363,14.9227489 22.6781801,14.079754 21.4131227,14.0053439 L21.2307935,14 Z" id="Shape" fill="#FA2398"></path>
        </g>
    </g>
</svg>