<?xml version="1.0" encoding="UTF-8"?>
<svg width="32px" height="32px" viewBox="0 0 32 32" version="1.1" xmlns="http://www.w3.org/2000/svg" xmlns:xlink="http://www.w3.org/1999/xlink">
    <!-- Generator: Sketch 63.1 (92452) - https://sketch.com -->
    <title>Icons / Edit</title>
    <desc>Created with Sketch.</desc>
    <g id="Icons-/-Edit" stroke="none" stroke-width="1" fill="none" fill-rule="evenodd">
        <g id="Group">
            <rect id="Rectangle" x="0" y="0" width="32" height="32"></rect>
            <path d="M22.906,4.5 L22.813,4.594 C22.4652812,4.26352809 21.9175079,4.27049209 21.5783029,4.60969706 L5.688,20.5 L4.53079785,26.3139573 C4.4193805,26.8415723 4.7567754,27.3596105 5.28439045,27.4710278 C5.37310388,27.4897616 5.46377419,27.4960019 5.55379106,27.4897491 L5.688,27.471 L11.501,26.313 L11.721,26.095 L27.4044998,10.4055002 C27.7047128,10.1052872 27.7297305,9.63408981 27.479553,9.30537941 L27.404,9.219 L27.467,9.155 L27.497,9.093 C28.767,7.827 28.767,5.767 27.5,4.5 C26.867,3.867 26.024,3.53 25.187,3.53 C24.351,3.53 23.54,3.867 22.906,4.5 Z M26.094,5.906 C26.627,6.44 26.627,7.154 26.094,7.688 L26,7.781 L24.22,6.00098942 L24.313,5.907 C24.579,5.641 24.876,5.50098942 25.188,5.50098942 C25.498,5.5 25.828,5.64 26.094,5.906 Z M25.188,9.781 L23.75,11.251 L20.75,8.251 L22.22,6.813 L25.188,9.781 Z M22.313,12.625 L11.875,23.095 L11.469,21.281 L11.343,20.657 L10.718,20.532 L8.904,20.127 L19.374,9.689 L22.313,12.625 Z M9.656,22.343 L10.156,24.53 L8.126,24.937 L7.062,23.875 L7.469,21.845 L9.656,22.343 Z" id="Shape" fill="#FA2398"></path>
        </g>
    </g>
</svg>