<?xml version="1.0" encoding="UTF-8"?>
<svg width="32px" height="32px" viewBox="0 0 32 32" version="1.1" xmlns="http://www.w3.org/2000/svg" xmlns:xlink="http://www.w3.org/1999/xlink">
    <!-- Generator: Sketch 63.1 (92452) - https://sketch.com -->
    <title>Icons / email-open</title>
    <desc>Created with Sketch.</desc>
    <g id="Icons-/-email-open" stroke="none" stroke-width="1" fill="none" fill-rule="evenodd">
        <g id="Group">
            <rect id="Rectangle" x="0" y="0" width="32" height="32"></rect>
            <path d="M23.9799337,3.22 C24.4927696,3.22 24.9154409,3.60604019 24.973206,4.10337887 L24.9799337,4.22 L24.9789337,11.461 L28.1666139,12.7977861 C28.1748705,12.8012481 28.183063,12.8048126 28.1911902,12.8084779 C28.2075185,12.815706 28.2239012,12.823615 28.2400776,12.8319777 C28.2587392,12.841805 28.2769561,12.8519815 28.2947765,12.8626769 C28.3070656,12.8698317 28.3191727,12.8774458 28.3311293,12.8853312 C28.352337,12.8995786 28.3729049,12.9143222 28.3928289,12.9297761 L28.4099974,12.9431061 C28.4315674,12.9609072 28.4521966,12.9791261 28.4720029,12.9981222 L28.4933391,13.0189853 L28.5137367,13.0403713 C28.5271176,13.0550646 28.5400845,13.0699353 28.5525936,13.0851654 L28.5913469,13.135489 L28.6159337,13.172 L28.6272065,13.188842 C28.6361576,13.2031202 28.6447037,13.2175373 28.6528481,13.2320799 L28.6783826,13.2808878 C28.6867827,13.2978842 28.6944874,13.3147964 28.7016854,13.3318308 L28.721596,13.3833272 C28.7636192,13.4998856 28.7825386,13.6215026 28.7798084,13.7417693 L28.7800663,27.78 C28.7800663,28.2928358 28.3938935,28.7155072 27.8965549,28.7732723 L27.7799337,28.78 L4.21993373,28.78 C3.70709789,28.78 3.28442657,28.3939598 3.22666146,27.8966211 L3.21993373,27.78 L3.21993373,13.7018972 C3.2216917,13.595246 3.24078733,13.4872402 3.27820892,13.3829875 C3.28449593,13.3659274 3.29119372,13.3487271 3.29835276,13.3317444 L3.32793373,13.267 L3.34693373,13.232 L3.33393373,13.255 L3.34739611,13.2314421 L3.37266096,13.188842 C3.37618999,13.1832127 3.37976588,13.1776306 3.3833878,13.172096 L3.40779992,13.1365267 C3.42044666,13.1188341 3.43356867,13.1017343 3.44714515,13.0851651 C3.45978296,13.0699353 3.47274987,13.0550646 3.48615972,13.0405758 C3.49950216,13.0259015 3.51324179,13.011895 3.52732572,12.9983573 C3.54767086,12.9791261 3.5683001,12.9609072 3.5897127,12.943525 L3.60700669,12.9295163 C3.6269626,12.9143222 3.64753048,12.8995786 3.66871207,12.8855907 C3.68069478,12.8774458 3.69280186,12.8698317 3.70504947,12.8624911 L3.76768783,12.8280667 L3.80293373,12.811 L3.75978988,12.8319777 C3.77596626,12.823615 3.79234891,12.815706 3.80891692,12.8082554 L3.83325357,12.7977861 L7.01893373,11.462 L7.01993373,4.22 C7.01993373,3.70716416 7.40597392,3.28449284 7.9033126,3.22672773 L8.01993373,3.22 L23.9799337,3.22 Z M26.7789337,15.527 L16.5310918,21.9521928 C16.2423549,22.1332028 15.8842221,22.153315 15.580064,22.0125295 L15.4687757,21.9521928 L5.21993373,15.527 L5.21993373,26.78 L26.7799337,26.78 L26.7789337,15.527 Z M22.9799337,5.22 L9.01993373,5.22 L9.01893373,15.548 L15.9999337,19.9246625 L22.9789337,15.548 L22.9799337,5.22 Z M20.9399337,12.34 C21.4922185,12.34 21.9399337,12.7877153 21.9399337,13.34 C21.9399337,13.8922847 21.4922185,14.34 20.9399337,14.34 L11.0599337,14.34 C10.507649,14.34 10.0599337,13.8922847 10.0599337,13.34 C10.0599337,12.7877153 10.507649,12.34 11.0599337,12.34 L20.9399337,12.34 Z M11.0599337,9.3 L20.9399337,9.3 C21.4922185,9.3 21.9399337,9.74771525 21.9399337,10.3 C21.9399337,10.8128358 21.5538935,11.2355072 21.0565549,11.2932723 L20.9399337,11.3 L11.0599337,11.3 C10.507649,11.3 10.0599337,10.8522847 10.0599337,10.3 C10.0599337,9.78716416 10.4459739,9.36449284 10.9433126,9.30672773 L11.0599337,9.3 L20.9399337,9.3 L11.0599337,9.3 Z M20.9399337,6.26 C21.4922185,6.26 21.9399337,6.70771525 21.9399337,7.26 C21.9399337,7.77283584 21.5538935,8.19550716 21.0565549,8.25327227 L20.9399337,8.26 L17.5199337,8.26 C16.967649,8.26 16.5199337,7.81228475 16.5199337,7.26 C16.5199337,6.74716416 16.9059739,6.32449284 17.4033126,6.26672773 L17.5199337,6.26 L20.9399337,6.26 Z" id="Shape" fill="#FA2398"></path>
        </g>
    </g>
</svg>