<?xml version="1.0" encoding="UTF-8"?>
<svg width="32px" height="32px" viewBox="0 0 32 32" version="1.1" xmlns="http://www.w3.org/2000/svg" xmlns:xlink="http://www.w3.org/1999/xlink">
    <!-- Generator: Sketch 63.1 (92452) - https://sketch.com -->
    <title>Icons / Email-closed</title>
    <desc>Created with Sketch.</desc>
    <g id="Icons-/-Email-closed" stroke="none" stroke-width="1" fill="none" fill-rule="evenodd">
        <g id="Group">
            <rect id="Rectangle" x="0" y="0" width="32" height="32"></rect>
            <path d="M28.2158445,7.56975852 L28.3155969,7.62545264 L28.3155969,7.62545264 L28.4343687,7.71353153 L28.4343687,7.71353153 L28.5002243,7.7762571 L28.5002243,7.7762571 L28.5792509,7.86890673 L28.5792509,7.86890673 L28.6450005,7.96790161 L28.6450005,7.96790161 L28.6949171,8.06573782 L28.6949171,8.06573782 L28.725156,8.1425566 L28.725156,8.1425566 L28.7623703,8.28207746 L28.7623703,8.28207746 L28.7751085,8.37037023 L28.7751085,8.37037023 L28.78,8.44744295 L28.78,8.44744295 L28.78,23.53 C28.78,24.0822847 28.3322847,24.53 27.78,24.53 L4.22,24.53 C3.66771525,24.53 3.22,24.0822847 3.22,23.53 L3.22,8.47 L3.22207522,8.40505353 L3.22207522,8.40505353 L3.23240941,8.3116646 L3.23240941,8.3116646 L3.25730795,8.19840827 L3.25730795,8.19840827 L3.28397213,8.11730543 L3.28397213,8.11730543 L3.33457693,8.00477889 L3.33457693,8.00477889 L3.37798381,7.93032044 L3.37798381,7.93032044 L3.42092287,7.86876793 L3.42092287,7.86876793 L3.50019354,7.77565212 L3.50019354,7.77565212 L3.57581352,7.70486089 L3.57581352,7.70486089 L3.6793637,7.62856843 L3.6793637,7.62856843 L3.80145129,7.56161652 L3.80145129,7.56161652 L3.91446538,7.51772287 L3.91446538,7.51772287 L3.99755982,7.49482909 L3.99755982,7.49482909 L4.11517085,7.47542879 L4.11517085,7.47542879 L4.22,7.47 L4.22,7.47 L27.822622,7.47087112 L27.8660142,7.47364759 L27.8660142,7.47364759 L27.9760957,7.4893877 L27.9760957,7.4893877 L28.0860555,7.51788416 L28.0860555,7.51788416 L28.2158445,7.56975852 L28.2158445,7.56975852 Z M26.78,10.437 L16.5896383,17.8776674 C16.2734972,18.1084665 15.855723,18.1315464 15.5192553,17.9469071 L15.4103617,17.8776674 L5.219,10.437 L5.22,22.53 L26.78,22.53 L26.78,10.437 Z M24.713,9.47 L7.286,9.47 L16,15.8318666 L24.713,9.47 Z" id="Shape" fill="#FA2398"></path>
        </g>
    </g>
</svg>