<?xml version="1.0" encoding="UTF-8"?>
<svg width="32px" height="32px" viewBox="0 0 32 32" version="1.1" xmlns="http://www.w3.org/2000/svg" xmlns:xlink="http://www.w3.org/1999/xlink">
    <!-- Generator: Sketch 63.1 (92452) - https://sketch.com -->
    <title>Icons / expand</title>
    <desc>Created with Sketch.</desc>
    <g id="Icons-/-expand" stroke="none" stroke-width="1" fill="none" fill-rule="evenodd">
        <rect id="Rectangle" x="0" y="0" width="32" height="32"></rect>
        <path d="M12.9071068,19.0928932 C13.2675907,19.4533772 13.2953203,20.0206082 12.9902954,20.4128994 L12.9071068,20.5071068 L6.634,26.78 L8.4,26.78 C8.91283584,26.78 9.33550716,27.1660402 9.39327227,27.6633789 L9.4,27.78 C9.4,28.2928358 9.01395981,28.7155072 8.51662113,28.7732723 L8.4,28.78 L4.22,28.78 C3.70716416,28.78 3.28449284,28.3939598 3.22672773,27.8966211 L3.22,27.78 L3.22,23.6 C3.22,23.0477153 3.66771525,22.6 4.22,22.6 C4.73283584,22.6 5.15550716,22.9860402 5.21327227,23.4833789 L5.22,23.6 L5.22,25.364 L11.4928932,19.0928932 C11.8834175,18.7023689 12.5165825,18.7023689 12.9071068,19.0928932 Z M20.4128994,19.0097046 L20.5071068,19.0928932 L26.779,25.364 L26.78,23.6 C26.78,23.0871642 27.1660402,22.6644928 27.6633789,22.6067277 L27.78,22.6 C28.2928358,22.6 28.7155072,22.9860402 28.7732723,23.4833789 L28.78,23.6 L28.78,27.78 C28.78,28.2928358 28.3939598,28.7155072 27.8966211,28.7732723 L27.78,28.78 L23.6,28.78 C23.0477153,28.78 22.6,28.3322847 22.6,27.78 C22.6,27.2671642 22.9860402,26.8444928 23.4833789,26.7867277 L23.6,26.78 L25.365,26.78 L19.0928932,20.5071068 C18.7023689,20.1165825 18.7023689,19.4834175 19.0928932,19.0928932 C19.4533772,18.7324093 20.0206082,18.7046797 20.4128994,19.0097046 Z M8.4,3.22 C8.95228475,3.22 9.4,3.66771525 9.4,4.22 C9.4,4.73283584 9.01395981,5.15550716 8.51662113,5.21327227 L8.4,5.22 L6.635,5.22 L12.9071068,11.4928932 C13.2976311,11.8834175 13.2976311,12.5165825 12.9071068,12.9071068 C12.5466228,13.2675907 11.9793918,13.2953203 11.5871006,12.9902954 L11.4928932,12.9071068 L5.22,6.635 L5.22,8.4 C5.22,8.91283584 4.83395981,9.33550716 4.33662113,9.39327227 L4.22,9.4 C3.70716416,9.4 3.28449284,9.01395981 3.22672773,8.51662113 L3.22,8.4 L3.22,4.22 C3.22,3.70716416 3.60604019,3.28449284 4.10337887,3.22672773 L4.22,3.22 L8.4,3.22 Z M27.78,3.22 C28.2928358,3.22 28.7155072,3.60604019 28.7732723,4.10337887 L28.78,4.22 L28.78,8.4 C28.78,8.95228475 28.3322847,9.4 27.78,9.4 C27.2671642,9.4 26.8444928,9.01395981 26.7867277,8.51662113 L26.78,8.4 L26.779,6.635 L20.5071068,12.9071068 C20.1165825,13.2976311 19.4834175,13.2976311 19.0928932,12.9071068 C18.7324093,12.5466228 18.7046797,11.9793918 19.0097046,11.5871006 L19.0928932,11.4928932 L25.364,5.22 L23.6,5.22 C23.0871642,5.22 22.6644928,4.83395981 22.6067277,4.33662113 L22.6,4.22 C22.6,3.70716416 22.9860402,3.28449284 23.4833789,3.22672773 L23.6,3.22 L27.78,3.22 Z" id="Shape" fill="#FA2398"></path>
    </g>
</svg>