<?xml version="1.0" encoding="UTF-8"?>
<svg width="32px" height="32px" viewBox="0 0 32 32" version="1.1" xmlns="http://www.w3.org/2000/svg" xmlns:xlink="http://www.w3.org/1999/xlink">
    <!-- Generator: Sketch 63.1 (92452) - https://sketch.com -->
    <title>Icons / external_tab</title>
    <desc>Created with Sketch.</desc>
    <g id="Icons-/-external_tab" stroke="none" stroke-width="1" fill="none" fill-rule="evenodd">
        <rect id="Rectangle" x="0" y="0" width="32" height="32"></rect>
        <path d="M23.393689,18.7421306 C23.393689,19.2944154 22.9459737,19.7421306 22.393689,19.7421306 C21.8808531,19.7421306 21.4581818,19.3560904 21.4004167,18.8587518 L21.393689,18.7421306 L21.39384,12.0203736 L10.3134178,23.1007958 C9.9507881,23.4634255 9.37894271,23.4893276 8.98642505,23.1785021 L8.89920424,23.1007958 C8.53872028,22.7403118 8.51099074,22.1730807 8.81601563,21.7807895 L8.89920424,21.6865822 L19.9796264,10.60616 L13.2578694,10.606311 C12.7480681,10.606311 12.3273674,10.2248258 12.2656608,9.7317489 L12.2578694,9.60631102 C12.2578694,9.09347518 12.6439096,8.67080386 13.1412482,8.61303875 L13.2578694,8.60631102 L22.393689,8.60631102 C22.9065248,8.60631102 23.3291961,8.99235121 23.3869612,9.4896899 L23.393689,9.60631102 L23.393689,18.7421306 Z" id="Path" fill="#FA2398"></path>
    </g>
</svg>