<?xml version="1.0" encoding="UTF-8"?>
<svg width="32px" height="32px" viewBox="0 0 32 32" version="1.1" xmlns="http://www.w3.org/2000/svg" xmlns:xlink="http://www.w3.org/1999/xlink">
    <!-- Generator: Sketch 63.1 (92452) - https://sketch.com -->
    <title>Icons / Filter</title>
    <desc>Created with Sketch.</desc>
    <g id="Icons-/-Filter" stroke="none" stroke-width="1" fill="none" fill-rule="evenodd">
        <g id="Group">
            <rect id="Rectangle" x="0" y="0" width="32" height="32"></rect>
            <path d="M16,2.84 C16.5128358,2.84 16.9355072,3.22604019 16.9932723,3.72337887 L17,3.84 L17.0009512,12.8755341 C18.3229204,13.2986916 19.28,14.5375769 19.28,16 C19.28,17.4624231 18.3229204,18.7013084 17.0009512,19.1244659 L17,28.16 C17,28.7122847 16.5522847,29.16 16,29.16 C15.4871642,29.16 15.0644928,28.7739598 15.0067277,28.2766211 L15,28.16 L15.0000454,19.1247847 C13.6775606,18.7019309 12.72,17.4627906 12.72,16 C12.72,14.5372094 13.6775606,13.2980691 15.0000454,12.8752153 L15,3.84 C15,3.28771525 15.4477153,2.84 16,2.84 Z M23.6,2.84 C24.1128358,2.84 24.5355072,3.22604019 24.5932723,3.72337887 L24.6,3.84 L24.6009512,20.0955341 C25.9229204,20.5186916 26.88,21.7575769 26.88,23.22 C26.88,24.6824231 25.9229204,25.9213084 24.6009512,26.3444659 L24.6,28.16 C24.6,28.7122847 24.1522847,29.16 23.6,29.16 C23.0871642,29.16 22.6644928,28.7739598 22.6067277,28.2766211 L22.6,28.16 L22.6000454,26.3447847 C21.2775606,25.9219309 20.32,24.6827906 20.32,23.22 C20.32,21.7572094 21.2775606,20.5180691 22.6000454,20.0952153 L22.6,3.84 C22.6,3.28771525 23.0477153,2.84 23.6,2.84 Z M8.4,2.84 C8.91283584,2.84 9.33550716,3.22604019 9.39327227,3.72337887 L9.4,3.84 L9.40095115,5.65553413 C10.7229204,6.07869164 11.68,7.31757687 11.68,8.78 C11.68,10.2424231 10.7229204,11.4813084 9.40095115,11.9044659 L9.4,28.16 C9.4,28.7122847 8.95228475,29.16 8.4,29.16 C7.88716416,29.16 7.46449284,28.7739598 7.40672773,28.2766211 L7.4,28.16 L7.40004537,11.9047847 C6.07756056,11.4819309 5.12,10.2427906 5.12,8.78 C5.12,7.31720943 6.07756056,6.0780691 7.40004537,5.65521532 L7.4,3.84 C7.4,3.28771525 7.84771525,2.84 8.4,2.84 Z M23.6,21.94 C22.8930755,21.94 22.32,22.5130755 22.32,23.22 C22.32,23.879896 22.8193634,24.4231593 23.4608209,24.4925206 L23.6091724,24.5000412 L23.6091724,24.5000412 C24.3069245,24.5 24.88,23.9269245 24.88,23.22 C24.88,22.5130755 24.3069245,21.94 23.6,21.94 Z M16.1308726,14.7266085 L16.002,14.719 C15.2886757,14.7244103 14.72,15.2957945 14.72,16 C14.72,16.7069245 15.2930755,17.28 16,17.28 C16.7069245,17.28 17.28,16.7069245 17.28,16 C17.28,15.3372583 16.7763203,14.7921573 16.1308726,14.7266085 Z M8.4,7.5 C7.69307552,7.5 7.12,8.07307552 7.12,8.78 C7.12,9.4427417 7.62367966,9.98784271 8.26912744,10.0533915 L8.4,10.06 C9.11183536,10.0550761 9.68,9.48388902 9.68,8.78 C9.68,8.07307552 9.10692448,7.5 8.4,7.5 Z" id="Shape" fill="#FA2398"></path>
        </g>
    </g>
</svg>