<?xml version="1.0" encoding="UTF-8"?>
<svg width="32px" height="32px" viewBox="0 0 32 32" version="1.1" xmlns="http://www.w3.org/2000/svg" xmlns:xlink="http://www.w3.org/1999/xlink">
    <!-- Generator: Sketch 63.1 (92452) - https://sketch.com -->
    <title>Icons / Gift</title>
    <desc>Created with Sketch.</desc>
    <g id="Icons-/-Gift" stroke="none" stroke-width="1" fill="none" fill-rule="evenodd">
        <g id="Group">
            <rect id="Rectangle" x="0" y="0" width="32" height="32"></rect>
            <path d="M18.2236311,4.50917056 C20.1659398,4.14072954 21.88,5.00523116 21.88,6.9738404 C21.88,8.03837171 21.5321994,8.90135306 20.9213925,9.57461873 L26,9.5738404 C27.1045695,9.5738404 28,10.4692709 28,11.5738404 L28,14.5738404 C28,15.1261252 27.5522847,15.5738404 27,15.5738404 L27,23.5738404 C27,25.7829794 25.209139,27.5738404 23,27.5738404 L9,27.5738404 C6.790861,27.5738404 5,25.7829794 5,23.5738404 L5,15.5738404 C4.44771525,15.5738404 4,15.1261252 4,14.5738404 L4,11.5738404 C4,10.4692709 4.8954305,9.5738404 6,9.5738404 L10.9586075,9.57461873 C10.3478006,8.90135306 10,8.03837171 10,6.9738404 C10,5.00523116 11.7140602,4.14072954 13.6563689,4.50917056 C14.5375887,4.67633117 15.3466303,5.06338175 15.9411597,5.60849312 C16.5342854,5.06294374 17.34291,4.67623657 18.2236311,4.50917056 Z M15,15.5731596 L7,15.5738404 L7,23.5738404 C7,24.6784099 7.8954305,25.5738404 9,25.5738404 L15,25.5738404 L15,15.5731596 Z M25,15.5738404 L17,15.5731596 L17,25.5738404 L23,25.5738404 C24.1045695,25.5738404 25,24.6784099 25,23.5738404 L25,15.5738404 Z M15,11.5731596 L6,11.5738404 L6,13.5738404 L15,13.5731596 L15,11.5731596 Z M26,11.5738404 L17,11.5731596 L17,13.5731596 L26,13.5738404 L26,11.5738404 Z M12,6.9738404 C12,7.99093984 12.6138003,8.63073449 13.7938297,9.03462655 C14.0645667,9.1272925 14.3509673,9.20098019 14.6444603,9.25734348 L14.939,9.3071596 L14.9400093,7.72676902 L14.9400093,7.72676902 C14.9400093,7.24247833 14.237264,6.65502707 13.2836311,6.47413025 C12.4152974,6.30941402 12,6.51887298 12,6.9738404 Z M19.88,6.9738404 C19.88,6.51887298 19.4647026,6.30941402 18.5963689,6.47413025 C17.7023381,6.64372101 17.0288221,7.17063503 16.9481249,7.64070669 L16.94,7.7338404 L16.94,7.7338404 L16.94,9.3071596 L17.2355397,9.25734348 C17.4312017,9.21976795 17.6237115,9.17449269 17.8105296,9.12102767 L18.0861703,9.03462655 C19.2661997,8.63073449 19.88,7.99093984 19.88,6.9738404 Z" id="Shape" fill="#FA2398"></path>
        </g>
    </g>
</svg>