<?xml version="1.0" encoding="UTF-8"?>
<svg width="32px" height="32px" viewBox="0 0 32 32" version="1.1" xmlns="http://www.w3.org/2000/svg" xmlns:xlink="http://www.w3.org/1999/xlink">
    <!-- Generator: Sketch 63.1 (92452) - https://sketch.com -->
    <title>Icons / go-back</title>
    <desc>Created with Sketch.</desc>
    <g id="Icons-/-go-back" stroke="none" stroke-width="1" fill="none" fill-rule="evenodd">
        <rect id="Rectangle" x="0" y="0" width="32" height="32"></rect>
        <path d="M12.7108516,8.83289322 C13.1013758,8.44236893 13.7345408,8.44236893 14.1250651,8.83289322 C14.5155894,9.22341751 14.5155894,9.85658249 14.1250651,10.2471068 L14.1250651,10.2471068 L9.37195833,15 L25.0420417,15 C25.5548775,15 25.9775488,15.3860402 26.0353139,15.8833789 L26.0420417,16 C26.0420417,16.5522847 25.5943264,17 25.0420417,17 L25.0420417,17 L9.37195833,17 L14.1250651,21.7528932 C14.4855491,22.1133772 14.5132786,22.6806082 14.2082537,23.0728994 L14.1250651,23.1671068 C13.7345408,23.5576311 13.1013758,23.5576311 12.7108516,23.1671068 L12.7108516,23.1671068 L6.25085155,16.7071068 C5.86032726,16.3165825 5.86032726,15.6834175 6.25085155,15.2928932 L6.25085155,15.2928932 Z" id="Combined-Shape" fill="#FA2398"></path>
    </g>
</svg>