<?xml version="1.0" encoding="UTF-8"?>
<svg width="32px" height="32px" viewBox="0 0 32 32" version="1.1" xmlns="http://www.w3.org/2000/svg" xmlns:xlink="http://www.w3.org/1999/xlink">
    <!-- Generator: Sketch 63.1 (92452) - https://sketch.com -->
    <title>Icons / go-forward</title>
    <desc>Created with Sketch.</desc>
    <g id="Icons-/-go-forward" stroke="none" stroke-width="1" fill="none" fill-rule="evenodd">
        <rect id="Rectangle" x="0" y="0" width="32" height="32"></rect>
        <path d="M19.2891484,8.83289322 C18.8986242,8.44236893 18.2654592,8.44236893 17.8749349,8.83289322 C17.5144509,9.19337718 17.4867214,9.76060824 17.7917463,10.1528994 L17.8749349,10.2471068 L22.6280417,15 L6.95795833,15 C6.44512249,15 6.02245117,15.3860402 5.96468606,15.8833789 L5.95795833,16 C5.95795833,16.5128358 6.34399852,16.9355072 6.84133721,16.9932723 L6.95795833,17 L22.6280417,17 L17.8749349,21.7528932 C17.5144509,22.1133772 17.4867214,22.6806082 17.7917463,23.0728994 L17.8749349,23.1671068 C18.2354188,23.5275907 18.8026499,23.5553203 19.1949411,23.2502954 L19.2891484,23.1671068 L25.7491484,16.7071068 C26.1096324,16.3466228 26.1373619,15.7793918 25.8323371,15.3871006 L25.7491484,15.2928932 L19.2891484,8.83289322 Z" id="Path" fill="#FA2398"></path>
    </g>
</svg>