<?xml version="1.0" encoding="UTF-8"?>
<svg width="32px" height="32px" viewBox="0 0 32 32" version="1.1" xmlns="http://www.w3.org/2000/svg" xmlns:xlink="http://www.w3.org/1999/xlink">
    <!-- Generator: Sketch 63.1 (92452) - https://sketch.com -->
    <title>Icons / Go-to-top</title>
    <desc>Created with Sketch.</desc>
    <g id="Icons-/-Go-to-top" stroke="none" stroke-width="1" fill="none" fill-rule="evenodd">
        <g id="Group">
            <rect id="Rectangle" x="0" y="0" width="32" height="32"></rect>
            <path d="M16,9.28 C16.0111266,9.28 16.0222108,9.28018172 16.0332497,9.28054235 C16.0516119,9.28113789 16.0709545,9.28231771 16.0902563,9.28405655 C16.1074307,9.28556732 16.1237266,9.28744442 16.1398986,9.2897083 C16.1613214,9.29277641 16.1831038,9.29656248 16.2047655,9.30107248 C16.2253479,9.30526555 16.2457207,9.31018687 16.2658396,9.31572097 C16.2804392,9.31981624 16.2948138,9.32411729 16.3091047,9.3287483 C16.3350848,9.33711363 16.3609199,9.34670846 16.3862265,9.35731405 C16.3952127,9.36106817 16.4041764,9.36497214 16.4130931,9.36901373 C16.4360409,9.37946843 16.4584122,9.39067428 16.4802859,9.40267436 C16.4955509,9.41095236 16.5108013,9.41983879 16.5258578,9.42916229 C16.5469517,9.44231913 16.5678626,9.4563821 16.5881936,9.47119301 C16.6299202,9.50153744 16.6696307,9.53541716 16.7071068,9.57289322 L16.6167501,9.49278596 C16.6196628,9.49507113 16.6225624,9.4973721 16.625449,9.49968877 L16.7071068,9.57289322 L20.0764401,12.9422266 C20.4669644,13.3327508 20.4669644,13.9659158 20.0764401,14.3564401 C19.6859158,14.7469644 19.0527508,14.7469644 18.6622266,14.3564401 L18.6622266,14.3564401 L16.999,12.6926667 L17,24.6453333 C17,25.1581692 16.6139598,25.5808405 16.1166211,25.6386056 L16,25.6453333 C15.4477153,25.6453333 15,25.1976181 15,24.6453333 L15,24.6453333 L14.999,12.6946667 L13.3377734,14.3564401 C12.9772895,14.7169241 12.4100584,14.7446536 12.0177672,14.4396287 L11.9235599,14.3564401 C11.5330356,13.9659158 11.5330356,13.3327508 11.9235599,12.9422266 L11.9235599,12.9422266 L15.2928932,9.57289322 L15.2928932,9.57289322 L15.374551,9.49968877 C15.3774376,9.4973721 15.3803372,9.49507113 15.3832499,9.49278596 C15.3924162,9.4855093 15.4019574,9.47828475 15.411596,9.47125405 C15.4321374,9.4563821 15.4530483,9.44231913 15.4744984,9.42904456 C15.4891987,9.41983879 15.5044491,9.41095236 15.5198751,9.40250302 C15.5415878,9.39067428 15.5639591,9.37946843 15.5867891,9.36909562 C15.5958236,9.36497214 15.6047873,9.36106817 15.6137951,9.35730183 C15.6390801,9.34670846 15.6649152,9.33711363 15.6912283,9.32858004 C15.7051862,9.32411729 15.7195608,9.31981624 15.734007,9.31584514 C15.7542793,9.31018687 15.7746521,9.30526555 15.7952574,9.30097835 C15.8168962,9.29656248 15.8386786,9.29277641 15.860543,9.28971428 C15.9058161,9.28330877 15.9525217,9.28 16,9.28 L15.9097437,9.28405655 C15.9287157,9.28234742 15.9477272,9.28117837 15.9667532,9.28054939 Z M21.332,6.35466667 C21.8842847,6.35466667 22.332,6.80238192 22.332,7.35466667 C22.332,7.90695142 21.8842847,8.35466667 21.332,8.35466667 L21.332,8.35466667 L10.668,8.35466667 C10.1157153,8.35466667 9.668,7.90695142 9.668,7.35466667 C9.668,6.80238192 10.1157153,6.35466667 10.668,6.35466667 L10.668,6.35466667 Z" id="Combined-Shape" fill="#FA2398"></path>
        </g>
    </g>
</svg>