<?xml version="1.0" encoding="UTF-8"?>
<svg width="32px" height="32px" viewBox="0 0 32 32" version="1.1" xmlns="http://www.w3.org/2000/svg" xmlns:xlink="http://www.w3.org/1999/xlink">
    <!-- Generator: Sketch 63.1 (92452) - https://sketch.com -->
    <title>Icons / Grid-view 2</title>
    <desc>Created with Sketch.</desc>
    <g id="Icons-/-Grid-view-2" stroke="none" stroke-width="1" fill="none" fill-rule="evenodd">
        <g id="Group">
            <rect id="Rectangle" x="0" y="0" width="32" height="32"></rect>
            <path d="M13.5,17.5 C14.0522847,17.5 14.5,17.9477153 14.5,18.5 L14.5,27.5 C14.5,28.0522847 14.0522847,28.5 13.5,28.5 L4.5,28.5 C3.94771525,28.5 3.5,28.0522847 3.5,27.5 L3.5,18.5 C3.5,17.9477153 3.94771525,17.5 4.5,17.5 L13.5,17.5 Z M27.5,17.5 C28.0522847,17.5 28.5,17.9477153 28.5,18.5 L28.5,27.5 C28.5,28.0522847 28.0522847,28.5 27.5,28.5 L18.5,28.5 C17.9477153,28.5 17.5,28.0522847 17.5,27.5 L17.5,18.5 C17.5,17.9477153 17.9477153,17.5 18.5,17.5 L27.5,17.5 Z M12.5,19.5 L5.5,19.5 L5.5,26.5 L12.5,26.5 L12.5,19.5 Z M26.5,19.5 L19.5,19.5 L19.5,26.5 L26.5,26.5 L26.5,19.5 Z M13.5,3.5 C14.0522847,3.5 14.5,3.94771525 14.5,4.5 L14.5,13.5 C14.5,14.0522847 14.0522847,14.5 13.5,14.5 L4.5,14.5 C3.94771525,14.5 3.5,14.0522847 3.5,13.5 L3.5,4.5 C3.5,3.94771525 3.94771525,3.5 4.5,3.5 L13.5,3.5 Z M27.5,3.5 C28.0522847,3.5 28.5,3.94771525 28.5,4.5 L28.5,13.5 C28.5,14.0522847 28.0522847,14.5 27.5,14.5 L18.5,14.5 C17.9477153,14.5 17.5,14.0522847 17.5,13.5 L17.5,4.5 C17.5,3.94771525 17.9477153,3.5 18.5,3.5 L27.5,3.5 Z M12.5,5.5 L5.5,5.5 L5.5,12.5 L12.5,12.5 L12.5,5.5 Z M26.5,5.5 L19.5,5.5 L19.5,12.5 L26.5,12.5 L26.5,5.5 Z" id="Shape" fill="#FA2398"></path>
        </g>
    </g>
</svg>