<?xml version="1.0" encoding="UTF-8"?>
<svg width="32px" height="32px" viewBox="0 0 32 32" version="1.1" xmlns="http://www.w3.org/2000/svg" xmlns:xlink="http://www.w3.org/1999/xlink">
    <!-- Generator: Sketch 63.1 (92452) - https://sketch.com -->
    <title>Icons / heart-filled</title>
    <desc>Created with Sketch.</desc>
    <g id="Icons-/-heart-filled" stroke="none" stroke-width="1" fill="none" fill-rule="evenodd">
        <g id="Group">
            <rect id="Rectangle" x="0" y="0" width="32" height="32"></rect>
            <path d="M9.92,5.74 C6.07684607,5.74 3.22,8.96619546 3.22,12.82 C3.22,16.4995296 5.56788898,20.1349706 9.43971374,23.6321026 C10.7635417,24.8278182 12.1780205,25.9228986 13.5924703,26.8962834 C14.0878082,27.2371611 14.5483774,27.5388739 14.9627766,27.7985895 C15.2141824,27.9561526 15.3963557,28.0658484 15.4978645,28.1247889 C15.8083491,28.3050704 16.1916509,28.3050704 16.5021355,28.1247889 C16.6036443,28.0658484 16.7858176,27.9561526 17.0372234,27.7985895 C17.4516226,27.5388739 17.9121918,27.2371611 18.4075297,26.8962834 C19.8219795,25.9228986 21.2364583,24.8278182 22.5602863,23.6321026 C26.432111,20.1349706 28.78,16.4995296 28.78,12.82 C28.78,8.96619546 25.9231539,5.74 22.08,5.74 C19.5405008,5.74 17.251237,6.93411375 16,8.79462478 C14.748763,6.93411375 12.4594992,5.74 9.92,5.74 Z" id="Path" fill="#FA2398"></path>
        </g>
    </g>
</svg>