<?xml version="1.0" encoding="UTF-8"?>
<svg width="32px" height="32px" viewBox="0 0 32 32" version="1.1" xmlns="http://www.w3.org/2000/svg" xmlns:xlink="http://www.w3.org/1999/xlink">
    <!-- Generator: Sketch 63.1 (92452) - https://sketch.com -->
    <title>Icons / heart-outline</title>
    <desc>Created with Sketch.</desc>
    <g id="Icons-/-heart-outline" stroke="none" stroke-width="1" fill="none" fill-rule="evenodd">
        <g id="Group">
            <rect id="Rectangle" x="0" y="0" width="32" height="32"></rect>
            <path d="M9.92,5.74 C6.07684607,5.74 3.22,8.96619546 3.22,12.82 C3.22,16.4995296 5.56788898,20.1349706 9.43971374,23.6321026 C10.7635417,24.8278182 12.1780205,25.9228986 13.5924703,26.8962834 C14.0878082,27.2371611 14.5483774,27.5388739 14.9627766,27.7985895 C15.2141824,27.9561526 15.3963557,28.0658484 15.4978645,28.1247889 C15.8083491,28.3050704 16.1916509,28.3050704 16.5021355,28.1247889 C16.6036443,28.0658484 16.7858176,27.9561526 17.0372234,27.7985895 C17.4516226,27.5388739 17.9121918,27.2371611 18.4075297,26.8962834 C19.8219795,25.9228986 21.2364583,24.8278182 22.5602863,23.6321026 C26.432111,20.1349706 28.78,16.4995296 28.78,12.82 C28.78,8.96619546 25.9231539,5.74 22.08,5.74 C19.5405008,5.74 17.251237,6.93411375 16,8.79462478 C14.748763,6.93411375 12.4594992,5.74 9.92,5.74 Z M14.7262797,25.2487166 C13.379792,24.3221014 12.0333333,23.2796818 10.7802863,22.1478974 C7.28961102,18.9950294 5.22,15.7904704 5.22,12.82 C5.22,10.020276 7.23921971,7.74 9.92,7.74 C12.7123342,7.74 15,9.6418061 15,12.06 C15,13.3933333 17,13.3933333 17,12.06 C17,9.6418061 19.2876658,7.74 22.08,7.74 C24.7607803,7.74 26.78,10.020276 26.78,12.82 C26.78,15.7904704 24.710389,18.9950294 21.2197137,22.1478974 C19.9666667,23.2796818 18.620208,24.3221014 17.2737203,25.2487166 C16.8126984,25.565979 16.3844966,25.8468112 16,26.088301 C15.6155034,25.8468112 15.1873016,25.565979 14.7262797,25.2487166 Z" id="Path" fill="#FA2398"></path>
        </g>
    </g>
</svg>