<?xml version="1.0" encoding="UTF-8"?>
<svg width="32px" height="32px" viewBox="0 0 32 32" version="1.1" xmlns="http://www.w3.org/2000/svg" xmlns:xlink="http://www.w3.org/1999/xlink">
    <!-- Generator: Sketch 63.1 (92452) - https://sketch.com -->
    <title>Icons / help</title>
    <desc>Created with Sketch.</desc>
    <g id="Icons-/-help" stroke="none" stroke-width="1" fill="none" fill-rule="evenodd">
        <rect id="Rectangle" x="0" y="0" width="32" height="32"></rect>
        <path d="M24.792789,6.72601962 L25.0366922,6.96365131 L25.2743072,7.20751817 C30.0266068,12.2142958 29.947389,20.1260428 25.0367652,25.0362611 C20.0459475,30.0279032 11.9540525,30.0279032 6.96335163,25.0363779 C1.97209432,20.0459451 1.97209432,11.9544526 6.96323482,6.96372433 C11.8735363,2.05261167 19.7852846,1.97338604 24.792789,6.72601962 Z M8.37747758,8.37790868 C4.16738568,12.5876528 4.16738568,19.4126803 8.37756518,23.6221643 C12.5873075,27.8326022 19.4126925,27.8326022 23.6225224,23.6220767 C27.8326143,19.4123326 27.8326143,12.5873051 23.6225516,8.37793789 L23.3984923,8.16013428 C19.1736701,4.16867432 12.5134557,4.24124733 8.37747758,8.37790868 Z M15.7414551,21.2586353 C16.2937398,21.2586353 16.7414551,21.7063505 16.7414551,22.2586353 C16.7414551,22.81092 16.2937398,23.2586353 15.7414551,23.2586353 C15.1891703,23.2586353 14.7414551,22.81092 14.7414551,22.2586353 C14.7414551,21.7063505 15.1891703,21.2586353 15.7414551,21.2586353 Z M16.3863151,8.66844973 C18.7879109,8.66844973 20.6083984,10.4665731 20.6083984,12.6684497 C20.6083984,13.7146232 20.0167628,14.6020766 19.0819162,15.3811155 C18.6389086,15.7502885 18.201791,16.0297217 17.8617843,16.2126362 L17.7222787,16.2850991 C17.648362,16.3220575 17.4705775,16.4553959 17.2781561,16.6959226 C16.9661371,17.0859463 16.7632486,17.5970869 16.7257911,18.2710435 L16.7195095,18.5017831 L16.7195095,18.890672 C16.7195095,19.4429567 16.2717943,19.890672 15.7195095,19.890672 C15.2066737,19.890672 14.7840024,19.5046318 14.7262373,19.0072931 L14.7195095,18.890672 L14.7195095,18.5017831 C14.7195095,17.2497305 15.0908841,16.2284505 15.7164185,15.4465325 C16.0584665,15.0189724 16.4117208,14.7326537 16.7056967,14.5622513 L16.9113505,14.4517831 L17.1181984,14.3307929 C17.3526055,14.1875442 17.586958,14.0234974 17.8015474,13.8446729 C18.3250341,13.408434 18.6083984,12.9833874 18.6083984,12.6684497 C18.6083984,11.5767143 17.6888374,10.6684497 16.3863151,10.6684497 C15.0231972,10.6684497 14.3366883,11.3724423 14.2770947,12.3106546 L14.266113,12.5628486 C14.2083479,13.0601873 13.7856766,13.4462275 13.2728407,13.4462275 C12.720556,13.4462275 12.2728407,12.9985123 12.2728407,12.4462275 C12.2728407,10.3863011 13.7968376,8.66844973 16.3863151,8.66844973 Z" id="Shape" fill="#FA2398"></path>
    </g>
</svg>