<?xml version="1.0" encoding="UTF-8"?>
<svg width="32px" height="32px" viewBox="0 0 32 32" version="1.1" xmlns="http://www.w3.org/2000/svg" xmlns:xlink="http://www.w3.org/1999/xlink">
    <!-- Generator: Sketch 63.1 (92452) - https://sketch.com -->
    <title>Icons / hide</title>
    <desc>Created with Sketch.</desc>
    <g id="Icons-/-hide" stroke="none" stroke-width="1" fill="none" fill-rule="evenodd">
        <g id="Group">
            <rect id="Rectangle" x="0" y="0" width="32" height="32"></rect>
            <path d="M24.0328932,6.55289322 C24.4234175,6.16236893 25.0565825,6.16236893 25.4471068,6.55289322 C25.8376311,6.94341751 25.8376311,7.57658249 25.4471068,7.96710678 L22.6467762,10.7679778 C23.5846561,11.2059718 24.4765131,11.7328914 25.3212382,12.3362665 C26.2476479,12.9979877 27.051363,13.7071481 27.7311157,14.4185172 C28.1454606,14.852134 28.4311919,15.1969821 28.586405,15.4086363 C28.8445317,15.7606273 28.8445317,16.2393727 28.586405,16.5913637 C28.4311919,16.8030179 28.1454606,17.147866 27.7311157,17.5814828 C27.051363,18.2928519 26.2476479,19.0020123 25.3212382,19.6637335 C22.667765,21.5590715 19.549227,22.7 16,22.7 C14.3740178,22.7 12.8384272,22.4605458 11.3965334,22.018801 L7.96710678,25.4471068 C7.57658249,25.8376311 6.94341751,25.8376311 6.55289322,25.4471068 C6.16236893,25.0565825 6.16236893,24.4234175 6.55289322,24.0328932 L9.35322379,21.2320222 C8.41534395,20.7940282 7.52348694,20.2671086 6.67876181,19.6637335 C5.75235212,19.0020123 4.948637,18.2928519 4.26888431,17.5814828 C3.8545394,17.147866 3.5688081,16.8030179 3.413595,16.5913637 C3.15546833,16.2393727 3.15546833,15.7606273 3.413595,15.4086363 C3.5688081,15.1969821 3.8545394,14.852134 4.26888431,14.4185172 C4.948637,13.7071481 5.75235212,12.9979877 6.67876181,12.3362665 C9.33223504,10.4409285 12.450773,9.3 16,9.3 C17.6259822,9.3 19.1615728,9.53945418 20.6034666,9.98119903 L24.0328932,6.55289322 Z M21.1275787,12.2880156 L19.5632494,13.8519774 C19.9420332,14.4789762 20.16,15.2140337 20.16,16 C20.16,18.2975046 18.2975046,20.16 16,20.16 C15.2140337,20.16 14.4789762,19.9420332 13.8519774,19.5632494 L13.0336593,20.3817201 C13.9804953,20.5899175 14.9694362,20.7 16,20.7 C19.100773,20.7 21.824735,19.7034285 24.1587618,18.0362665 C24.9779771,17.4511127 25.6883245,16.8243356 26.2851343,16.1997672 C26.3519445,16.1298496 26.4143943,16.0631584 26.4724558,16 C26.4143943,15.9368416 26.3519445,15.8701504 26.2851343,15.8002328 C25.6883245,15.1756644 24.9779771,14.5488873 24.1587618,13.9637335 C23.2122073,13.2876231 22.2015211,12.7218029 21.1275787,12.2880156 Z M16,11.3 C12.899227,11.3 10.175265,12.2965715 7.84123819,13.9637335 C7.02202288,14.5488873 6.3116755,15.1756644 5.71486569,15.8002328 C5.64805548,15.8701504 5.58560574,15.9368416 5.52754416,16 C5.58560574,16.0631584 5.64805548,16.1298496 5.71486569,16.1997672 C6.3116755,16.8243356 7.02202288,17.4511127 7.84123819,18.0362665 C8.78779273,18.7123769 9.79847889,19.2781971 10.8724213,19.7119844 L12.4367506,18.1480226 C12.0579668,17.5210238 11.84,16.7859663 11.84,16 C11.84,13.7024954 13.7024954,11.84 16,11.84 C16.7859663,11.84 17.5210238,12.0579668 18.1480226,12.4367506 L18.9663407,11.6182799 C18.0195047,11.4100825 17.0305638,11.3 16,11.3 Z M18.061869,15.3544064 L15.3544064,18.061869 C15.5582677,18.1256346 15.7751206,18.16 16,18.16 C17.1929351,18.16 18.16,17.1929351 18.16,16 C18.16,15.7751206 18.1256346,15.5582677 18.061869,15.3544064 Z M16,13.84 C14.8070649,13.84 13.84,14.8070649 13.84,16 C13.84,16.2248794 13.8743654,16.4417323 13.938131,16.6455936 L16.6455936,13.938131 C16.4417323,13.8743654 16.2248794,13.84 16,13.84 Z" id="Shape" fill="#000000"></path>
        </g>
    </g>
</svg>