<?xml version="1.0" encoding="UTF-8"?>
<svg width="32px" height="32px" viewBox="0 0 32 32" version="1.1" xmlns="http://www.w3.org/2000/svg" xmlns:xlink="http://www.w3.org/1999/xlink">
    <!-- Generator: Sketch 63.1 (92452) - https://sketch.com -->
    <title>Icons / Home</title>
    <desc>Created with Sketch.</desc>
    <g id="Icons-/-Home" stroke="none" stroke-width="1" fill="none" fill-rule="evenodd">
        <g id="Group">
            <rect id="Rectangle" x="0" y="0" width="32" height="32"></rect>
            <path d="M3.6,17 C2.6887047,17 2.25233465,15.8805964 2.92320074,15.2638324 L15.3232007,3.86383238 C15.7058348,3.51205587 16.2941652,3.51205587 16.6767993,3.86383238 L29.0767993,15.2638324 C29.7476654,15.8805964 29.3112953,17 28.4,17 L24.22,17 L24.22,27.4 C24.22,27.9522847 23.7722847,28.4 23.22,28.4 L18.66,28.4 C18.1077153,28.4 17.66,27.9522847 17.66,27.4 L17.66,22.32 L13.58,22.32 L13.58,27.4 C13.58,27.9522847 13.1322847,28.4 12.58,28.4 L8.02,28.4 C7.46771525,28.4 7.02,27.9522847 7.02,27.4 L7.02,17 L3.6,17 Z M6.16526228,15 L8.02,15 C8.57228475,15 9.02,15.4477153 9.02,16 L9.02,26.4 L11.58,26.4 L11.58,21.32 C11.58,20.7677153 12.0277153,20.32 12.58,20.32 L18.66,20.32 C19.2122847,20.32 19.66,20.7677153 19.66,21.32 L19.66,26.4 L22.22,26.4 L22.22,16 C22.22,15.4477153 22.6677153,15 23.22,15 L25.8347377,15 L16,5.95838629 L6.16526228,15 Z" id="Path" fill="#FA2398"></path>
        </g>
    </g>
</svg>