<?xml version="1.0" encoding="UTF-8"?>
<svg width="32px" height="32px" viewBox="0 0 32 32" version="1.1" xmlns="http://www.w3.org/2000/svg" xmlns:xlink="http://www.w3.org/1999/xlink">
    <!-- Generator: Sketch 63.1 (92452) - https://sketch.com -->
    <title>Icons / info</title>
    <desc>Created with Sketch.</desc>
    <g id="Icons-/-info" stroke="none" stroke-width="1" fill="none" fill-rule="evenodd">
        <rect id="Rectangle" x="0" y="0" width="32" height="32"></rect>
        <path d="M24.792789,6.72601962 L25.0366922,6.96365131 L25.2743072,7.20751817 C30.0266068,12.2142958 29.947389,20.1260428 25.0367652,25.0362611 C20.0459475,30.0279032 11.9540525,30.0279032 6.96335163,25.0363779 C1.97209432,20.0459451 1.97209432,11.9544526 6.96323482,6.96372433 C11.8735363,2.05261167 19.7852846,1.97338604 24.792789,6.72601962 Z M8.37747758,8.37790868 C4.16738568,12.5876528 4.16738568,19.4126803 8.37756518,23.6221643 C12.5873075,27.8326022 19.4126925,27.8326022 23.6225224,23.6220767 C27.8326143,19.4123326 27.8326143,12.5873051 23.6225516,8.37793789 L23.3984923,8.16013428 C19.1736701,4.16867432 12.5134557,4.24124733 8.37747758,8.37790868 Z M16,12.8571997 C16.5128358,12.8571997 16.9355072,13.2432399 16.9932723,13.7405786 L17,13.8571997 L17,21.6999927 C17,22.2522774 16.5522847,22.6999927 16,22.6999927 C15.4871642,22.6999927 15.0644928,22.3139525 15.0067277,21.8166138 L15,21.6999927 L15,13.8571997 C15,13.304915 15.4477153,12.8571997 16,12.8571997 Z M16,9.2199927 C16.5522847,9.2199927 17,9.66770795 17,10.2199927 C17,10.7722774 16.5522847,11.2199927 16,11.2199927 C15.4477153,11.2199927 15,10.7722774 15,10.2199927 C15,9.66770795 15.4477153,9.2199927 16,9.2199927 Z" id="Shape" fill="#FA2398"></path>
    </g>
</svg>