<?xml version="1.0" encoding="UTF-8"?>
<svg width="32px" height="32px" viewBox="0 0 32 32" version="1.1" xmlns="http://www.w3.org/2000/svg" xmlns:xlink="http://www.w3.org/1999/xlink">
    <!-- Generator: Sketch 63.1 (92452) - https://sketch.com -->
    <title>Icons / invoice</title>
    <desc>Created with Sketch.</desc>
    <g id="Icons-/-invoice" stroke="none" stroke-width="1" fill="none" fill-rule="evenodd">
        <g id="Group">
            <rect id="Rectangle" x="0" y="0" width="32" height="32"></rect>
            <path d="M24.74,3.22 C25.2922847,3.22 25.74,3.66771525 25.74,4.22 L25.74,27.78 C25.74,28.3322847 25.2922847,28.78 24.74,28.78 L7.26,28.78 C6.70771525,28.78 6.26,28.3322847 6.26,27.78 L6.260018,9.53393516 C6.2602586,9.49342393 6.26290808,9.4534837 6.26783047,9.41425046 L6.26,9.54 C6.26,9.4871639 6.26418141,9.43475892 6.27236099,9.38322747 C6.2772036,9.35160666 6.28361582,9.32069364 6.29141743,9.29033802 C6.2942797,9.2801947 6.29704988,9.27010978 6.2999762,9.26007482 C6.30873224,9.22906007 6.31922617,9.19864932 6.33110396,9.16894148 C6.33496957,9.15998091 6.3387342,9.15094326 6.34263089,9.14196229 C6.35463815,9.11370048 6.36806791,9.08633874 6.38267436,9.05971413 C6.38855823,9.04934473 6.39461331,9.03874131 6.40086468,9.02824581 C6.41749759,9.00009338 6.43554946,8.97297305 6.45484452,8.94682621 C6.45963491,8.94041834 6.46483437,8.93353973 6.47012666,8.92672379 C6.49603219,8.8933831 6.52355549,8.86223095 6.55289322,8.83289322 L11.8728932,3.51289322 L11.954551,3.43968877 C11.9583997,3.43659988 11.9622718,3.43353888 11.9661669,3.43050608 L11.8728932,3.51289322 C11.9087373,3.47704911 11.9470224,3.44420712 11.9873576,3.41452909 C12.0129731,3.39554946 12.0400934,3.37749759 12.0680999,3.36077616 C12.0787413,3.35461331 12.0893447,3.34855823 12.1000503,3.34270185 C12.1263387,3.32806791 12.1537005,3.31463815 12.1817294,3.3024551 C12.1909433,3.2987342 12.1999809,3.29496957 12.2090723,3.29133823 C12.2386493,3.27922617 12.2690601,3.26873224 12.300094,3.25970188 C12.3101098,3.25704988 12.3201947,3.2542797 12.3303259,3.25166717 C12.3606936,3.24361582 12.3916067,3.2372036 12.4230053,3.23225258 C12.4336072,3.23071341 12.4440225,3.22922804 12.4544695,3.22790639 C12.4954402,3.22266262 12.5374091,3.22 12.58,3.22 L12.58,3.22 L24.74,3.22 Z M23.74,5.22 L13.579,5.219 L13.58,9.54 C13.58,10.0528358 13.1939598,10.4755072 12.6966211,10.5332723 L12.58,10.54 L8.259,10.54 L8.26,26.78 L23.74,26.78 L23.74,5.22 Z M21.32,21.1585352 C21.8722847,21.1585352 22.32,21.6062504 22.32,22.1585352 C22.32,22.7108199 21.8722847,23.1585352 21.32,23.1585352 L21.32,23.1585352 L10.68,23.1585352 C10.1277153,23.1585352 9.68,22.7108199 9.68,22.1585352 C9.68,21.6062504 10.1277153,21.1585352 10.68,21.1585352 L10.68,21.1585352 Z M21.32,16.1585352 C21.8722847,16.1585352 22.32,16.6062504 22.32,17.1585352 C22.32,17.7108199 21.8722847,18.1585352 21.32,18.1585352 L21.32,18.1585352 L10.68,18.1585352 C10.1277153,18.1585352 9.68,17.7108199 9.68,17.1585352 C9.68,16.6062504 10.1277153,16.1585352 10.68,16.1585352 L10.68,16.1585352 Z M21.32,11.1585352 C21.8722847,11.1585352 22.32,11.6062504 22.32,12.1585352 C22.32,12.7108199 21.8722847,13.1585352 21.32,13.1585352 L21.32,13.1585352 L16,13.1585352 C15.4477153,13.1585352 15,12.7108199 15,12.1585352 C15,11.6062504 15.4477153,11.1585352 16,11.1585352 L16,11.1585352 Z M11.579,6.634 L9.673,8.54 L11.58,8.54 L11.579,6.634 Z" id="Combined-Shape" fill="#FA2398"></path>
        </g>
    </g>
</svg>