<?xml version="1.0" encoding="UTF-8"?>
<svg width="32px" height="32px" viewBox="0 0 32 32" version="1.1" xmlns="http://www.w3.org/2000/svg" xmlns:xlink="http://www.w3.org/1999/xlink">
    <!-- Generator: Sketch 63.1 (92452) - https://sketch.com -->
    <title>Icons / Key</title>
    <desc>Created with Sketch.</desc>
    <g id="Icons-/-Key" stroke="none" stroke-width="1" fill="none" fill-rule="evenodd">
        <g id="Group">
            <rect id="Rectangle" x="0" y="0" width="32" height="32"></rect>
            <path d="M23.41,10.44 C26.4807032,10.44 28.97,12.9292968 28.97,16 C28.97,19.0707032 26.4807032,21.56 23.41,21.56 C20.6807192,21.56 18.4107428,19.5934843 17.9396998,17.0000818 L10.35,16.999 L10.35,18.28 C10.35,18.7928358 9.96395981,19.2155072 9.46662113,19.2732723 L9.35,19.28 C8.83716416,19.28 8.41449284,18.8939598 8.35672773,18.3966211 L8.35,18.28 L8.35,16.999 L7.309,16.999 L7.31,19.8 C7.31,20.3128358 6.92395981,20.7355072 6.42662113,20.7932723 L6.31,20.8 C5.79716416,20.8 5.37449284,20.4139598 5.31672773,19.9166211 L5.31,19.8 L5.309,16.999 L4.03,17 C3.51716416,17 3.09449284,16.6139598 3.03672773,16.1166211 L3.03,16 C3.03,15.4871642 3.41604019,15.0644928 3.91337887,15.0067277 L4.03,15 L17.939881,14.998921 C18.4113248,12.4060116 20.6810691,10.44 23.41,10.44 Z M23.41,12.44 C21.4438663,12.44 19.85,14.0338663 19.85,16 C19.85,17.9661337 21.4438663,19.56 23.41,19.56 C25.3761337,19.56 26.97,17.9661337 26.97,16 C26.97,14.0338663 25.3761337,12.44 23.41,12.44 Z" id="Shape" fill="#FA2398"></path>
        </g>
    </g>
</svg>