<?xml version="1.0" encoding="UTF-8"?>
<svg width="32px" height="32px" viewBox="0 0 32 32" version="1.1" xmlns="http://www.w3.org/2000/svg" xmlns:xlink="http://www.w3.org/1999/xlink">
    <!-- Generator: Sketch 63.1 (92452) - https://sketch.com -->
    <title>Icons / List-view</title>
    <desc>Created with Sketch.</desc>
    <g id="Icons-/-List-view" stroke="none" stroke-width="1" fill="none" fill-rule="evenodd">
        <g id="Group">
            <rect id="Rectangle" x="0" y="0" width="32" height="32"></rect>
            <path d="M10.5492383,22.03 L27.5307617,22.03 C28.0830465,22.03 28.5307617,22.4777153 28.5307617,23.03 C28.5307617,23.5428358 28.1447215,23.9655072 27.6473828,24.0232723 L27.5307617,24.03 L10.5492383,24.03 C9.99695353,24.03 9.54923828,23.5822847 9.54923828,23.03 C9.54923828,22.5171642 9.93527847,22.0944928 10.4326172,22.0367277 L10.5492383,22.03 L27.5307617,22.03 L10.5492383,22.03 Z M4.46923828,21.97 L5.74923828,21.97 C6.30152303,21.97 6.74923828,22.4177153 6.74923828,22.97 C6.74923828,23.4828358 6.36319809,23.9055072 5.86585941,23.9632723 L5.74923828,23.97 L4.46923828,23.97 C3.91695353,23.97 3.46923828,23.5222847 3.46923828,22.97 C3.46923828,22.4571642 3.85527847,22.0344928 4.35261716,21.9767277 L4.46923828,21.97 Z M27.5307617,15.03 C28.0830465,15.03 28.5307617,15.4777153 28.5307617,16.03 C28.5307617,16.5428358 28.1447215,16.9655072 27.6473828,17.0232723 L27.5307617,17.03 L10.5492383,17.03 C9.99695353,17.03 9.54923828,16.5822847 9.54923828,16.03 C9.54923828,15.5171642 9.93527847,15.0944928 10.4326172,15.0367277 L10.5492383,15.03 L27.5307617,15.03 Z M5.74923828,14.97 C6.30152303,14.97 6.74923828,15.4177153 6.74923828,15.97 C6.74923828,16.4828358 6.36319809,16.9055072 5.86585941,16.9632723 L5.74923828,16.97 L4.46923828,16.97 C3.91695353,16.97 3.46923828,16.5222847 3.46923828,15.97 C3.46923828,15.4571642 3.85527847,15.0344928 4.35261716,14.9767277 L4.46923828,14.97 L5.74923828,14.97 Z M27.5307617,8.03 C28.0830465,8.03 28.5307617,8.47771525 28.5307617,9.03 C28.5307617,9.54283584 28.1447215,9.96550716 27.6473828,10.0232723 L27.5307617,10.03 L10.5492383,10.03 C9.99695353,10.03 9.54923828,9.58228475 9.54923828,9.03 C9.54923828,8.51716416 9.93527847,8.09449284 10.4326172,8.03672773 L10.5492383,8.03 L27.5307617,8.03 Z M5.74923828,7.97 C6.30152303,7.97 6.74923828,8.41771525 6.74923828,8.97 C6.74923828,9.48283584 6.36319809,9.90550716 5.86585941,9.96327227 L5.74923828,9.97 L4.46923828,9.97 C3.91695353,9.97 3.46923828,9.52228475 3.46923828,8.97 C3.46923828,8.45716416 3.85527847,8.03449284 4.35261716,7.97672773 L4.46923828,7.97 L5.74923828,7.97 Z" id="Shape" fill="#FA2398"></path>
        </g>
    </g>
</svg>