<?xml version="1.0" encoding="UTF-8"?>
<svg width="32px" height="32px" viewBox="0 0 32 32" version="1.1" xmlns="http://www.w3.org/2000/svg" xmlns:xlink="http://www.w3.org/1999/xlink">
    <!-- Generator: Sketch 63.1 (92452) - https://sketch.com -->
    <title>Icons / Location</title>
    <desc>Created with Sketch.</desc>
    <g id="Icons-/-Location" stroke="none" stroke-width="1" fill="none" fill-rule="evenodd">
        <g id="Group">
            <rect id="Rectangle" x="0" y="0" width="32" height="32"></rect>
            <path d="M15.9959094,2.07443532 L16.328045,2.07632889 C18.7588711,2.13181052 21.0762357,3.09923422 22.8121787,4.77024354 L23.275863,5.2331546 C25.0106351,7.02811566 25.9776507,9.41910363 25.9823996,11.9122605 C25.9902253,11.9581486 25.9949354,12.0051217 25.9963021,12.0529585 C26.0316174,13.2889925 25.8141499,14.4909415 25.3433302,15.604832 L25.2977768,15.6986386 L18.158047,28.6373232 C17.7191925,29.4326194 16.8826698,29.9264465 15.9743255,29.9264465 C15.0654349,29.9264465 14.2287061,29.4313632 13.7911877,28.6347078 L6.68580993,15.696878 L6.64122575,15.604832 C6.16525195,14.4787476 5.95070273,13.2480695 6.00844653,12.0739312 C5.97546794,9.52358649 6.94592704,7.07070049 8.69007375,5.25771433 L9.15809545,4.78961162 C10.9956639,3.01984655 13.4477015,2.03992926 15.9959094,2.07443532 Z M16.0076895,4.07443906 L15.6789217,4.0758527 C13.6769883,4.12510109 11.7672574,4.96428532 10.3359912,6.43896263 C8.82014758,7.90955716 7.98096643,9.93587261 8.00723108,12.1085664 C7.96337048,13.0296388 8.11931808,13.9450752 8.46444399,14.7807501 L15.5442159,27.6719554 C15.6304133,27.828908 15.7952609,27.9264465 15.9743255,27.9264465 C16.1542837,27.9264465 16.3200128,27.8286111 16.4069572,27.6710497 L23.5205147,14.7797948 C23.8443185,13.9960364 24.0045509,13.151852 23.999996,12.2743817 L23.9860409,12.1792885 L23.9813222,12.0815183 L23.9800883,11.7586221 C23.9344619,9.85117172 23.1875465,8.04102733 21.8590496,6.64612244 L21.417361,6.20446199 C19.9603068,4.81497004 18.0232538,4.04854316 16.0076895,4.07443906 Z M12.0870718,8.19939389 L12.2839027,8.01050725 C14.3718195,6.1018629 17.5706364,6.09470789 19.6659469,7.98814386 L19.8533281,8.16551016 L20.059298,8.38965974 C21.8663938,10.4845571 21.7748727,13.7212231 19.8718377,15.9533842 C17.7900133,18.0352086 14.4597449,18.0985277 12.3000417,16.1414679 L12.1178474,15.968772 L11.9304744,15.7749528 C10.0044404,13.6861473 9.99726375,10.4830266 11.9080778,8.38684466 L12.0870718,8.19939389 L12.2839027,8.01050725 L12.0870718,8.19939389 Z M18.4576242,9.59821965 L18.4438898,9.58448527 C17.1268127,8.28047062 15.0345847,8.23778317 13.6657167,9.45750038 L13.5166732,9.59821965 L13.3602718,9.76296194 C12.1835476,11.0836069 12.1871073,13.0694169 13.3744218,14.3898424 L13.5166732,14.5391706 L13.6783852,14.6913053 C15.0507339,15.903298 17.1419745,15.8549839 18.4030564,14.5983176 C19.6203777,13.1673605 19.6884804,11.0612701 18.5895982,9.74634701 L18.4438898,9.58448527 L18.4576242,9.59821965 Z" id="map-marker_1_" fill="#FA2398"></path>
        </g>
    </g>
</svg>