<?xml version="1.0" encoding="UTF-8"?>
<svg width="32px" height="32px" viewBox="0 0 32 32" version="1.1" xmlns="http://www.w3.org/2000/svg" xmlns:xlink="http://www.w3.org/1999/xlink">
    <!-- Generator: Sketch 63.1 (92452) - https://sketch.com -->
    <title>Icons / lock</title>
    <desc>Created with Sketch.</desc>
    <g id="Icons-/-lock" stroke="none" stroke-width="1" fill="none" fill-rule="evenodd">
        <g id="Group">
            <rect id="Rectangle" x="0" y="0" width="32" height="32"></rect>
            <path d="M16.12,3 C19.9505418,3 23.0703178,6.04160171 23.1960602,9.84153726 L23.2,10.08 L23.199,15.16 L25.24,15.16 C25.7922847,15.16 26.24,15.6077153 26.24,16.16 L26.24,27.56 C26.24,28.1122847 25.7922847,28.56 25.24,28.56 L7,28.56 C6.44771525,28.56 6,28.1122847 6,27.56 L6,16.16 C6,15.6077153 6.44771525,15.16 7,15.16 L9.039,15.16 L9.04,10.08 C9.04,6.33095909 11.9535488,3.26276036 15.6400401,3.01601003 L15.8815373,3.00393977 L16.12,3 Z M24.24,17.16 L8,17.16 L8,26.56 L24.24,26.56 L24.24,17.16 Z M16.12,18.96 C17.5117576,18.96 18.64,20.0882424 18.64,21.48 C18.64,22.5160862 18.0147308,23.4061329 17.1209524,23.7933803 L17.12,24.52 C17.12,25.0722847 16.6722847,25.52 16.12,25.52 C15.5677153,25.52 15.12,25.0722847 15.12,24.52 L15.1200482,23.7938136 C14.2257359,23.4067971 13.6,22.5164728 13.6,21.48 C13.6,20.0882424 14.7282424,18.96 16.12,18.96 Z M16.12,20.96 C15.8328119,20.96 15.6,21.1928119 15.6,21.48 C15.6,21.7651294 15.8294861,21.9966594 16.1138324,21.9999642 L16.1261171,22.0000183 C16.4071881,22 16.64,21.7671881 16.64,21.48 C16.64,21.1928119 16.4071881,20.96 16.12,20.96 Z M16.12,5 C13.3861677,5 11.1569764,7.15909306 11.0444563,9.86524894 L11.04,10.08 L11.039,15.16 L21.199,15.16 L21.2,10.08 C21.2,7.42005506 19.1560375,5.23784183 16.5529385,5.01818613 L16.3347511,5.00445627 L16.12,5 Z" id="Shape" fill="#FA2398"></path>
        </g>
    </g>
</svg>