<?xml version="1.0" encoding="UTF-8"?>
<svg width="32px" height="32px" viewBox="0 0 32 32" version="1.1" xmlns="http://www.w3.org/2000/svg" xmlns:xlink="http://www.w3.org/1999/xlink">
    <!-- Generator: Sketch 63.1 (92452) - https://sketch.com -->
    <title>Icons / Logout</title>
    <desc>Created with Sketch.</desc>
    <g id="Icons-/-Logout" stroke="none" stroke-width="1" fill="none" fill-rule="evenodd">
        <g id="Group">
            <rect id="Rectangle" x="0" y="0" width="32" height="32"></rect>
            <path d="M18,4 C20.1421954,4 21.8910789,5.68396847 21.9951047,7.80035966 L22,8 L22,9.32795699 C22,9.88024174 21.5522847,10.327957 21,10.327957 C20.4871642,10.327957 20.0644928,9.9419168 20.0067277,9.44457811 L20,9.32795699 L20,8 C20,6.9456382 19.1841222,6.08183488 18.1492623,6.00548574 L18,6 L8,6 C6.9456382,6 6.08183488,6.81587779 6.00548574,7.85073766 L6,8 L6,24 C6,25.0543618 6.81587779,25.9181651 7.85073766,25.9945143 L8,26 L18,26 C19.0543618,26 19.9181651,25.1841222 19.9945143,24.1492623 L20,24 L20,22.672043 C20,22.1197583 20.4477153,21.672043 21,21.672043 C21.5128358,21.672043 21.9355072,22.0580832 21.9932723,22.5554219 L22,22.672043 L22,24 C22,26.1421954 20.3160315,27.8910789 18.1996403,27.9951047 L18,28 L8,28 C5.85780461,28 4.10892112,26.3160315 4.00489531,24.1996403 L4,24 L4,8 C4,5.85780461 5.68396847,4.10892112 7.80035966,4.00489531 L8,4 L18,4 Z M26.2282841,11.8250892 L26.3224914,11.9082778 L29.7071068,15.2928932 L29.7672674,15.3585765 L29.8353719,15.4500921 L29.9062701,15.5767381 L29.9392965,15.6560992 L29.9640934,15.7337835 L29.9877546,15.8435327 L29.9982663,15.9408749 L30,16 C30,16.0524811 29.9959572,16.104018 29.988166,16.1543162 L29.964279,16.2658396 L29.9392919,16.3438844 L29.8852846,16.465484 L29.8342429,16.5516135 L29.7803112,16.625449 L29.7071068,16.7071068 L26.3224914,20.0917222 C25.9319671,20.4822465 25.2988021,20.4822465 24.9082778,20.0917222 C24.5477939,19.7312382 24.5200643,19.1640071 24.8250892,18.7717159 L24.9082778,18.6775086 L26.5845385,16.9993846 L14.4615385,17 C13.9092537,17 13.4615385,16.5522847 13.4615385,16 C13.4615385,15.4871642 13.8475787,15.0644928 14.3449173,15.0067277 L14.4615385,15 L26.5845385,14.9993846 L24.9082778,13.3224914 C24.5477939,12.9620074 24.5200643,12.3947764 24.8250892,12.0024852 L24.9082778,11.9082778 C25.2687618,11.5477939 25.8359929,11.5200643 26.2282841,11.8250892 Z" id="Combined-Shape" fill="#FA2398"></path>
        </g>
    </g>
</svg>