<?xml version="1.0" encoding="UTF-8"?>
<svg width="32px" height="32px" viewBox="0 0 32 32" version="1.1" xmlns="http://www.w3.org/2000/svg" xmlns:xlink="http://www.w3.org/1999/xlink">
    <!-- Generator: Sketch 63.1 (92452) - https://sketch.com -->
    <title>Icons / menu-open</title>
    <desc>Created with Sketch.</desc>
    <g id="Icons-/-menu-open" stroke="none" stroke-width="1" fill="none" fill-rule="evenodd">
        <g id="Group">
            <rect id="Rectangle" x="0" y="0" width="32" height="32"></rect>
            <path d="M4,8 C4,7.44771525 4.44771525,7 5,7 L27,7 C27.5522847,7 28,7.44771525 28,8 C28,8.55228475 27.5522847,9 27,9 L5,9 C4.44771525,9 4,8.55228475 4,8 Z M4,16 C4,15.4477153 4.44771525,15 5,15 L27,15 C27.5522847,15 28,15.4477153 28,16 C28,16.5522847 27.5522847,17 27,17 L5,17 C4.44771525,17 4,16.5522847 4,16 Z M4,24 C4,23.4477153 4.44771525,23 5,23 L27,23 C27.5522847,23 28,23.4477153 28,24 C28,24.5522847 27.5522847,25 27,25 L5,25 C4.44771525,25 4,24.5522847 4,24 Z" id="Shape" fill="#FA2398"></path>
        </g>
    </g>
</svg>