<?xml version="1.0" encoding="UTF-8"?>
<svg width="32px" height="32px" viewBox="0 0 32 32" version="1.1" xmlns="http://www.w3.org/2000/svg" xmlns:xlink="http://www.w3.org/1999/xlink">
    <!-- Generator: Sketch 63.1 (92452) - https://sketch.com -->
    <title>Icons / menu-close</title>
    <desc>Created with Sketch.</desc>
    <g id="Icons-/-menu-close" stroke="none" stroke-width="1" fill="none" fill-rule="evenodd">
        <rect id="Rectangle" x="0" y="0" width="32" height="32"></rect>
        <path d="M24.4852814,7.51471863 C24.8758057,7.90524292 24.8758057,8.5384079 24.4852814,8.92893219 L17.4142136,16 L24.4852814,23.0710678 C24.8758057,23.4615921 24.8758057,24.0947571 24.4852814,24.4852814 C24.0947571,24.8758057 23.4615921,24.8758057 23.0710678,24.4852814 L15.9992929,17.4135065 L8.92893219,24.4852814 C8.5384079,24.8758057 7.90524292,24.8758057 7.51471863,24.4852814 C7.12419433,24.0947571 7.12419433,23.4615921 7.51471863,23.0710678 L14.5850793,15.9992929 L7.51471863,8.92893219 C7.12419433,8.5384079 7.12419433,7.90524292 7.51471863,7.51471863 C7.90524292,7.12419433 8.5384079,7.12419433 8.92893219,7.51471863 L16,14.5857864 L23.0710678,7.51471863 C23.4615921,7.12419433 24.0947571,7.12419433 24.4852814,7.51471863 Z" id="Path" fill="#FA2398"></path>
    </g>
</svg>