<?xml version="1.0" encoding="UTF-8"?>
<svg width="32px" height="32px" viewBox="0 0 32 32" version="1.1" xmlns="http://www.w3.org/2000/svg" xmlns:xlink="http://www.w3.org/1999/xlink">
    <!-- Generator: Sketch 63.1 (92452) - https://sketch.com -->
    <title>Icons / minus-circle</title>
    <desc>Created with Sketch.</desc>
    <g id="Icons-/-minus-circle" stroke="none" stroke-width="1" fill="none" fill-rule="evenodd">
        <rect id="Rectangle" x="0" y="0" width="32" height="32"></rect>
        <path d="M16,3.22038 C23.0579892,3.22038 28.77962,8.94201077 28.77962,16 C28.77962,23.0579892 23.0579892,28.77962 16,28.77962 C8.94201077,28.77962 3.22038,23.0579892 3.22038,16 C3.22038,8.94201077 8.94201077,3.22038 16,3.22038 Z M16,5.22038 C10.0465803,5.22038 5.22038,10.0465803 5.22038,16 C5.22038,21.9534197 10.0465803,26.77962 16,26.77962 C21.9534197,26.77962 26.77962,21.9534197 26.77962,16 C26.77962,10.0465803 21.9534197,5.22038 16,5.22038 Z M9.16,15 L22.84,15 C23.3922847,15 23.84,15.4477153 23.84,16 C23.84,16.5128358 23.4539598,16.9355072 22.9566211,16.9932723 L22.84,17 L9.16,17 C8.60771525,17 8.16,16.5522847 8.16,16 C8.16,15.4871642 8.54604019,15.0644928 9.04337887,15.0067277 L9.16,15 L22.84,15 L9.16,15 Z" id="Shape" fill="#FA2398"></path>
    </g>
</svg>