<?xml version="1.0" encoding="UTF-8"?>
<svg width="32px" height="32px" viewBox="0 0 32 32" version="1.1" xmlns="http://www.w3.org/2000/svg" xmlns:xlink="http://www.w3.org/1999/xlink">
    <!-- Generator: Sketch 63.1 (92452) - https://sketch.com -->
    <title>Icons / more-options</title>
    <desc>Created with Sketch.</desc>
    <g id="Icons-/-more-options" stroke="none" stroke-width="1" fill="none" fill-rule="evenodd">
        <g id="Group">
            <rect id="Rectangle" x="0" y="0" width="32" height="32"></rect>
            <path d="M16,6 C14.895431,6 14,6.8954305 14,8 C14,9.1045695 14.895431,10 16,10 C17.104569,10 18,9.1045695 18,8 C18,6.8954305 17.104569,6 16,6 Z M16,14 C14.895431,14 14,14.895431 14,16 C14,17.104569 14.895431,18 16,18 C17.104569,18 18,17.104569 18,16 C18,14.895431 17.104569,14 16,14 Z M16,22 C14.895431,22 14,22.895431 14,24 C14,25.104569 14.895431,26 16,26 C17.104569,26 18,25.104569 18,24 C18,22.895431 17.104569,22 16,22 Z" id="Shape" fill="#FA2398"></path>
        </g>
    </g>
</svg>