<?xml version="1.0" encoding="UTF-8"?>
<svg width="32px" height="32px" viewBox="0 0 32 32" version="1.1" xmlns="http://www.w3.org/2000/svg" xmlns:xlink="http://www.w3.org/1999/xlink">
    <!-- Generator: Sketch 63.1 (92452) - https://sketch.com -->
    <title>Icons / mouse-pointer</title>
    <desc>Created with Sketch.</desc>
    <g id="Icons-/-mouse-pointer" stroke="none" stroke-width="1" fill="none" fill-rule="evenodd">
        <g id="Group">
            <rect id="Rectangle" x="0" y="0" width="32" height="32"></rect>
            <path d="M9.10083568,4.63056782 L9.09228516,4.76171875 L9.09228516,25.765345 C9.09228516,26.3235257 9.54478002,26.7760205 10.1029607,26.7760205 C10.2915915,26.7760205 10.4754732,26.7232585 10.6343666,26.6250408 L10.7485352,26.5429688 L14.7797852,23.1679688 L16.8110352,27.1992188 C17.0292954,27.6513292 17.5495108,27.8596549 18.0125436,27.6989153 L18.1423731,27.6431388 L18.1423731,27.6431388 L21.2485352,26.0429688 C21.6990803,25.8176962 21.9039964,25.2951524 21.7421451,24.8305124 L21.6860352,24.6992188 L19.8422852,21.0742188 L24.9183278,20.447552 C25.4620308,20.3806347 25.8485419,19.8856291 25.7816246,19.3419261 C25.7600065,19.1662787 25.691911,19.0004454 25.5854488,18.8610492 L25.4985352,18.7617188 L10.8092985,4.04126363 C10.4114021,3.65060173 9.7721493,3.65646644 9.3814874,4.05436281 C9.22702508,4.21168555 9.12916507,4.41429429 9.10083568,4.63056782 Z M11.0922852,7.19921875 L22.6547852,18.7304688 L18.1547852,19.2617188 L16.7485352,19.4492188 L17.4047852,20.7304688 L19.4672852,24.7304688 L18.1547852,25.4179688 L15.9985352,21.1054688 L15.4047852,19.9804688 L11.0922852,23.6054688 L11.0922852,7.19921875 Z" id="Shape" fill="#FA2398"></path>
        </g>
    </g>
</svg>