<?xml version="1.0" encoding="UTF-8"?>
<svg width="32px" height="32px" viewBox="0 0 32 32" version="1.1" xmlns="http://www.w3.org/2000/svg" xmlns:xlink="http://www.w3.org/1999/xlink">
    <!-- Generator: Sketch 63.1 (92452) - https://sketch.com -->
    <title>Icons / my-orders</title>
    <desc>Created with Sketch.</desc>
    <g id="Icons-/-my-orders" stroke="none" stroke-width="1" fill="none" fill-rule="evenodd">
        <g id="Group">
            <rect id="Rectangle" x="0" y="0" width="32" height="32"></rect>
            <path d="M16.5921094,3.05351731 L28.0779649,8.87325168 C28.739009,9.20377377 29.15,9.86881941 29.15,10.6080408 L29.15,21.391947 C29.15,22.1311058 28.7390204,22.7961025 28.0786797,23.1263255 L16.5918915,28.9465284 C16.3231971,29.0803308 16.0271094,29.1492322 15.7275586,29.1492322 C15.415725,29.1492322 15.1077026,29.0745541 14.830171,28.9298394 L3.88998403,23.1234781 C3.24855573,22.7876307 2.85,22.1291964 2.85,21.4051501 L2.85,10.5947869 C2.85,9.87073044 3.24856472,9.21225077 3.88924285,8.87679883 L9.77934047,5.75133099 C9.8217927,5.72404446 9.86567929,5.70049389 9.91089575,5.68090896 L14.8305755,3.06990997 C15.3795906,2.78364924 16.0376714,2.77748216 16.5921094,3.05351731 Z M27.3270196,11.4979946 L23.1471484,13.5789516 L23.1471484,16.852154 C23.1471484,17.3555163 22.7390458,17.7636189 22.2356836,17.7636189 C21.7682758,17.7636189 21.3830051,17.4117345 21.3303512,16.9584453 L21.3242187,16.852154 L21.3242188,14.4865227 L16.6280547,16.8245333 L16.6280547,26.8846473 L27.2623526,21.4963862 C27.289173,21.4830357 27.3089737,21.4610376 27.3191942,21.4345127 L27.3270196,21.3918454 L27.3270196,11.4979946 Z M4.67287891,11.5293446 L4.67287891,21.4051501 C4.67287891,21.4343397 4.68348968,21.4615568 4.7022191,21.482544 L4.7360907,21.5088202 L14.805125,26.8528695 L14.805125,16.8128004 L4.67287891,11.5293446 Z M10.276853,7.55050152 L5.6719252,9.99444885 L15.7261903,15.2372531 L20.402945,12.9089319 L10.276853,7.55050152 Z M15.7090062,4.67422207 L15.6761053,4.68482152 L12.222691,6.5176706 L22.4110393,11.90915 L26.2572959,9.99428728 L15.7769139,4.68399729 L15.7090062,4.67422207 Z" id="Shape" fill="#FA2398"></path>
        </g>
    </g>
</svg>