<?xml version="1.0" encoding="UTF-8"?>
<svg width="32px" height="32px" viewBox="0 0 32 32" version="1.1" xmlns="http://www.w3.org/2000/svg" xmlns:xlink="http://www.w3.org/1999/xlink">
    <!-- Generator: Sketch 63.1 (92452) - https://sketch.com -->
    <title>Icons / phone</title>
    <desc>Created with Sketch.</desc>
    <g id="Icons-/-phone" stroke="none" stroke-width="1" fill="none" fill-rule="evenodd">
        <g id="Group">
            <rect id="Rectangle" x="0" y="0" width="32" height="32"></rect>
            <path d="M10.2217581,3.60071917 L10.1312702,3.51848894 C9.26977602,2.82717035 8.05607043,2.82717035 7.19457628,3.51848894 L7.10143378,3.60345728 L4.01477831,6.79949836 C3.08295268,7.59502558 2.74661899,9.02884752 3.20021097,10.2421526 C4.46389865,13.8873255 6.89808821,18.0730777 10.3983138,21.5840867 C13.8246424,25.0209711 17.5317169,27.1662567 21.6921945,28.7992853 C22.9580131,29.2239063 24.2211831,28.9630407 25.1922534,28.1281305 L28.3349819,24.9798804 C29.2216727,24.0904578 29.2216727,22.7589422 28.3349819,21.8695196 L24.2526311,17.774592 C23.3659402,16.8851694 22.0385141,16.8851694 21.1518232,17.774592 L19.1592385,19.7733155 C19.0013398,19.6935075 18.8341949,19.6059957 18.6593755,19.5109487 C17.8165546,19.0527182 16.9738569,18.517839 16.1919987,17.9148102 C15.792228,17.6064765 15.4185485,17.2876499 15.0756747,16.959353 C14.6678668,16.5688826 14.2802391,16.1270395 13.914158,15.6429914 C13.3646895,14.9164606 12.8906032,14.1328891 12.4955316,13.3493182 C12.4158208,13.1912226 12.345393,13.0456859 12.2842934,12.9149055 L14.2956779,10.8973244 C15.1789522,10.011329 15.1957205,8.55811009 14.2685111,7.75894466 L10.2217581,3.60071917 Z M12.896364,9.21664806 L12.9627753,9.27388821 C12.9743869,9.28389635 12.9746264,9.38965839 12.879291,9.48528759 L9.88004149,12.4937771 L10.4722922,13.7614583 C10.5450961,13.9172911 10.6244921,14.0807673 10.7096831,14.249732 C11.1752137,15.1730489 11.7154337,16.0513592 12.3189876,16.849404 C12.7524693,17.4225721 13.2105865,17.9425131 13.6925021,18.4039406 C14.0845149,18.7792876 14.5113541,19.1443298 14.9705429,19.4984913 C15.8094716,20.1455372 16.7328588,20.7400116 17.7040662,21.2680441 C17.8921084,21.3702801 18.0769563,21.467242 18.2570549,21.5582706 L19.5515669,22.2125657 L22.5682102,19.1866288 C22.6733579,19.0811571 22.7310964,19.0811571 22.8362441,19.1866288 L26.9185949,23.2815564 C27.027135,23.390431 27.027135,23.458969 26.9185949,23.5678436 L23.8401016,26.651745 C23.4141392,26.994346 22.9164832,27.0877556 22.3688288,26.9162823 C18.1162381,25.2406123 14.7999555,23.1665015 11.8147008,20.1720499 C8.74388838,17.091777 6.35847433,13.2463828 5.08987892,9.58705333 C4.90802512,9.09896397 5.0358088,8.55753247 5.3133657,8.3205739 L5.38654905,8.2580951 L8.48198482,5.05296257 C8.5950776,4.98211102 8.73205117,4.98234659 8.84498515,5.05366928 L12.896364,9.21664806 Z" id="Path" fill="#FA2398"></path>
        </g>
    </g>
</svg>