<?xml version="1.0" encoding="UTF-8"?>
<svg width="32px" height="32px" viewBox="0 0 32 32" version="1.1" xmlns="http://www.w3.org/2000/svg" xmlns:xlink="http://www.w3.org/1999/xlink">
    <!-- Generator: Sketch 63.1 (92452) - https://sketch.com -->
    <title>Icons / pig-bank</title>
    <desc>Created with Sketch.</desc>
    <g id="Icons-/-pig-bank" stroke="none" stroke-width="1" fill="none" fill-rule="evenodd">
        <rect id="Rectangle" x="0" y="0" width="32" height="32"></rect>
        <path d="M25.9175037,7.89801625 C26.4303396,7.89801625 26.8530109,8.28405644 26.910776,8.78139513 L26.9175037,8.89801625 L26.917,14.403 L26.949927,14.4472274 C27.1805647,14.7759432 27.3866972,15.1144466 27.5676335,15.4617439 L27.7401454,15.8119356 L27.764,15.865 L29.1574555,15.8651107 C29.6308424,15.8651107 30.0274028,16.1940443 30.1310448,16.6358199 L30.1507277,16.7484896 L30.1574555,16.8651107 L30.1574555,23.2387862 C30.1574555,23.7516221 29.7714153,24.1742934 29.2740766,24.2320585 L29.1574555,24.2387862 L26.816,24.238 L26.6746168,24.4302353 C26.4300477,24.7461047 26.1635153,25.0496571 25.8757571,25.3402686 L25.5809508,25.6265435 L25.324,25.857 L25.3240849,29.6655757 C25.3240849,30.1389627 24.9951512,30.535523 24.5533757,30.639165 L24.440706,30.658848 L24.3240849,30.6655757 L19.5438282,30.6655757 C19.0309924,30.6655757 18.608321,30.2795355 18.5505559,29.7821969 L18.5438282,29.6655757 L18.543,28.86 L18.4254176,28.878414 C17.2319906,29.0407673 16.0044689,29.0611267 14.8024665,28.9396209 L14.2890589,28.8788617 L14.17,28.86 L14.1701527,29.6655757 C14.1701527,30.1389627 13.841219,30.535523 13.3994435,30.639165 L13.2867738,30.658848 L13.1701527,30.6655757 L8.38989601,30.6655757 C7.87706017,30.6655757 7.45438885,30.2795355 7.39662374,29.7821969 L7.38989601,29.6655757 L7.389,25.86 L7.25679588,25.7433534 C5.84637945,24.4617552 4.8758515,22.8831463 4.44838529,21.1370306 C2.58174776,21.513274 1.26858237,20.5726054 1.26858237,18.9508201 C1.26858237,18.3985353 1.71629762,17.9508201 2.26858237,17.9508201 C2.78141821,17.9508201 3.20408953,18.3368603 3.26185464,18.834199 L3.27056397,19.0011698 C3.29350451,19.2798952 3.52138107,19.4099908 4.25165289,19.1532406 C4.25921598,18.8228135 4.27631837,18.5571614 4.31000164,18.2129498 C4.85063009,14.0724767 8.47417457,10.754635 13.4145859,9.77734364 L13.62,9.738 L13.7463583,9.70883362 C15.9015165,9.35115388 18.0810887,9.44078309 20.1004076,9.96071846 L20.5305987,10.0787133 L20.927,10.2 L20.9993411,10.0893372 C21.8187444,8.8722777 23.1471082,8.06441119 24.6412878,7.92094057 L24.8917942,7.90322437 L25.1207943,7.89801625 L25.9175037,7.89801625 Z M24.917,9.905 L24.7351769,9.92283446 C23.6596351,10.0622211 22.743207,10.7780641 22.3497199,11.7994406 C22.1494193,12.3193619 21.5628255,12.5753072 21.0454472,12.3685267 C19.0557464,11.5733036 16.7761397,11.3114788 14.5003937,11.6177533 L14.153,11.669 L14.0775223,11.6880319 C9.98937045,12.4057235 7.02101277,14.9195139 6.37677774,17.971147 L6.33182557,18.2069277 L6.29692168,18.4388806 L6.26943632,18.7671844 C6.25012257,19.0501174 6.24451428,19.3169157 6.243063,19.7313662 C6.24758346,19.7832757 6.2483483,19.8332127 6.24543574,19.8827058 L6.24272647,19.8708517 C6.42930963,21.6373721 7.40611645,23.3261814 9.01531399,24.6159855 C9.21827341,24.7786615 9.34850551,25.0127891 9.38157265,25.2674623 L9.38989601,25.3962754 L9.389,28.665 L12.17,28.665 L12.1701527,27.6580273 C12.1701527,27.0945474 12.6293775,26.6596063 13.1643384,26.657595 L13.2799923,26.6639014 L13.3971262,26.6841263 C15.3058152,27.128958 17.4082282,27.128958 19.316462,26.6834212 C19.9045297,26.5461185 20.4687103,26.9560045 20.5369357,27.5385338 L20.5438282,27.6572306 L20.543,28.665 L23.324,28.665 L23.3240849,25.3923981 C23.3240849,25.1756541 23.3943809,24.9672845 23.520834,24.7967443 L23.6033315,24.6991953 L23.6986281,24.6121392 C24.4133598,24.0392092 25.0009786,23.3971935 25.4553983,22.6953139 C25.6166614,22.4462329 25.878764,22.2835146 26.1689518,22.246727 L26.2948253,22.2387862 L28.157,22.238 L28.157,17.865 L27.0923315,17.8651107 C26.7541629,17.8651107 26.4452156,17.6950045 26.2624247,17.4231236 L26.1999811,17.316531 L26.1505006,17.2011978 C25.9184983,16.5510481 25.5753374,15.9275344 25.1238609,15.3385789 C25.0167993,15.198916 24.9489677,15.0341297 24.9261175,14.8611763 L24.9175037,14.7301949 L24.917,9.905 Z M23.2473965,16.9508201 C23.7996812,16.9508201 24.2473965,17.3985353 24.2473965,17.9508201 C24.2473965,18.5031048 23.7996812,18.9508201 23.2473965,18.9508201 C22.6951117,18.9508201 22.2473965,18.5031048 22.2473965,17.9508201 C22.2473965,17.3985353 22.6951117,16.9508201 23.2473965,16.9508201 Z M20.1834033,14.6981179 C20.6190294,14.9374812 20.7781319,15.4846683 20.5387685,15.9202945 C20.2994052,16.3559206 19.7522181,16.5150231 19.316592,16.2756597 C17.3463957,15.1930968 14.6064119,15.1975712 12.6880159,16.2663482 C12.2537993,16.508259 11.7056897,16.3523644 11.4637788,15.9181477 C11.221868,15.4839311 11.3777627,14.9358215 11.8119793,14.6939107 C14.2724869,13.3231124 17.67088,13.3175628 20.1834033,14.6981179 Z M15.8974254,1.36499023 C17.9505439,1.36499023 19.6246981,3.07767102 19.6246981,5.13771751 C19.6246981,7.19413862 17.9538465,8.86499023 15.8974254,8.86499023 C13.8410043,8.86499023 12.1701527,7.19413862 12.1701527,5.13771751 C12.1701527,3.07767102 13.8443068,1.36499023 15.8974254,1.36499023 Z M15.8974254,3.36499023 C14.9591889,3.36499023 14.1701527,4.17218424 14.1701527,5.13771751 C14.1701527,6.08956912 14.9455738,6.86499023 15.8974254,6.86499023 C16.849277,6.86499023 17.6246981,6.08956912 17.6246981,5.13771751 C17.6246981,4.17218424 16.8356619,3.36499023 15.8974254,3.36499023 Z" id="Shape" fill="#FA2398"></path>
    </g>
</svg>