<?xml version="1.0" encoding="UTF-8"?>
<svg width="32px" height="32px" viewBox="0 0 32 32" version="1.1" xmlns="http://www.w3.org/2000/svg" xmlns:xlink="http://www.w3.org/1999/xlink">
    <!-- Generator: Sketch 63.1 (92452) - https://sketch.com -->
    <title>Icons / Play</title>
    <desc>Created with Sketch.</desc>
    <g id="Icons-/-Play" stroke="none" stroke-width="1" fill="none" fill-rule="evenodd">
        <g id="Group">
            <rect id="Rectangle" x="0" y="0" width="32" height="32"></rect>
            <path d="M9.0066625,6.71419432 L9,6.84375 L9,24.8586406 C9,25.4053772 9.44321754,25.8485947 9.98995409,25.8485947 C10.1437513,25.8485947 10.2948865,25.8127698 10.4316014,25.7446193 L10.53125,25.6875 L24.53125,16.6875 C24.9972403,16.3879348 25.1321545,15.7673295 24.8325893,15.3013393 C24.7743122,15.210686 24.7019373,15.1302171 24.6183998,15.0628676 L24.53125,15 L10.53125,6 C10.0734836,5.70105052 9.46004421,5.82979707 9.16109473,6.28756345 C9.07700013,6.4163333 9.02435626,6.56246302 9.0066625,6.71419432 Z M11,8.65625 L22.15625,15.84375 L11,23.03125 L11,8.65625 Z" id="Shape" fill="#FA2398"></path>
        </g>
    </g>
</svg>