<?xml version="1.0" encoding="UTF-8"?>
<svg width="32px" height="32px" viewBox="0 0 32 32" version="1.1" xmlns="http://www.w3.org/2000/svg" xmlns:xlink="http://www.w3.org/1999/xlink">
    <!-- Generator: Sketch 63.1 (92452) - https://sketch.com -->
    <title>Icons / plus-circle</title>
    <desc>Created with Sketch.</desc>
    <g id="Icons-/-plus-circle" stroke="none" stroke-width="1" fill="none" fill-rule="evenodd">
        <rect id="Rectangle" x="0" y="0" width="32" height="32"></rect>
        <path d="M16,3.22038 C23.0579892,3.22038 28.77962,8.94201077 28.77962,16 C28.77962,23.0579892 23.0579892,28.77962 16,28.77962 C8.94201077,28.77962 3.22038,23.0579892 3.22038,16 C3.22038,8.94201077 8.94201077,3.22038 16,3.22038 Z M16,5.22038 C10.0465803,5.22038 5.22038,10.0465803 5.22038,16 C5.22038,21.9534197 10.0465803,26.77962 16,26.77962 C21.9534197,26.77962 26.77962,21.9534197 26.77962,16 C26.77962,10.0465803 21.9534197,5.22038 16,5.22038 Z M15.8833789,8.16672773 L16,8.16 C16.5128358,8.16 16.9355072,8.54604019 16.9932723,9.04337887 L17,9.16 L16.99938,14.99938 L22.84,15 C23.3528358,15 23.7755072,15.3860402 23.8332723,15.8833789 L23.84,16 C23.84,16.5128358 23.4539598,16.9355072 22.9566211,16.9932723 L22.84,17 L16.99938,16.99938 L17,22.84 C17,23.3528358 16.6139598,23.7755072 16.1166211,23.8332723 L16,23.84 C15.4871642,23.84 15.0644928,23.4539598 15.0067277,22.9566211 L15,22.84 L14.99938,16.99938 L9.16,17 C8.64716416,17 8.22449284,16.6139598 8.16672773,16.1166211 L8.16,16 C8.16,15.4871642 8.54604019,15.0644928 9.04337887,15.0067277 L9.16,15 L14.99938,14.99938 L15,9.16 C15,8.64716416 15.3860402,8.22449284 15.8833789,8.16672773 Z" id="Shape" fill="#FA2398"></path>
    </g>
</svg>