<?xml version="1.0" encoding="UTF-8"?>
<svg width="32px" height="32px" viewBox="0 0 32 32" version="1.1" xmlns="http://www.w3.org/2000/svg" xmlns:xlink="http://www.w3.org/1999/xlink">
    <!-- Generator: Sketch 63.1 (92452) - https://sketch.com -->
    <title>Icons / plus</title>
    <desc>Created with Sketch.</desc>
    <g id="Icons-/-plus" stroke="none" stroke-width="1" fill="none" fill-rule="evenodd">
        <rect id="Rectangle" x="0" y="0" width="32" height="32"></rect>
        <path d="M15.8833789,8.00672773 L16,8 C16.5128358,8 16.9355072,8.38604019 16.9932723,8.88337887 L17,9 L17,15 L23,15 C23.5128358,15 23.9355072,15.3860402 23.9932723,15.8833789 L24,16 C24,16.5128358 23.6139598,16.9355072 23.1166211,16.9932723 L23,17 L17,17 L17,23 C17,23.5128358 16.6139598,23.9355072 16.1166211,23.9932723 L16,24 C15.4871642,24 15.0644928,23.6139598 15.0067277,23.1166211 L15,23 L14.999,17 L9,17 C8.48716416,17 8.06449284,16.6139598 8.00672773,16.1166211 L8,16 C8,15.4871642 8.38604019,15.0644928 8.88337887,15.0067277 L9,15 L15,15 L15,9 C15,8.48716416 15.3860402,8.06449284 15.8833789,8.00672773 L16,8 L15.8833789,8.00672773 Z" id="Path" fill="#FA2398"></path>
    </g>
</svg>