<?xml version="1.0" encoding="UTF-8"?>
<svg width="32px" height="32px" viewBox="0 0 32 32" version="1.1" xmlns="http://www.w3.org/2000/svg" xmlns:xlink="http://www.w3.org/1999/xlink">
    <!-- Generator: Sketch 63.1 (92452) - https://sketch.com -->
    <title>Icons / print</title>
    <desc>Created with Sketch.</desc>
    <g id="Icons-/-print" stroke="none" stroke-width="1" fill="none" fill-rule="evenodd">
        <g id="Group">
            <rect id="Rectangle" x="0" y="0" width="32" height="32"></rect>
            <path d="M9.00672773,4.88337887 L9,5 L9,11 L7,11 C5.3550302,11 4,12.35503 4,14 L4,23 C4,23.5128358 4.38604019,23.9355072 4.88337887,23.9932723 L5,24 L9,24 L9,27 C9,27.5128358 9.38604019,27.9355072 9.88337887,27.9932723 L10,28 L22,28 C22.5128358,28 22.9355072,27.6139598 22.9932723,27.1166211 L23,27 L23,24 L27,24 C27.5128358,24 27.9355072,23.6139598 27.9932723,23.1166211 L28,23 L28,14 C28,12.35503 26.64497,11 25,11 L23,11 L23,5 C23,4.48716416 22.6139598,4.06449284 22.1166211,4.00672773 L22,4 L10,4 C9.48716416,4 9.06449284,4.38604019 9.00672773,4.88337887 L9.00672773,4.88337887 Z M11,6 L21,6 L21,11 L11,11 L11,6 Z M7,13 L25,13 C25.56503,13 26,13.43497 26,14 L26,22 L23,22 L23,19 C23,18.4871642 22.6139598,18.0644928 22.1166211,18.0067277 L22,18 L10,18 C9.48716416,18 9.06449284,18.3860402 9.00672773,18.8833789 L9,19 L9,22 L6,22 L6,14 C6,13.43497 6.4349698,13 7,13 Z M8,14 C7.4477153,14 7,14.447715 7,15 C7,15.552285 7.4477153,16 8,16 C8.5522847,16 9,15.552285 9,15 C9,14.447715 8.5522847,14 8,14 Z M11,20 L21,20 L21,26 L11,26 L11,20 Z" id="Shape" fill="#FA2398"></path>
        </g>
    </g>
</svg>