<?xml version="1.0" encoding="UTF-8"?>
<svg width="32px" height="32px" viewBox="0 0 32 32" version="1.1" xmlns="http://www.w3.org/2000/svg" xmlns:xlink="http://www.w3.org/1999/xlink">
    <!-- Generator: Sketch 63.1 (92452) - https://sketch.com -->
    <title>Icons / returns</title>
    <desc>Created with Sketch.</desc>
    <g id="Icons-/-returns" stroke="none" stroke-width="1" fill="none" fill-rule="evenodd">
        <g id="Group">
            <rect id="Rectangle" x="0" y="0" width="32" height="32"></rect>
            <path d="M8.64516129,6.09677419 C8.65089318,6.09677419 8.65661381,6.09682242 8.6623228,6.09691848 C8.69001177,6.09665339 8.71768595,6.09829025 8.74526669,6.10107039 C8.75648663,6.10283506 8.7678517,6.10416013 8.77915698,6.10567409 C8.80627459,6.10873533 8.83331842,6.11352453 8.86016609,6.11943012 C8.87106164,6.12233663 8.88145189,6.12479505 8.89177806,6.12741412 C8.91798731,6.13357465 8.94443968,6.14146015 8.97059314,6.15046145 C8.98009091,6.15418886 8.98943916,6.15756391 8.99872151,6.16107312 C9.02399751,6.17017489 9.04898334,6.18080167 9.07359048,6.19249043 C9.08658981,6.19910719 9.09972117,6.20569849 9.11268343,6.21256647 C9.13276663,6.22277412 9.15266279,6.23421442 9.17222958,6.24639456 C9.1889507,6.2571884 9.20507891,6.26788014 9.22087014,6.27901773 C9.26665772,6.31106493 9.31038634,6.34779253 9.35143496,6.38883431 L9.262968,6.31039028 C9.35783578,6.38502468 9.43886697,6.47645644 9.50157885,6.58020289 C9.5042736,6.58501691 9.50702473,6.58966774 9.50973496,6.59433581 C9.54645704,6.65696333 9.57645011,6.72425161 9.59880176,6.794936 C9.60052783,6.80231298 9.6027399,6.80963742 9.60486617,6.81698145 C9.61356772,6.84473343 9.62049608,6.87310108 9.62618679,6.90191347 C9.62836657,6.91661628 9.63086947,6.93101375 9.63305594,6.9454499 C9.64124286,6.99435419 9.64516129,7.04510659 9.64516129,7.09677419 L9.64067785,7.0096862 C9.64223151,7.02772686 9.6432971,7.04580165 9.6438746,7.06388914 L9.64516129,7.09677419 L9.64516129,11.3548387 C9.64516129,11.9071235 9.19744604,12.3548387 8.64516129,12.3548387 C8.09287654,12.3548387 7.64516129,11.9071235 7.64516129,11.3548387 L7.64516129,11.3548387 L7.64445852,9.51 L7.0794607,10.0755186 C4.02973435,14.1857401 4.36104497,19.9282078 7.89314757,23.669431 L8.10891323,23.8914739 C10.1271213,25.909682 12.8155053,27 15.6129032,27 C16.165188,27 16.6129032,27.4477153 16.6129032,28 C16.6129032,28.5522847 16.165188,29 15.6129032,29 C12.2903011,29 9.0918133,27.7028011 6.69473272,25.3057205 C2.23819038,20.8495947 1.76996427,13.8077105 5.52220348,8.81831077 L5.52220348,8.81831077 L5.61425367,8.71230697 L6.22945852,8.096 L4.38709677,8.09677419 C3.87426094,8.09677419 3.45158961,7.710734 3.39382451,7.21339532 L3.38709677,7.09677419 C3.38709677,6.54448944 3.83481202,6.09677419 4.38709677,6.09677419 L4.38709677,6.09677419 Z M16.3870968,3 C19.7096989,3 22.9081867,4.29719894 25.3052673,6.69427952 C29.7618096,11.1504053 30.2300357,18.1922895 26.4777965,23.1816892 L26.4777965,23.1816892 L26.3857463,23.287693 L25.7694585,23.903 L27.6129032,23.9032258 C28.1257391,23.9032258 28.5484104,24.289266 28.6061755,24.7866047 L28.6129032,24.9032258 C28.6129032,25.4555106 28.165188,25.9032258 27.6129032,25.9032258 L27.6129032,25.9032258 L23.3548387,25.9032258 C23.3491068,25.9032258 23.3433862,25.9031776 23.3376772,25.9030815 C23.3099882,25.9033466 23.282314,25.9017098 23.2547333,25.8989296 C23.2435134,25.8971649 23.2321483,25.8958399 23.220843,25.8943259 C23.1937254,25.8912647 23.1666816,25.8864755 23.1398339,25.8805699 C23.1289384,25.8776634 23.1185481,25.875205 23.1082219,25.8725859 C23.0820127,25.8664253 23.0555603,25.8585399 23.0294069,25.8495386 C23.0199091,25.8458111 23.0105608,25.8424361 23.0012785,25.8389269 C22.9760025,25.8298251 22.9510167,25.8191983 22.9264095,25.8075096 C22.9134102,25.8008928 22.9002788,25.7943015 22.8873166,25.7874335 C22.8672334,25.7772259 22.8473372,25.7657856 22.8277704,25.7536054 C22.8110493,25.7428116 22.7949211,25.7321199 22.7791299,25.7209823 C22.7333423,25.6889351 22.6896137,25.6522075 22.648565,25.6111657 L22.737032,25.6896097 C22.6756373,25.6413093 22.6200376,25.5859738 22.5714479,25.5248183 C22.5599555,25.510241 22.548561,25.4950229 22.5376563,25.4795648 C22.5254814,25.4625055 22.5140807,25.4452539 22.5032111,25.4276396 C22.4948262,25.4137118 22.4864901,25.3993824 22.4785396,25.3848976 C22.4667363,25.3639463 22.4559082,25.3424958 22.4458466,25.3206199 C22.4414187,25.3100978 22.4369203,25.2998075 22.4326034,25.2894593 C22.4207494,25.2622865 22.4103353,25.233959 22.4011982,25.205064 C22.3993685,25.1973574 22.3970606,25.1897015 22.3948465,25.1820242 C22.3862664,25.1545866 22.3794357,25.1265537 22.3738132,25.0980865 C22.3716334,25.0833837 22.3691305,25.0689862 22.3669441,25.0545501 C22.3587571,25.0056458 22.3548387,24.9548934 22.3548387,24.9032258 L22.359236,24.9893072 C22.357729,24.9716009 22.3566922,24.953862 22.3561254,24.9361109 L22.3548387,24.9032258 L22.3548387,20.6451613 C22.3548387,20.0928765 22.802554,19.6451613 23.3548387,19.6451613 C23.9071235,19.6451613 24.3548387,20.0928765 24.3548387,20.6451613 L24.3548387,20.6451613 L24.3544585,22.49 L24.9205393,21.9244814 C27.9702656,17.8142599 27.638955,12.0717922 24.1068524,8.33056897 L23.8910868,8.10852614 C21.8728787,6.09031802 19.1844947,5 16.3870968,5 C15.834812,5 15.3870968,4.55228475 15.3870968,4 C15.3870968,3.44771525 15.834812,3 16.3870968,3 Z" id="Combined-Shape" fill="#FA2398"></path>
        </g>
    </g>
</svg>