<?xml version="1.0" encoding="UTF-8"?>
<svg width="32px" height="32px" viewBox="0 0 32 32" version="1.1" xmlns="http://www.w3.org/2000/svg" xmlns:xlink="http://www.w3.org/1999/xlink">
    <!-- Generator: Sketch 63.1 (92452) - https://sketch.com -->
    <title>Icons / Search</title>
    <desc>Created with Sketch.</desc>
    <g id="Icons-/-Search" stroke="none" stroke-width="1" fill="none" fill-rule="evenodd">
        <g id="Group">
            <rect id="Rectangle" x="0" y="0" width="32" height="32"></rect>
            <path d="M11.8198454,3.22011273 C16.5694942,3.22011273 20.4198454,7.07046388 20.4198454,11.8201127 C20.4198454,13.8340377 19.7275939,15.6862787 18.5680597,17.1518668 L19.4198454,18.0051127 L19.8531326,17.5729627 C20.2436569,17.1824384 20.8768219,17.1824384 21.2673461,17.5729627 L28.4872614,24.792878 C28.8777857,25.1834023 28.8777857,25.8165672 28.4872614,26.2070915 L26.2073589,28.4869941 C25.8168346,28.8775183 25.1836696,28.8775183 24.7931453,28.4869941 L17.5732301,21.2670788 C17.1827058,20.8765545 17.1827058,20.2433895 17.5732301,19.8528652 L18.0048454,19.4201127 L17.1515995,18.568327 C15.6860114,19.7278612 13.8337704,20.4201127 11.8198454,20.4201127 C7.07019653,20.4201127 3.21984538,16.5697616 3.21984538,11.8201127 C3.21984538,7.07046388 7.07019653,3.22011273 11.8198454,3.22011273 Z M20.5602394,19.694283 L20.1307344,20.1234173 L20.1269522,20.1272195 L20.1228454,20.1301127 L19.6945504,20.559972 L25.5002521,26.3656737 L26.3659411,25.4999847 L20.5602394,19.694283 Z M11.8198454,5.22011273 C8.17476603,5.22011273 5.21984538,8.17503338 5.21984538,11.8201127 C5.21984538,15.4651921 8.17476603,18.4201127 11.8198454,18.4201127 C15.4649247,18.4201127 18.4198454,15.4651921 18.4198454,11.8201127 C18.4198454,8.17503338 15.4649247,5.22011273 11.8198454,5.22011273 Z" id="Shape" fill="#FA2398"></path>
        </g>
    </g>
</svg>