<?xml version="1.0" encoding="UTF-8"?>
<svg width="32px" height="32px" viewBox="0 0 32 32" version="1.1" xmlns="http://www.w3.org/2000/svg" xmlns:xlink="http://www.w3.org/1999/xlink">
    <!-- Generator: Sketch 63.1 (92452) - https://sketch.com -->
    <title>Icons / send</title>
    <desc>Created with Sketch.</desc>
    <g id="Icons-/-send" stroke="none" stroke-width="1" fill="none" fill-rule="evenodd">
        <g id="Group">
            <rect id="Rectangle" x="0" y="0" width="32" height="32"></rect>
            <path d="M6.15330633,7.67058618 L26.4578931,15.0327757 C26.6390418,15.0789439 26.7893073,15.1712048 26.9055663,15.2917844 C27.0933437,15.476157 27.1847586,15.7208282 27.1896985,15.9671556 L27.1889672,16.0329864 L27.1889672,16.0329864 C27.1843105,16.281624 27.0914011,16.5280744 26.9002001,16.7130373 C26.7858224,16.8306016 26.639343,16.9199841 26.4635522,16.9658315 L6.15304909,24.3294138 C5.40117908,24.60207 4.66585659,23.9294215 4.83473548,23.1762189 L4.86345234,23.0730914 L7.22130146,15.9997135 L4.86370957,8.92690863 C4.59930052,8.13368146 5.3672604,7.38553656 6.15330633,7.67058618 Z M20.4977245,17.0000533 L8.99598348,17.0000533 L7.41449408,21.7445215 L20.4977245,17.0000533 Z M7.41475132,10.2554785 L8.99624071,14.9999467 L20.4979818,14.9999467 L7.41475132,10.2554785 Z" id="Shape" fill="#FA2398"></path>
        </g>
    </g>
</svg>