<?xml version="1.0" encoding="UTF-8"?>
<svg width="32px" height="32px" viewBox="0 0 32 32" version="1.1" xmlns="http://www.w3.org/2000/svg" xmlns:xlink="http://www.w3.org/1999/xlink">
    <!-- Generator: Sketch 63.1 (92452) - https://sketch.com -->
    <title>Icons / Setting</title>
    <desc>Created with Sketch.</desc>
    <g id="Icons-/-Setting" stroke="none" stroke-width="1" fill="none" fill-rule="evenodd">
        <g id="Group">
            <rect id="Rectangle" x="0" y="0" width="32" height="32"></rect>
            <path d="M18.28,3.22 C18.8322847,3.22 19.28,3.66771525 19.28,4.22 L19.28,6.91924078 L20.2899092,7.25587719 L22.1328932,5.41289322 C22.5234175,5.02236893 23.1565825,5.02236893 23.5471068,5.41289322 L26.5871068,8.45289322 C26.9776311,8.84341751 26.9776311,9.47658249 26.5871068,9.86710678 L24.7441228,11.7100908 L25.0807592,12.72 L27.78,12.72 C28.3322847,12.72 28.78,13.1677153 28.78,13.72 L28.78,18.28 C28.78,18.8322847 28.3322847,19.28 27.78,19.28 L25.0807592,19.28 L24.7441228,20.2899092 L26.5871068,22.1328932 C26.9776311,22.5234175 26.9776311,23.1565825 26.5871068,23.5471068 L23.5471068,26.5871068 C23.1565825,26.9776311 22.5234175,26.9776311 22.1328932,26.5871068 L20.2899092,24.7441228 L19.28,25.0807592 L19.28,27.78 C19.28,28.3322847 18.8322847,28.78 18.28,28.78 L13.72,28.78 C13.1677153,28.78 12.72,28.3322847 12.72,27.78 L12.72,25.0807592 L11.7100908,24.7441228 L9.86710678,26.5871068 C9.47658249,26.9776311 8.84341751,26.9776311 8.45289322,26.5871068 L5.41289322,23.5471068 C5.02236893,23.1565825 5.02236893,22.5234175 5.41289322,22.1328932 L7.25587719,20.2899092 L6.91924078,19.28 L4.22,19.28 C3.66771525,19.28 3.22,18.8322847 3.22,18.28 L3.22,13.72 C3.22,13.1677153 3.66771525,12.72 4.22,12.72 L6.91924078,12.72 L7.25587719,11.7100908 L5.41289322,9.86710678 C5.02236893,9.47658249 5.02236893,8.84341751 5.41289322,8.45289322 L8.45289322,5.41289322 C8.84341751,5.02236893 9.47658249,5.02236893 9.86710678,5.41289322 L11.7100908,7.25587719 L12.72,6.91924078 L12.72,4.22 C12.72,3.66771525 13.1677153,3.22 13.72,3.22 L18.28,3.22 Z M17.28,5.22 L14.72,5.22 L14.72,7.64 C14.72,8.07043041 14.4445699,8.45256925 14.0362278,8.5886833 L11.7562278,9.3486833 C11.396893,9.46846154 11.0007255,9.37493907 10.7328932,9.10710678 L9.16,7.53421356 L7.53421356,9.16 L9.10710678,10.7328932 C9.37493907,11.0007255 9.46846154,11.396893 9.3486833,11.7562278 L8.5886833,14.0362278 C8.45256925,14.4445699 8.07043041,14.72 7.64,14.72 L5.22,14.72 L5.22,17.28 L7.64,17.28 C8.07043041,17.28 8.45256925,17.5554301 8.5886833,17.9637722 L9.3486833,20.2437722 C9.46846154,20.603107 9.37493907,20.9992745 9.10710678,21.2671068 L7.53421356,22.84 L9.16,24.4657864 L10.7328932,22.8928932 C11.0007255,22.6250609 11.396893,22.5315385 11.7562278,22.6513167 L14.0362278,23.4113167 C14.4445699,23.5474307 14.72,23.9295696 14.72,24.36 L14.72,26.78 L17.28,26.78 L17.28,24.36 C17.28,23.9295696 17.5554301,23.5474307 17.9637722,23.4113167 L20.2437722,22.6513167 C20.603107,22.5315385 20.9992745,22.6250609 21.2671068,22.8928932 L22.84,24.4657864 L24.4657864,22.84 L22.8928932,21.2671068 C22.6250609,20.9992745 22.5315385,20.603107 22.6513167,20.2437722 L23.4113167,17.9637722 C23.5474307,17.5554301 23.9295696,17.28 24.36,17.28 L26.78,17.28 L26.78,14.72 L24.36,14.72 C23.9295696,14.72 23.5474307,14.4445699 23.4113167,14.0362278 L22.6513167,11.7562278 C22.5315385,11.396893 22.6250609,11.0007255 22.8928932,10.7328932 L24.4657864,9.16 L22.84,7.53421356 L21.2671068,9.10710678 C20.9992745,9.37493907 20.603107,9.46846154 20.2437722,9.3486833 L17.9637722,8.5886833 C17.5554301,8.45256925 17.28,8.07043041 17.28,7.64 L17.28,5.22 Z M16,12.72 C17.811494,12.72 19.28,14.188506 19.28,16 C19.28,17.811494 17.811494,19.28 16,19.28 C14.188506,19.28 12.72,17.811494 12.72,16 C12.72,14.188506 14.188506,12.72 16,12.72 Z M16,14.72 C15.2930755,14.72 14.72,15.2930755 14.72,16 C14.72,16.7069245 15.2930755,17.28 16,17.28 C16.7069245,17.28 17.28,16.7069245 17.28,16 C17.28,15.2930755 16.7069245,14.72 16,14.72 Z" id="Shape" fill="#FA2398"></path>
        </g>
    </g>
</svg>