<?xml version="1.0" encoding="UTF-8"?>
<svg width="32px" height="32px" viewBox="0 0 32 32" version="1.1" xmlns="http://www.w3.org/2000/svg" xmlns:xlink="http://www.w3.org/1999/xlink">
    <!-- Generator: Sketch 63.1 (92452) - https://sketch.com -->
    <title>Icons / Shopping-success</title>
    <desc>Created with Sketch.</desc>
    <g id="Icons-/-Shopping-success" stroke="none" stroke-width="1" fill="none" fill-rule="evenodd">
        <g id="Group">
            <rect id="Rectangle" x="0" y="0" width="32" height="32"></rect>
            <path d="M16,3 C18.7614237,3 21,5.23857625 21,8 L20.9995034,9.999 L26.5604966,10 C26.6481916,10 26.735744,10.0057678 26.8225889,10.0172475 L26.952255,10.0387439 C27.9861918,10.2452715 28.673448,11.2145453 28.5456106,12.2443131 L28.5217527,12.3917584 L26.3837386,23.0952753 C25.8394101,25.8203413 23.4997799,27.8039581 20.744158,27.915083 L20.4999704,27.92 L11.5000296,27.92 C8.72113078,27.92 6.3176557,26.0142423 5.66891437,23.3337694 L5.61626139,23.0952753 L3.47824734,12.3917584 C3.4524809,12.2627642 3.4395034,12.1315425 3.4395034,12 C3.4395034,10.9456382 4.25538119,10.0818349 5.29024106,10.0054857 L5.4395034,10 L10.9995034,9.999 L11,8 C11,5.23857625 13.2385763,3 16,3 Z M24.4224826,22.7035169 L26.5604966,12 L5.4395034,12 L7.57751745,22.7035169 C7.93773485,24.5068694 9.47728377,25.8231648 11.2967593,25.9148857 L11.5000296,25.92 L20.4999704,25.92 C22.3389476,25.92 23.9313093,24.6681101 24.3776509,22.9018476 L24.4224826,22.7035169 Z M16,5 C14.3431458,5 13,6.34314575 13,8 L12.9995034,9.999 L18.9995034,9.999 L19,8 C19,6.34314575 17.6568542,5 16,5 Z M12.7071068,18.166818 C12.3165825,17.7762937 11.6834175,17.7762937 11.2928932,18.166818 C10.9023689,18.5573422 10.9023689,19.1905072 11.2928932,19.5810315 L14.2789685,22.5671068 C14.7049891,22.9931274 15.4082143,22.9484787 15.7769339,22.4719989 L20.7295168,16.0719989 C21.0675144,15.6352197 20.9874362,15.007139 20.550657,14.6691414 C20.1138779,14.3311437 19.4857972,14.411222 19.1477995,14.8480011 L14.8901975,20.3499087 L12.7071068,18.166818 Z" id="Shape" fill="#FA2398"></path>
        </g>
    </g>
</svg>