<?xml version="1.0" encoding="UTF-8"?>
<svg width="32px" height="32px" viewBox="0 0 32 32" version="1.1" xmlns="http://www.w3.org/2000/svg" xmlns:xlink="http://www.w3.org/1999/xlink">
    <!-- Generator: Sketch 63.1 (92452) - https://sketch.com -->
    <title>Icons / shopping-bag</title>
    <desc>Created with Sketch.</desc>
    <g id="Icons-/-shopping-bag" stroke="none" stroke-width="1" fill="none" fill-rule="evenodd">
        <rect id="Rectangle" x="0" y="0" width="32" height="32"></rect>
        <path d="M16,3 C18.7614237,3 21,5.23857625 21,8 L20.9995034,9.999 L26.5604966,10 C26.6481916,10 26.735744,10.0057678 26.8225889,10.0172475 L26.952255,10.0387439 C28.0354268,10.2551061 28.7381149,11.3085866 28.5217527,12.3917584 L28.5217527,12.3917584 L26.3837386,23.0952753 C25.8234004,25.9004903 23.3606015,27.92 20.4999704,27.92 L20.4999704,27.92 L11.5000296,27.92 C8.63939847,27.92 6.17659957,25.9004903 5.61626139,23.0952753 L5.61626139,23.0952753 L3.47824734,12.3917584 C3.4524809,12.2627642 3.4395034,12.1315425 3.4395034,12 C3.4395034,10.8954305 4.3349339,10 5.4395034,10 L5.4395034,10 L10.9995034,9.999 L11,8 C11,5.23857625 13.2385763,3 16,3 Z M11.9825034,11.999 L5.4395034,12 L7.57751745,22.7035169 C7.95107624,24.5736602 9.59294217,25.92 11.5000296,25.92 L11.5000296,25.92 L20.4999704,25.92 C22.4070578,25.92 24.0489238,24.5736602 24.4224826,22.7035169 L24.4224826,22.7035169 L26.5604966,12 L20.0171615,11.9998557 C20.0114525,11.9999518 20.0057319,12 20,12 L12,12 L11.9825034,11.999 Z M18,22 C18.5522847,22 19,22.4477153 19,23 C19,23.5522847 18.5522847,24 18,24 C17.4477153,24 17,23.5522847 17,23 C17,22.4477153 17.4477153,22 18,22 Z M14,22 C14.5522847,22 15,22.4477153 15,23 C15,23.5522847 14.5522847,24 14,24 C13.4477153,24 13,23.5522847 13,23 C13,22.4477153 13.4477153,22 14,22 Z M20,18 C20.5522847,18 21,18.4477153 21,19 C21,19.5522847 20.5522847,20 20,20 C19.4477153,20 19,19.5522847 19,19 C19,18.4477153 19.4477153,18 20,18 Z M12,18 C12.5522847,18 13,18.4477153 13,19 C13,19.5522847 12.5522847,20 12,20 C11.4477153,20 11,19.5522847 11,19 C11,18.4477153 11.4477153,18 12,18 Z M16,18 C16.5522847,18 17,18.4477153 17,19 C17,19.5522847 16.5522847,20 16,20 C15.4477153,20 15,19.5522847 15,19 C15,18.4477153 15.4477153,18 16,18 Z M22,14 C22.5522847,14 23,14.4477153 23,15 C23,15.5522847 22.5522847,16 22,16 C21.4477153,16 21,15.5522847 21,15 C21,14.4477153 21.4477153,14 22,14 Z M10,14 C10.5522847,14 11,14.4477153 11,15 C11,15.5522847 10.5522847,16 10,16 C9.44771525,16 9,15.5522847 9,15 C9,14.4477153 9.44771525,14 10,14 Z M14,14 C14.5522847,14 15,14.4477153 15,15 C15,15.5522847 14.5522847,16 14,16 C13.4477153,16 13,15.5522847 13,15 C13,14.4477153 13.4477153,14 14,14 Z M18,14 C18.5522847,14 19,14.4477153 19,15 C19,15.5522847 18.5522847,16 18,16 C17.4477153,16 17,15.5522847 17,15 C17,14.4477153 17.4477153,14 18,14 Z M16,5 C14.3431458,5 13,6.34314575 13,8 L12.9995034,9.999 L18.9995034,9.999 L19,8 C19,6.34314575 17.6568542,5 16,5 Z" id="Combined-Shape" fill="#FA2398"></path>
    </g>
</svg>