<?xml version="1.0" encoding="UTF-8"?>
<svg width="32px" height="32px" viewBox="0 0 32 32" version="1.1" xmlns="http://www.w3.org/2000/svg" xmlns:xlink="http://www.w3.org/1999/xlink">
    <!-- Generator: Sketch 63.1 (92452) - https://sketch.com -->
    <title>Icons / sort</title>
    <desc>Created with Sketch.</desc>
    <g id="Icons-/-sort" stroke="none" stroke-width="1" fill="none" fill-rule="evenodd">
        <rect id="Rectangle" x="0" y="0" width="32" height="32"></rect>
        <path d="M10.2471068,20.6129005 L16,26.3657937 L21.7528932,20.6129005 C22.1434175,20.2223762 22.7765825,20.2223762 23.1671068,20.6129005 C23.5576311,21.0034248 23.5576311,21.6365898 23.1671068,22.0271141 L16.7071068,28.4871141 C16.3165825,28.8776384 15.6834175,28.8776384 15.2928932,28.4871141 L8.83289322,22.0271141 C8.44236893,21.6365898 8.44236893,21.0034248 8.83289322,20.6129005 C9.22341751,20.2223762 9.85658249,20.2223762 10.2471068,20.6129005 Z M8.83289322,9.97288592 L15.2928932,3.51288592 C15.6533772,3.15240196 16.2206082,3.12467242 16.6128994,3.42969731 L16.7071068,3.51288592 L23.1671068,9.97288592 C23.5576311,10.3634102 23.5576311,10.9965752 23.1671068,11.3870995 C22.8066228,11.7475834 22.2393918,11.775313 21.8471006,11.4702881 L21.7528932,11.3870995 L16,5.63420626 L10.2471068,11.3870995 C9.85658249,11.7776238 9.22341751,11.7776238 8.83289322,11.3870995 C8.47240926,11.0266155 8.44467972,10.4593845 8.74970461,10.0670933 L8.83289322,9.97288592 L15.2928932,3.51288592 L8.83289322,9.97288592 Z" id="Shape" fill="#FA2398"></path>
    </g>
</svg>