<?xml version="1.0" encoding="UTF-8"?>
<svg width="32px" height="32px" viewBox="0 0 32 32" version="1.1" xmlns="http://www.w3.org/2000/svg" xmlns:xlink="http://www.w3.org/1999/xlink">
    <!-- Generator: Sketch 63.1 (92452) - https://sketch.com -->
    <title>Icons / Star-outline</title>
    <desc>Created with Sketch.</desc>
    <g id="Icons-/-Star-outline" stroke="none" stroke-width="1" fill="none" fill-rule="evenodd">
        <g id="Group">
            <rect id="Rectangle" x="0" y="0" width="32" height="32"></rect>
            <path d="M16,22.14 L9,27.39 C8.21570389,27.9782221 7.14129645,27.203833 7.4513167,26.2737722 L10.2675808,17.82498 L3.98605939,12.9393522 C3.23447356,12.3547855 3.64784478,11.15 4.6,11.15 L12.2490612,11.15 L15.0555032,3.08147938 C15.3669139,2.18617354 16.6330861,2.18617354 16.9444968,3.08147938 L19.7509388,11.15 L27.4,11.15 C28.3521552,11.15 28.7655264,12.3547855 28.0139406,12.9393522 L21.7324192,17.82498 L24.5486833,26.2737722 C24.8587036,27.203833 23.7842961,27.9782221 23,27.39 L16,22.14 Z M15.4,20.09 C15.7555556,19.8233333 16.2444444,19.8233333 16.6,20.09 L21.6389877,23.8692408 L19.6113167,17.7862278 C19.4772416,17.3840024 19.6113877,16.940948 19.9460594,16.6806478 L24.4854637,13.15 L19.04,13.15 C18.6143445,13.15 18.2353398,12.8805509 18.0955032,12.4785206 L16,6.45394892 L13.9044968,12.4785206 C13.7646602,12.8805509 13.3856555,13.15 12.96,13.15 L7.51453632,13.15 L12.0539406,16.6806478 C12.3886123,16.940948 12.5227584,17.3840024 12.3886833,17.7862278 L10.3610123,23.8692408 L15.4,20.09 Z" id="Path" fill="#FA2398"></path>
        </g>
    </g>
</svg>