<?xml version="1.0" encoding="UTF-8"?>
<svg width="32px" height="32px" viewBox="0 0 32 32" version="1.1" xmlns="http://www.w3.org/2000/svg" xmlns:xlink="http://www.w3.org/1999/xlink">
    <!-- Generator: Sketch 63.1 (92452) - https://sketch.com -->
    <title>Icons / Success</title>
    <desc>Created with Sketch.</desc>
    <g id="Icons-/-Success" stroke="none" stroke-width="1" fill="none" fill-rule="evenodd">
        <rect id="Rectangle" x="0" y="0" width="32" height="32"></rect>
        <path d="M16,3.22038 C23.0579892,3.22038 28.77962,8.94201077 28.77962,16 C28.77962,23.0579892 23.0579892,28.77962 16,28.77962 C8.94201077,28.77962 3.22038,23.0579892 3.22038,16 C3.22038,8.94201077 8.94201077,3.22038 16,3.22038 Z M16,5.22038 C10.0465803,5.22038 5.22038,10.0465803 5.22038,16 C5.22038,21.9534197 10.0465803,26.77962 16,26.77962 C21.9534197,26.77962 26.77962,21.9534197 26.77962,16 C26.77962,10.0465803 21.9534197,5.22038 16,5.22038 Z M13.34,19.5257864 L21.7528932,11.1128932 C22.1434175,10.7223689 22.7765825,10.7223689 23.1671068,11.1128932 C23.5275907,11.4733772 23.5553203,12.0406082 23.2502954,12.4328994 L23.1671068,12.5271068 L14.0471068,21.6471068 C13.6866228,22.0075907 13.1193918,22.0353203 12.7271006,21.7302954 L12.6328932,21.6471068 L8.07289322,17.0871068 C7.68236893,16.6965825 7.68236893,16.0634175 8.07289322,15.6728932 C8.43337718,15.3124093 9.00060824,15.2846797 9.39289944,15.5897046 L9.48710678,15.6728932 L13.34,19.5257864 L21.7528932,11.1128932 L13.34,19.5257864 Z" id="Shape" fill="#FA2398"></path>
    </g>
</svg>