<?xml version="1.0" encoding="UTF-8"?>
<svg width="32px" height="32px" viewBox="0 0 32 32" version="1.1" xmlns="http://www.w3.org/2000/svg" xmlns:xlink="http://www.w3.org/1999/xlink">
    <!-- Generator: Sketch 63.1 (92452) - https://sketch.com -->
    <title>Icons / Superprice</title>
    <desc>Created with Sketch.</desc>
    <g id="Icons-/-Superprice" stroke="none" stroke-width="1" fill="none" fill-rule="evenodd">
        <g id="Group">
            <rect id="Rectangle" x="0" y="0" width="32" height="32"></rect>
            <path d="M13.34,3.22 C13.6052165,3.22 13.8595704,3.32535684 14.0471068,3.51289322 L28.4871068,17.9528932 C28.8776311,18.3434175 28.8776311,18.9765825 28.4871068,19.3671068 L19.3671068,28.4871068 C18.9765825,28.8776311 18.3434175,28.8776311 17.9528932,28.4871068 L3.51289322,14.0471068 C3.32535684,13.8595704 3.22,13.6052165 3.22,13.34 L3.22,4.22 C3.22,3.66771525 3.66771525,3.22 4.22,3.22 L13.34,3.22 Z M12.9257864,5.22 L5.22,5.22 L5.22,12.9257864 L18.66,26.3657864 L26.3657864,18.66 L12.9257864,5.22 Z M10.3,7.02 C12.111494,7.02 13.58,8.48850602 13.58,10.3 C13.58,12.111494 12.111494,13.58 10.3,13.58 C8.48850602,13.58 7.02,12.111494 7.02,10.3 C7.02,8.48850602 8.48850602,7.02 10.3,7.02 Z M10.3,9.02 C9.59307552,9.02 9.02,9.59307552 9.02,10.3 C9.02,11.0069245 9.59307552,11.58 10.3,11.58 C11.0069245,11.58 11.58,11.0069245 11.58,10.3 C11.58,9.59307552 11.0069245,9.02 10.3,9.02 Z" id="Shape" fill="#FA2398"></path>
        </g>
    </g>
</svg>