<?xml version="1.0" encoding="UTF-8"?>
<svg width="32px" height="32px" viewBox="0 0 32 32" version="1.1" xmlns="http://www.w3.org/2000/svg" xmlns:xlink="http://www.w3.org/1999/xlink">
    <!-- Generator: Sketch 63.1 (92452) - https://sketch.com -->
    <title>Icons / User-plus</title>
    <desc>Created with Sketch.</desc>
    <g id="Icons-/-User-plus" stroke="none" stroke-width="1" fill="none" fill-rule="evenodd">
        <rect id="Rectangle" x="0" y="0" width="32" height="32"></rect>
        <path d="M12.7915805,16.2485254 L12.8022902,16.2493611 L13.1775977,16.281164 C13.2661283,16.2913419 13.3543349,16.30293 13.4793406,16.3205455 L13.6057113,16.3387486 C13.743595,16.3589464 13.8849554,16.3828743 14.0336914,16.4108468 L14.0924204,16.4218604 C14.1806493,16.4382255 14.2587513,16.4535432 14.3377828,16.4703177 C14.5612873,16.5191321 14.7880313,16.5777163 15.0350251,16.6491749 C15.2083386,16.6997247 15.3450977,16.7416658 15.4781861,16.7860286 C15.6616109,16.8471397 15.845602,16.9144445 16.0281684,16.9868254 C16.202889,17.055396 16.3763403,17.1291857 16.5513618,17.2093675 L16.5766906,17.2210475 C20.4386283,18.9928309 22.948647,22.8484889 23.0000746,27.0853853 C23.0066713,27.6423618 22.5570203,28.0974882 22.000003,28.0974882 L2.00000296,28.0974882 C1.44293874,28.0974882 0.99326879,27.642288 0.999926722,27.0852654 C1.05130577,22.8943801 3.52565907,19.0492589 7.36975306,17.2491567 L7.38670508,17.2425103 L7.44266531,17.2148047 C7.73936973,17.0792719 8.04496705,16.9560322 8.34970502,16.8488128 L8.44838986,16.8135811 C8.62497582,16.7524216 8.79505372,16.6985613 8.95868231,16.6521993 C9.17597635,16.5884745 9.39801316,16.5311063 9.63349868,16.4782301 C9.75337574,16.4528045 9.8644097,16.4305356 9.97742853,16.4095085 L10.0219784,16.4013005 L10.0574943,16.3947453 C10.151609,16.377511 10.1971457,16.3695131 10.2374271,16.3634012 L10.3011081,16.3522026 C10.4912884,16.3222994 10.6545633,16.2997787 10.8347078,16.280496 L11.2020472,16.2485976 C11.7395705,16.2090235 12.2301952,16.2077534 12.7915805,16.2485254 Z M11.3622238,18.2421283 L11.0291009,18.2709158 C10.9057597,18.2842699 10.7727303,18.3026188 10.6332464,18.3243105 L10.5698527,18.3354639 C10.5293072,18.3418512 10.5006855,18.3468783 10.4196449,18.3616838 L10.3853669,18.3680107 L10.3406207,18.376253 C10.247739,18.3935367 10.1528398,18.4125697 10.0603663,18.4321071 C9.87822325,18.4730646 9.69755722,18.5197438 9.51292677,18.5738479 C9.37856163,18.6119525 9.24462394,18.6543679 9.11233502,18.7001328 L9.01831316,18.7337367 C8.79326496,18.8129278 8.57060453,18.9014497 8.35374247,18.9978968 C8.30794461,19.0249464 8.25995613,19.0483613 8.21020654,19.0678665 L8.15929876,19.0855718 C5.37674103,20.3902583 3.45562009,23.0753642 3.07043711,26.0974882 L20.9300835,26.0974882 C20.5429388,23.041328 18.5914808,20.3458309 15.7410004,19.0380831 L15.7161781,19.0266353 C15.576799,18.9627848 15.4374478,18.903502 15.2943105,18.8473201 C15.1424517,18.787119 14.9933582,18.7325799 14.8458725,18.6834425 C14.7406448,18.6483666 14.6261183,18.6132437 14.4771182,18.5697829 C14.2724219,18.5105636 14.0878667,18.4628798 13.9170082,18.4255444 C13.8624835,18.4139846 13.8004138,18.4018112 13.7257586,18.387962 L13.6645756,18.37649 C13.5406316,18.3531802 13.4255966,18.3337084 13.3182227,18.3179769 L13.1972877,18.3005548 C13.0907324,18.2855434 13.0180753,18.275998 12.9802384,18.2711576 L12.6414671,18.2428921 C12.1809011,18.2096649 11.7890483,18.2107935 11.3622238,18.2421283 Z M12.0151237,3.90251179 C15.3958605,3.90251179 18.1594494,6.64892457 18.1607314,10.0610587 L18.1594951,10.0548408 C18.1571846,11.8835968 17.3413325,13.6056932 15.8887198,14.8103268 L15.6858516,14.9643577 C15.5976527,15.0359788 15.5390587,15.0812323 15.4521777,15.1413427 C15.3252747,15.2275906 15.207917,15.2979217 15.0503208,15.3866172 L14.9357111,15.454668 C14.81935,15.5172079 14.7159102,15.5659346 14.5728574,15.6290434 L14.3940217,15.7136521 C14.3213788,15.7437651 14.2566041,15.7676444 14.1592953,15.8016205 L14.1202983,15.8152052 L13.9795449,15.865894 L13.963122,15.8721109 L13.9494589,15.8772869 C13.9031748,15.8947165 13.9031748,15.8947165 13.8320032,15.9178821 C13.7692908,15.9372515 13.719918,15.9502092 13.6373077,15.97043 L13.626861,15.9729852 L13.6059766,15.9780653 L13.4259562,16.0240608 L13.414915,16.0270294 C13.3563858,16.0431146 13.3084532,16.0555323 13.2410966,16.0696321 C13.1796987,16.0816244 13.1245246,16.0903805 13.0485387,16.1011285 L13.0151572,16.1058127 L13.0045527,16.1072527 L12.8464107,16.1306687 C12.7566381,16.1463143 12.7076658,16.1538099 12.6420676,16.1601165 C12.4507764,16.1802288 12.2586603,16.1910912 12.0457969,16.1927686 L12.0089908,16.1923714 C11.3847208,16.1918391 10.77043,16.098539 10.1811283,15.9139966 C10.1275931,15.8971498 10.083966,15.8811971 10.0250918,15.8584581 L10.0133726,15.8538368 L9.84469106,15.7923239 L9.822323,15.7844791 C9.73715447,15.7545984 9.6872547,15.7361601 9.62152107,15.7085837 C7.34350514,14.7451151 5.86978473,12.5211302 5.86978473,10.0473302 C5.86978473,9.95293075 5.87340786,9.88620367 5.88308974,9.75370286 L5.88396563,9.74197252 L5.88941617,9.66021171 C6.09044587,6.43022797 8.77962672,3.90251179 12.0151237,3.90251179 Z M12.0151237,5.90251179 C14.2943673,5.90251179 16.1604222,7.75696895 16.1623968,10.0042558 L16.1623968,10.0042558 C16.1579394,11.2849735 15.6084295,12.4448759 14.643831,13.2455499 L14.643831,13.2455499 L14.4492813,13.3927513 C14.3733501,13.4538006 14.3490528,13.4725658 14.3208131,13.492119 C14.2575735,13.5350534 14.1781715,13.5826381 14.0378387,13.6621149 L14.0378387,13.6621149 L13.9426112,13.7194703 C13.9282175,13.7255935 13.8600776,13.7576917 13.7312092,13.8150326 L13.7312092,13.8150326 L13.5808537,13.8851785 L13.5791334,13.8861157 L13.5707799,13.8887655 L13.5000121,13.9134082 L13.461804,13.9267176 L13.4573862,13.9282565 L13.2893863,13.9887875 L13.2529903,14.0024283 L13.2434389,14.0060478 C13.2200814,14.0132689 13.1996473,14.0185151 13.1618,14.0277791 L13.1618,14.0277791 L13.1518142,14.0302216 L13.1178481,14.038563 L12.9195576,14.0892639 L12.8940012,14.0960585 L12.8428818,14.1097351 L12.7684334,14.1208404 L12.7382589,14.1250736 L12.7169887,14.1280542 L12.5264961,14.156564 C12.4939853,14.1620866 12.4747274,14.1653074 12.4625736,14.1672465 L12.4625736,14.1672465 L12.4412757,14.170239 C12.3055134,14.1844778 12.1773826,14.1917223 12.0470348,14.1928558 L12.0470348,14.1928558 L12.0098434,14.1923717 C11.5876042,14.1920114 11.1742827,14.129235 10.7801442,14.0058095 L10.7801442,14.0058095 L10.7420693,13.99139 L10.7102191,13.9792086 L10.5181782,13.9091674 L10.4844396,13.8972585 C10.4352309,13.879994 10.4133822,13.8719207 10.3978526,13.8654069 C8.86271281,13.2161271 7.86978473,11.7177037 7.86978473,10.0473302 C7.86978473,10.017306 7.87159072,9.98404509 7.87777175,9.89945499 L7.87777175,9.89945499 L7.87913042,9.88082766 L7.88527774,9.78873465 C8.02097361,7.6086309 9.83607566,5.90251179 12.0151237,5.90251179 Z M25.6866667,2.52917846 C26.1995025,2.52917846 26.6221738,2.91521865 26.6799389,3.41255733 L26.6866667,3.52917846 L26.686,7.089 L30.2466667,7.08917846 C30.7989514,7.08917846 31.2466667,7.53689371 31.2466667,8.08917846 C31.2466667,8.6020143 30.8606265,9.02468562 30.3632878,9.08245073 L30.2466667,9.08917846 L26.686,9.089 L26.6866667,12.6491785 C26.6866667,13.2014632 26.2389514,13.6491785 25.6866667,13.6491785 C25.1738308,13.6491785 24.7511595,13.2631383 24.6933944,12.7657996 L24.6866667,12.6491785 L24.686,9.089 L21.1266667,9.08917846 C20.5743819,9.08917846 20.1266667,8.64146321 20.1266667,8.08917846 C20.1266667,7.57634262 20.5127069,7.1536713 21.0100455,7.09590619 L21.1266667,7.08917846 L24.686,7.089 L24.6866667,3.52917846 C24.6866667,2.97689371 25.1343819,2.52917846 25.6866667,2.52917846 Z" id="Combined-Shape" fill="#FA2398"></path>
    </g>
</svg>