<?xml version="1.0" encoding="UTF-8"?>
<svg width="32px" height="32px" viewBox="0 0 32 32" version="1.1" xmlns="http://www.w3.org/2000/svg" xmlns:xlink="http://www.w3.org/1999/xlink">
    <!-- Generator: Sketch 63.1 (92452) - https://sketch.com -->
    <title>Icons / User</title>
    <desc>Created with Sketch.</desc>
    <g id="Icons-/-User" stroke="none" stroke-width="1" fill="none" fill-rule="evenodd">
        <rect id="Rectangle" x="0" y="0" width="32" height="32"></rect>
        <path d="M16.7915805,16.2485254 L16.8022902,16.2493611 L17.1775977,16.281164 C17.2661283,16.2913419 17.3543349,16.30293 17.4793406,16.3205455 L17.6057113,16.3387486 C17.743595,16.3589464 17.8849554,16.3828743 18.0336914,16.4108468 L18.0924204,16.4218604 C18.1806493,16.4382255 18.2587513,16.4535432 18.3377828,16.4703177 C18.5612873,16.5191321 18.7880313,16.5777163 19.0350251,16.6491749 C19.2083386,16.6997247 19.3450977,16.7416658 19.4781861,16.7860286 C19.6616109,16.8471397 19.845602,16.9144445 20.0281684,16.9868254 C20.202889,17.055396 20.3763403,17.1291857 20.5513618,17.2093675 L20.5766906,17.2210475 C24.4386283,18.9928309 26.948647,22.8484889 27.0000746,27.0853853 C27.0066713,27.6423618 26.5570203,28.0974882 26.000003,28.0974882 L6.00000296,28.0974882 C5.44293874,28.0974882 4.99326879,27.642288 4.99992672,27.0852654 C5.05130577,22.8943801 7.52565907,19.0492589 11.3697531,17.2491567 L11.3867051,17.2425103 L11.4426653,17.2148047 C11.7393697,17.0792719 12.044967,16.9560322 12.349705,16.8488128 L12.4483899,16.8135811 C12.6249758,16.7524216 12.7950537,16.6985613 12.9586823,16.6521993 C13.1759764,16.5884745 13.3980132,16.5311063 13.6334987,16.4782301 C13.7533757,16.4528045 13.8644097,16.4305356 13.9774285,16.4095085 L14.0219784,16.4013005 L14.0574943,16.3947453 C14.151609,16.377511 14.1971457,16.3695131 14.2374271,16.3634012 L14.3011081,16.3522026 C14.4912884,16.3222994 14.6545633,16.2997787 14.8347078,16.280496 L15.2020472,16.2485976 C15.7395705,16.2090235 16.2301952,16.2077534 16.7915805,16.2485254 Z M15.3622238,18.2421283 L15.0291009,18.2709158 C14.9057597,18.2842699 14.7727303,18.3026188 14.6332464,18.3243105 L14.5698527,18.3354639 C14.5293072,18.3418512 14.5006855,18.3468783 14.4196449,18.3616838 L14.3853669,18.3680107 L14.3406207,18.376253 C14.247739,18.3935367 14.1528398,18.4125697 14.0603663,18.4321071 C13.8782233,18.4730646 13.6975572,18.5197438 13.5129268,18.5738479 C13.3785616,18.6119525 13.2446239,18.6543679 13.112335,18.7001328 L13.0183132,18.7337367 C12.793265,18.8129278 12.5706045,18.9014497 12.3537425,18.9978968 C12.3079446,19.0249464 12.2599561,19.0483613 12.2102065,19.0678665 L12.1592988,19.0855718 C9.37674103,20.3902583 7.45562009,23.0753642 7.07043711,26.0974882 L24.9300835,26.0974882 C24.5429388,23.041328 22.5914808,20.3458309 19.7410004,19.0380831 L19.7161781,19.0266353 C19.576799,18.9627848 19.4374478,18.903502 19.2943105,18.8473201 C19.1424517,18.787119 18.9933582,18.7325799 18.8458725,18.6834425 C18.7406448,18.6483666 18.6261183,18.6132437 18.4771182,18.5697829 C18.2724219,18.5105636 18.0878667,18.4628798 17.9170082,18.4255444 C17.8624835,18.4139846 17.8004138,18.4018112 17.7257586,18.387962 L17.6645756,18.37649 C17.5406316,18.3531802 17.4255966,18.3337084 17.3182227,18.3179769 L17.1972877,18.3005548 C17.0907324,18.2855434 17.0180753,18.275998 16.9802384,18.2711576 L16.6414671,18.2428921 C16.1809011,18.2096649 15.7890483,18.2107935 15.3622238,18.2421283 Z M16.0151237,3.90251179 C19.3958605,3.90251179 22.1594494,6.64892457 22.1607314,10.0610587 L22.1594951,10.0548408 C22.1571846,11.8835968 21.3413325,13.6056932 19.8887198,14.8103268 L19.6858516,14.9643577 C19.5976527,15.0359788 19.5390587,15.0812323 19.4521777,15.1413427 C19.3252747,15.2275906 19.207917,15.2979217 19.0503208,15.3866172 L18.9357111,15.454668 C18.81935,15.5172079 18.7159102,15.5659346 18.5728574,15.6290434 L18.3940217,15.7136521 C18.3213788,15.7437651 18.2566041,15.7676444 18.1592953,15.8016205 L18.1202983,15.8152052 L17.9795449,15.865894 L17.963122,15.8721109 L17.9494589,15.8772869 C17.9031748,15.8947165 17.9031748,15.8947165 17.8320032,15.9178821 C17.7692908,15.9372515 17.719918,15.9502092 17.6373077,15.97043 L17.626861,15.9729852 L17.6059766,15.9780653 L17.4259562,16.0240608 L17.414915,16.0270294 C17.3563858,16.0431146 17.3084532,16.0555323 17.2410966,16.0696321 C17.1796987,16.0816244 17.1245246,16.0903805 17.0485387,16.1011285 L17.0151572,16.1058127 L17.0045527,16.1072527 L16.8464107,16.1306687 C16.7566381,16.1463143 16.7076658,16.1538099 16.6420676,16.1601165 C16.4507764,16.1802288 16.2586603,16.1910912 16.0457969,16.1927686 L16.0089908,16.1923714 C15.3847208,16.1918391 14.77043,16.098539 14.1811283,15.9139966 C14.1275931,15.8971498 14.083966,15.8811971 14.0250918,15.8584581 L14.0133726,15.8538368 L13.8446911,15.7923239 L13.822323,15.7844791 C13.7371545,15.7545984 13.6872547,15.7361601 13.6215211,15.7085837 C11.3435051,14.7451151 9.86978473,12.5211302 9.86978473,10.0473302 C9.86978473,9.95293075 9.87340786,9.88620367 9.88308974,9.75370286 L9.88396563,9.74197252 L9.88941617,9.66021171 C10.0904459,6.43022797 12.7796267,3.90251179 16.0151237,3.90251179 Z M16.0151237,5.90251179 C13.8360757,5.90251179 12.0209736,7.6086309 11.8852777,9.78873465 L11.8791304,9.88082766 L11.8777717,9.89945499 C11.8715907,9.98404509 11.8697847,10.017306 11.8697847,10.0473302 C11.8697847,11.7177037 12.8627128,13.2161271 14.3978526,13.8654069 C14.4133822,13.8719207 14.4352309,13.879994 14.4844396,13.8972585 L14.5181782,13.9091674 L14.7102191,13.9792086 L14.7420693,13.99139 L14.7801442,14.0058095 C15.1742827,14.129235 15.5876042,14.1920114 16.0098434,14.1923717 L16.0470348,14.1928558 C16.1773826,14.1917223 16.3055134,14.1844778 16.4412757,14.170239 L16.4625736,14.1672465 C16.4747274,14.1653074 16.4939853,14.1620866 16.5264961,14.156564 L16.7169887,14.1280542 L16.7382589,14.1250736 L16.7684334,14.1208404 L16.8428818,14.1097351 L16.8940012,14.0960585 L16.9195576,14.0892639 L17.1178481,14.038563 L17.1518142,14.0302216 L17.1618,14.0277791 C17.1996473,14.0185151 17.2200814,14.0132689 17.2376072,14.0081681 L17.2434389,14.0060478 L17.2529903,14.0024283 L17.2893863,13.9887875 L17.4573862,13.9282565 L17.461804,13.9267176 L17.5000121,13.9134082 L17.5707799,13.8887655 C17.5777555,13.8864499 17.5819987,13.8851919 17.5830247,13.8852342 L17.577003,13.888 L17.7312092,13.8150326 C17.8600776,13.7576917 17.9282175,13.7255935 17.9426112,13.7194703 L18.0378387,13.6621149 C18.1781715,13.5826381 18.2575735,13.5350534 18.3208131,13.492119 C18.3490528,13.4725658 18.3733501,13.4538006 18.4492813,13.3927513 L18.643831,13.2455499 C19.6084295,12.4448759 20.1579394,11.2849735 20.1611609,9.99589577 L20.1623968,10.0042558 C20.1604222,7.75696895 18.2943673,5.90251179 16.0151237,5.90251179 Z" id="Combined-Shape" fill="#FA2398"></path>
    </g>
</svg>