<?xml version="1.0" encoding="UTF-8"?>
<svg width="32px" height="32px" viewBox="0 0 32 32" version="1.1" xmlns="http://www.w3.org/2000/svg" xmlns:xlink="http://www.w3.org/1999/xlink">
    <!-- Generator: Sketch 63.1 (92452) - https://sketch.com -->
    <title>Icons / warning</title>
    <desc>Created with Sketch.</desc>
    <g id="Icons-/-warning" stroke="none" stroke-width="1" fill="none" fill-rule="evenodd">
        <rect id="Rectangle" x="0" y="0" width="32" height="32"></rect>
        <path d="M16.866363,4.78287164 L29.222813,26.2182986 C29.6071128,26.8849651 29.1259502,27.7177135 28.35645,27.7177135 L3.64354999,27.7177135 C2.87404984,27.7177135 2.39288721,26.8849651 2.77718702,26.2182986 L15.133637,4.78287164 C15.5183867,4.11542479 16.4816133,4.11542479 16.866363,4.78287164 Z M16,7.28462981 L5.37425052,25.7177135 L26.6257495,25.7177135 L16,7.28462981 Z M16,22.1884766 C16.5522847,22.1884766 17,22.6361918 17,23.1884766 C17,23.7407613 16.5522847,24.1884766 16,24.1884766 C15.4477153,24.1884766 15,23.7407613 15,23.1884766 C15,22.6361918 15.4477153,22.1884766 16,22.1884766 Z M16,12.7084766 C16.5522847,12.7084766 17,13.1561918 17,13.7084766 L17,19.5512695 C17,20.1035543 16.5522847,20.5512695 16,20.5512695 C15.4477153,20.5512695 15,20.1035543 15,19.5512695 L15,13.7084766 C15,13.1561918 15.4477153,12.7084766 16,12.7084766 Z" id="Shape" fill="#FA2398"></path>
    </g>
</svg>