<?xml version="1.0" encoding="UTF-8"?>
<svg width="32px" height="32px" viewBox="0 0 32 32" version="1.1" xmlns="http://www.w3.org/2000/svg" xmlns:xlink="http://www.w3.org/1999/xlink">
    <!-- Generator: Sketch 63.1 (92452) - https://sketch.com -->
    <title>Icons / Zoom-out</title>
    <desc>Created with Sketch.</desc>
    <g id="Icons-/-Zoom-out" stroke="none" stroke-width="1" fill="none" fill-rule="evenodd">
        <g id="Group">
            <rect id="Rectangle" x="0" y="0" width="32" height="32"></rect>
            <path d="M11.8198454,3.22011273 C16.5694942,3.22011273 20.4198454,7.07046388 20.4198454,11.8201127 C20.4198454,13.8340377 19.7275939,15.6862787 18.5680597,17.1518668 L19.4198454,18.0051127 L19.8531326,17.5729627 C20.2436569,17.1824384 20.8768219,17.1824384 21.2673461,17.5729627 L28.4872614,24.792878 C28.8777857,25.1834023 28.8777857,25.8165672 28.4872614,26.2070915 L26.2073589,28.4869941 C25.8168346,28.8775183 25.1836696,28.8775183 24.7931453,28.4869941 L17.5732301,21.2670788 C17.1827058,20.8765545 17.1827058,20.2433895 17.5732301,19.8528652 L18.0048454,19.4201127 L17.1515995,18.568327 C15.6860114,19.7278612 13.8337704,20.4201127 11.8198454,20.4201127 C7.07019653,20.4201127 3.21984538,16.5697616 3.21984538,11.8201127 C3.21984538,7.07046388 7.07019653,3.22011273 11.8198454,3.22011273 Z M11.8198454,5.22011273 C8.17476603,5.22011273 5.21984538,8.17503338 5.21984538,11.8201127 C5.21984538,15.4651921 8.17476603,18.4201127 11.8198454,18.4201127 C15.4649247,18.4201127 18.4198454,15.4651921 18.4198454,11.8201127 C18.4198454,8.17503338 15.4649247,5.22011273 11.8198454,5.22011273 Z M20.5602394,19.694283 L26.3659411,25.4999847 L25.5002521,26.3656737 L19.6945504,20.559972 L20.5602394,19.694283 Z M15.1198454,10.8201127 C15.6326812,10.8201127 16.0553525,11.2061529 16.1131176,11.7034916 L16.1198454,11.8201127 C16.1198454,12.3329486 15.7338052,12.7556199 15.2364665,12.813385 L15.1198454,12.8201127 L8.51984538,12.8201127 C8.00700954,12.8201127 7.58433822,12.4340725 7.52657311,11.9367339 L7.51984538,11.8201127 C7.51984538,11.3072769 7.90588557,10.8846056 8.40322425,10.8268405 L8.51984538,10.8201127 L15.1198454,10.8201127 Z" id="Shape" fill="#FA2398"></path>
        </g>
    </g>
</svg>